<svg width="356" height="104" viewBox="0 0 356 104" fill="none" xmlns="http://www.w3.org/2000/svg">
<rect x="29" y="2" width="300" height="100" rx="50" fill="#39375E"/>
<path fill-rule="evenodd" clip-rule="evenodd" d="M48.9204 3.70428C52.2881 1.37802 57.0784 0 62.8756 0H157.141C157.616 0 158 0.383756 158 0.857143C158 1.33053 157.616 1.71429 157.141 1.71429H62.8756C57.3325 1.71429 52.9089 3.03397 49.8977 5.11396C46.8989 7.18543 45.3064 9.9975 45.3064 13.0867C45.3064 13.5601 44.922 13.9439 44.4477 13.9439H29.3431C29.1839 18.2721 27.8193 24.9407 23.8948 30.6993C19.6679 36.9015 12.4978 42 0.858696 42C0.384451 42 0 41.6162 0 41.1429C0 40.6695 0.384451 40.2857 0.858696 40.2857C11.9001 40.2857 18.5509 35.4927 22.4748 29.735C26.4317 23.9291 27.6418 17.0942 27.6418 13.0867C27.6418 12.6133 28.0263 12.2296 28.5005 12.2296H43.6235C43.8981 8.83881 45.8007 5.85925 48.9204 3.70428Z" fill="#FFF8DC"/>
<path fill-rule="evenodd" clip-rule="evenodd" d="M55.3987 11.3614C58.7341 9.07066 63.4775 7.71429 69.2169 7.71429H109.913C110.387 7.71429 110.772 8.09804 110.772 8.57143C110.772 9.04482 110.387 9.42857 109.913 9.42857H69.2169C63.7297 9.42857 59.3516 10.7275 56.3721 12.7737C53.4049 14.8115 51.8325 17.5754 51.8325 20.6087C51.8325 21.0821 51.448 21.4658 50.9738 21.4658H36.1575C37.4836 25.6247 39.5603 30.1784 41.9944 33.7798C43.3198 35.7406 44.73 37.3877 46.1557 38.5361C47.5866 39.6888 48.9646 40.2857 50.2462 40.2857C50.7204 40.2857 51.1049 40.6695 51.1049 41.1429C51.1049 41.6162 50.7204 42 50.2462 42C48.4256 42 46.6756 41.1579 45.0771 39.8702C43.4733 38.5782 41.9529 36.7835 40.5708 34.7386C38.3104 31.3943 36.3637 27.2969 34.9981 23.4091C33.6325 27.2969 31.6858 31.3943 29.4254 34.7386C28.0433 36.7835 26.5228 38.5782 24.9191 39.8702C23.3206 41.1579 21.5706 42 19.75 42C19.2758 42 18.8913 41.6162 18.8913 41.1429C18.8913 40.6695 19.2758 40.2857 19.75 40.2857C21.0315 40.2857 22.4096 39.6888 23.8405 38.5361C25.2661 37.3877 26.6764 35.7406 28.0017 33.7798C30.6518 29.8589 32.8783 24.809 34.1736 20.369C34.2804 20.0032 34.6163 19.7516 34.9981 19.7516H50.1503C50.4261 16.4127 52.3124 13.481 55.3987 11.3614Z" fill="#FFF8DC"/>
<path fill-rule="evenodd" clip-rule="evenodd" d="M307.08 3.70428C303.712 1.37802 298.922 0 293.124 0H198.859C198.384 0 198 0.383756 198 0.857143C198 1.33053 198.384 1.71429 198.859 1.71429H293.124C298.667 1.71429 303.091 3.03397 306.102 5.11396C309.101 7.18543 310.694 9.9975 310.694 13.0867C310.694 13.5601 311.078 13.9439 311.552 13.9439H326.657C326.816 18.2721 328.181 24.9407 332.105 30.6993C336.332 36.9015 343.502 42 355.141 42C355.616 42 356 41.6162 356 41.1429C356 40.6695 355.616 40.2857 355.141 40.2857C344.1 40.2857 337.449 35.4927 333.525 29.735C329.568 23.9291 328.358 17.0942 328.358 13.0867C328.358 12.6133 327.974 12.2296 327.499 12.2296H312.376C312.102 8.83881 310.199 5.85925 307.08 3.70428Z" fill="#FFF8DC"/>
<path fill-rule="evenodd" clip-rule="evenodd" d="M300.601 11.3614C297.266 9.07066 292.522 7.71429 286.783 7.71429H246.087C245.613 7.71429 245.228 8.09804 245.228 8.57143C245.228 9.04482 245.613 9.42857 246.087 9.42857H286.783C292.27 9.42857 296.648 10.7275 299.628 12.7737C302.595 14.8115 304.168 17.5754 304.168 20.6087C304.168 21.0821 304.552 21.4658 305.026 21.4658H319.842C318.516 25.6247 316.44 30.1784 314.006 33.7798C312.68 35.7406 311.27 37.3877 309.844 38.5361C308.413 39.6888 307.035 40.2857 305.754 40.2857C305.28 40.2857 304.895 40.6695 304.895 41.1429C304.895 41.6162 305.28 42 305.754 42C307.574 42 309.324 41.1579 310.923 39.8702C312.527 38.5782 314.047 36.7835 315.429 34.7386C317.69 31.3943 319.636 27.2969 321.002 23.4091C322.368 27.2969 324.314 31.3943 326.575 34.7386C327.957 36.7835 329.477 38.5782 331.081 39.8702C332.679 41.1579 334.429 42 336.25 42C336.724 42 337.109 41.6162 337.109 41.1429C337.109 40.6695 336.724 40.2857 336.25 40.2857C334.968 40.2857 333.59 39.6888 332.16 38.5361C330.734 37.3877 329.324 35.7406 327.998 33.7798C325.348 29.8589 323.122 24.809 321.826 20.369C321.72 20.0032 321.384 19.7516 321.002 19.7516H305.85C305.574 16.4127 303.688 13.481 300.601 11.3614Z" fill="#FFF8DC"/>
<path fill-rule="evenodd" clip-rule="evenodd" d="M48.9204 100.296C52.2881 102.622 57.0784 104 62.8756 104H157.141C157.616 104 158 103.616 158 103.143C158 102.669 157.616 102.286 157.141 102.286H62.8756C57.3325 102.286 52.9089 100.966 49.8977 98.886C46.8989 96.8146 45.3064 94.0025 45.3064 90.9133C45.3064 90.4399 44.922 90.0561 44.4477 90.0561H29.3431C29.1839 85.7279 27.8193 79.0593 23.8948 73.3007C19.6679 67.0985 12.4978 62 0.858696 62C0.384451 62 0 62.3838 0 62.8571C0 63.3305 0.384451 63.7143 0.858696 63.7143C11.9001 63.7143 18.5509 68.5073 22.4748 74.265C26.4317 80.0709 27.6418 86.9058 27.6418 90.9133C27.6418 91.3867 28.0263 91.7704 28.5005 91.7704H43.6235C43.8981 95.1612 45.8007 98.1408 48.9204 100.296Z" fill="#FFF8DC"/>
<path fill-rule="evenodd" clip-rule="evenodd" d="M55.3987 92.6386C58.7341 94.9293 63.4775 96.2857 69.2169 96.2857H109.913C110.387 96.2857 110.772 95.902 110.772 95.4286C110.772 94.9552 110.387 94.5714 109.913 94.5714H69.2169C63.7297 94.5714 59.3516 93.2725 56.3721 91.2263C53.4049 89.1885 51.8325 86.4246 51.8325 83.3913C51.8325 82.9179 51.448 82.5342 50.9738 82.5342H36.1575C37.4836 78.3753 39.5603 73.8216 41.9944 70.2202C43.3198 68.2594 44.73 66.6123 46.1557 65.4639C47.5866 64.3112 48.9646 63.7143 50.2462 63.7143C50.7204 63.7143 51.1049 63.3305 51.1049 62.8571C51.1049 62.3838 50.7204 62 50.2462 62C48.4256 62 46.6756 62.8421 45.0771 64.1298C43.4733 65.4218 41.9529 67.2165 40.5708 69.2614C38.3104 72.6057 36.3637 76.7031 34.9981 80.5909C33.6325 76.7031 31.6858 72.6057 29.4254 69.2614C28.0433 67.2165 26.5228 65.4218 24.9191 64.1298C23.3206 62.8421 21.5706 62 19.75 62C19.2758 62 18.8913 62.3838 18.8913 62.8571C18.8913 63.3305 19.2758 63.7143 19.75 63.7143C21.0315 63.7143 22.4096 64.3112 23.8405 65.4639C25.2661 66.6123 26.6764 68.2594 28.0017 70.2202C30.6518 74.1411 32.8783 79.191 34.1736 83.631C34.2804 83.9968 34.6163 84.2484 34.9981 84.2484H50.1503C50.4261 87.5873 52.3124 90.519 55.3987 92.6386Z" fill="#FFF8DC"/>
<path fill-rule="evenodd" clip-rule="evenodd" d="M307.08 100.296C303.712 102.622 298.922 104 293.124 104H198.859C198.384 104 198 103.616 198 103.143C198 102.669 198.384 102.286 198.859 102.286H293.124C298.667 102.286 303.091 100.966 306.102 98.886C309.101 96.8146 310.694 94.0025 310.694 90.9133C310.694 90.4399 311.078 90.0561 311.552 90.0561H326.657C326.816 85.7279 328.181 79.0593 332.105 73.3007C336.332 67.0985 343.502 62 355.141 62C355.616 62 356 62.3838 356 62.8571C356 63.3305 355.616 63.7143 355.141 63.7143C344.1 63.7143 337.449 68.5073 333.525 74.265C329.568 80.0709 328.358 86.9058 328.358 90.9133C328.358 91.3867 327.974 91.7704 327.499 91.7704H312.376C312.102 95.1612 310.199 98.1408 307.08 100.296Z" fill="#FFF8DC"/>
<path fill-rule="evenodd" clip-rule="evenodd" d="M300.601 92.6386C297.266 94.9293 292.522 96.2857 286.783 96.2857H246.087C245.613 96.2857 245.228 95.902 245.228 95.4286C245.228 94.9552 245.613 94.5714 246.087 94.5714H286.783C292.27 94.5714 296.648 93.2725 299.628 91.2263C302.595 89.1885 304.168 86.4246 304.168 83.3913C304.168 82.9179 304.552 82.5342 305.026 82.5342H319.842C318.516 78.3753 316.44 73.8216 314.006 70.2202C312.68 68.2594 311.27 66.6123 309.844 65.4639C308.413 64.3112 307.035 63.7143 305.754 63.7143C305.28 63.7143 304.895 63.3305 304.895 62.8571C304.895 62.3838 305.28 62 305.754 62C307.574 62 309.324 62.8421 310.923 64.1298C312.527 65.4218 314.047 67.2165 315.429 69.2614C317.69 72.6057 319.636 76.7031 321.002 80.5909C322.368 76.7031 324.314 72.6057 326.575 69.2614C327.957 67.2165 329.477 65.4218 331.081 64.1298C332.679 62.8421 334.429 62 336.25 62C336.724 62 337.109 62.3838 337.109 62.8571C337.109 63.3305 336.724 63.7143 336.25 63.7143C334.968 63.7143 333.59 64.3112 332.16 65.4639C330.734 66.6123 329.324 68.2594 327.998 70.2202C325.348 74.1411 323.122 79.191 321.826 83.631C321.72 83.9968 321.384 84.2484 321.002 84.2484H305.85C305.574 87.5873 303.688 90.519 300.601 92.6386Z" fill="#FFF8DC"/>
</svg>
