<svg width="340" height="104" viewBox="0 0 340 104" fill="none" xmlns="http://www.w3.org/2000/svg">
<rect width="300" height="100" transform="translate(20 2)" fill="#39375E"/>
<path fill-rule="evenodd" clip-rule="evenodd" d="M28.0354 0.636364C28.0354 0.28491 28.3224 0 28.6765 0H117.947C118.301 0 118.588 0.28491 118.588 0.636364C118.588 0.987818 118.301 1.27273 117.947 1.27273H29.3175V14.579C29.3175 14.9305 29.0305 15.2154 28.6765 15.2154H12.7175V29.9894C12.7175 30.1579 12.6502 30.3196 12.5302 30.4389L1.09472 41.8132C0.844627 42.0619 0.438757 42.0623 0.188185 41.814C-0.0623883 41.5658 -0.0627775 41.1628 0.187315 40.9141L11.4355 29.7261V14.579C11.4355 14.2276 11.7225 13.9427 12.0765 13.9427H28.0354V0.636364Z" fill="#FFF8DC"/>
<path fill-rule="evenodd" clip-rule="evenodd" d="M20.5126 15.9091C20.8666 15.9091 21.1536 16.194 21.1536 16.5455V30.9919C21.1536 31.1586 21.0877 31.3187 20.97 31.4377L10.7137 41.8094C10.4657 42.0602 10.0599 42.064 9.80722 41.8177C9.55458 41.5715 9.55083 41.1686 9.79884 40.9178L19.8715 30.7317V16.5455C19.8715 16.194 20.1585 15.9091 20.5126 15.9091Z" fill="#FFF8DC"/>
<path fill-rule="evenodd" clip-rule="evenodd" d="M19.8715 0.636364C19.8715 0.28491 20.1585 0 20.5126 0H26.2817C26.6357 0 26.9227 0.28491 26.9227 0.636364C26.9227 0.987818 26.6357 1.27273 26.2817 1.27273H21.1536V12.0909C21.1536 12.4424 20.8666 12.7273 20.5126 12.7273C20.1585 12.7273 19.8715 12.4424 19.8715 12.0909V0.636364Z" fill="#FFF8DC"/>
<path fill-rule="evenodd" clip-rule="evenodd" d="M311.965 0.636364C311.965 0.28491 311.678 0 311.324 0H222.053C221.699 0 221.412 0.28491 221.412 0.636364C221.412 0.987818 221.699 1.27273 222.053 1.27273H310.683V14.579C310.683 14.9305 310.97 15.2154 311.324 15.2154H327.282V29.9894C327.282 30.1579 327.35 30.3196 327.47 30.4389L338.905 41.8132C339.155 42.0619 339.561 42.0623 339.812 41.814C340.062 41.5658 340.063 41.1628 339.813 40.9141L328.564 29.7261V14.579C328.564 14.2276 328.277 13.9427 327.923 13.9427H311.965V0.636364Z" fill="#FFF8DC"/>
<path fill-rule="evenodd" clip-rule="evenodd" d="M319.487 15.9091C319.133 15.9091 318.846 16.194 318.846 16.5455V30.9919C318.846 31.1586 318.912 31.3187 319.03 31.4377L329.286 41.8094C329.534 42.0602 329.94 42.064 330.193 41.8177C330.445 41.5715 330.449 41.1686 330.201 40.9178L320.128 30.7317V16.5455C320.128 16.194 319.841 15.9091 319.487 15.9091Z" fill="#FFF8DC"/>
<path fill-rule="evenodd" clip-rule="evenodd" d="M320.128 0.636364C320.128 0.28491 319.841 0 319.487 0H313.718C313.364 0 313.077 0.28491 313.077 0.636364C313.077 0.987818 313.364 1.27273 313.718 1.27273H318.846V12.0909C318.846 12.4424 319.133 12.7273 319.487 12.7273C319.841 12.7273 320.128 12.4424 320.128 12.0909V0.636364Z" fill="#FFF8DC"/>
<path fill-rule="evenodd" clip-rule="evenodd" d="M28.0354 103.364C28.0354 103.715 28.3224 104 28.6765 104H117.947C118.301 104 118.588 103.715 118.588 103.364C118.588 103.012 118.301 102.727 117.947 102.727H29.3175V89.421C29.3175 89.0695 29.0305 88.7846 28.6765 88.7846H12.7175V74.0106C12.7175 73.8421 12.6502 73.6804 12.5302 73.5611L1.09472 62.1868C0.844627 61.9381 0.438757 61.9377 0.188185 62.186C-0.0623883 62.4342 -0.0627775 62.8372 0.187315 63.0859L11.4355 74.2739V89.421C11.4355 89.7724 11.7225 90.0573 12.0765 90.0573H28.0354V103.364Z" fill="#FFF8DC"/>
<path fill-rule="evenodd" clip-rule="evenodd" d="M20.5126 88.0909C20.8666 88.0909 21.1536 87.806 21.1536 87.4545V73.0081C21.1536 72.8414 21.0877 72.6813 20.97 72.5623L10.7137 62.1906C10.4657 61.9398 10.0599 61.936 9.80722 62.1823C9.55458 62.4285 9.55083 62.8314 9.79884 63.0822L19.8715 73.2683V87.4545C19.8715 87.806 20.1585 88.0909 20.5126 88.0909Z" fill="#FFF8DC"/>
<path fill-rule="evenodd" clip-rule="evenodd" d="M19.8715 103.364C19.8715 103.715 20.1585 104 20.5126 104H26.2817C26.6357 104 26.9227 103.715 26.9227 103.364C26.9227 103.012 26.6357 102.727 26.2817 102.727H21.1536V91.9091C21.1536 91.5576 20.8666 91.2727 20.5126 91.2727C20.1585 91.2727 19.8715 91.5576 19.8715 91.9091V103.364Z" fill="#FFF8DC"/>
<path fill-rule="evenodd" clip-rule="evenodd" d="M311.965 103.364C311.965 103.715 311.678 104 311.324 104H222.053C221.699 104 221.412 103.715 221.412 103.364C221.412 103.012 221.699 102.727 222.053 102.727H310.683V89.421C310.683 89.0695 310.97 88.7846 311.324 88.7846H327.282V74.0106C327.282 73.8421 327.35 73.6804 327.47 73.5611L338.905 62.1868C339.155 61.9381 339.561 61.9377 339.812 62.186C340.062 62.4342 340.063 62.8372 339.813 63.0859L328.564 74.2739V89.421C328.564 89.7724 328.277 90.0573 327.923 90.0573H311.965V103.364Z" fill="#FFF8DC"/>
<path fill-rule="evenodd" clip-rule="evenodd" d="M319.487 88.0909C319.133 88.0909 318.846 87.806 318.846 87.4545V73.0081C318.846 72.8414 318.912 72.6813 319.03 72.5623L329.286 62.1906C329.534 61.9398 329.94 61.936 330.193 62.1823C330.445 62.4285 330.449 62.8314 330.201 63.0822L320.128 73.2683V87.4545C320.128 87.806 319.841 88.0909 319.487 88.0909Z" fill="#FFF8DC"/>
<path fill-rule="evenodd" clip-rule="evenodd" d="M320.128 103.364C320.128 103.715 319.841 104 319.487 104H313.718C313.364 104 313.077 103.715 313.077 103.364C313.077 103.012 313.364 102.727 313.718 102.727H318.846V91.9091C318.846 91.5576 319.133 91.2727 319.487 91.2727C319.841 91.2727 320.128 91.5576 320.128 91.9091V103.364Z" fill="#FFF8DC"/>
</svg>
