<svg width="360" height="103" viewBox="0 0 360 103" fill="none" xmlns="http://www.w3.org/2000/svg">
<rect width="300" height="100" transform="translate(30 1)" fill="#39375E"/>
<path fill-rule="evenodd" clip-rule="evenodd" d="M34.8272 1.29516C35.015 1.10624 35.2703 1 35.5366 1H50.0294H178C178.552 1 179 1.44772 179 2C179 2.55228 178.552 3 178 3H50.4457L31.0038 22.5669C30.6146 22.9587 29.9814 22.9607 29.5896 22.5714C29.1978 22.1822 29.1958 21.549 29.5851 21.1572L47.6263 3H35.9527L28.2108 10.7916V36.4483C28.2108 37.0006 27.7631 37.4483 27.2108 37.4483C26.6585 37.4483 26.2108 37.0006 26.2108 36.4483V24.4138H15.9092L3.40334 37H13.8435L24.3429 26.4331C24.7322 26.0413 25.3654 26.0393 25.7571 26.4286C26.1489 26.8178 26.1509 27.451 25.7617 27.8428L14.969 38.7048C14.7813 38.8938 14.5259 39 14.2596 39H1.00003C0.596149 39 0.231919 38.757 0.0767633 38.3842C-0.0783922 38.0113 0.00599056 37.5817 0.29066 37.2952L14.7837 22.709C14.9714 22.52 15.2267 22.4138 15.4931 22.4138H26.2108V10.3793C26.2108 10.1152 26.3153 9.86182 26.5015 9.67447L34.8272 1.29516Z" fill="#FFF8DC"/>
<path fill-rule="evenodd" clip-rule="evenodd" d="M325.173 1.29516C324.985 1.10624 324.73 1 324.463 1H309.971H182C181.448 1 181 1.44772 181 2C181 2.55228 181.448 3 182 3H309.554L328.996 22.5669C329.385 22.9587 330.019 22.9607 330.41 22.5714C330.802 22.1822 330.804 21.549 330.415 21.1572L312.374 3H324.047L331.789 10.7916V36.4483C331.789 37.0006 332.237 37.4483 332.789 37.4483C333.341 37.4483 333.789 37.0006 333.789 36.4483V24.4138H344.091L356.597 37H346.156L335.657 26.4331C335.268 26.0413 334.635 26.0393 334.243 26.4286C333.851 26.8178 333.849 27.451 334.238 27.8428L345.031 38.7048C345.219 38.8938 345.474 39 345.74 39H359C359.404 39 359.768 38.757 359.923 38.3842C360.078 38.0113 359.994 37.5817 359.709 37.2952L345.216 22.709C345.029 22.52 344.773 22.4138 344.507 22.4138H333.789V10.3793C333.789 10.1152 333.685 9.86182 333.499 9.67447L325.173 1.29516Z" fill="#FFF8DC"/>
<path fill-rule="evenodd" clip-rule="evenodd" d="M34.8272 101.705C35.015 101.894 35.2703 102 35.5366 102H50.0294H178C178.552 102 179 101.552 179 101C179 100.448 178.552 100 178 100H50.4457L31.0038 80.4331C30.6146 80.0413 29.9814 80.0393 29.5896 80.4286C29.1978 80.8178 29.1958 81.451 29.5851 81.8428L47.6263 100H35.9527L28.2108 92.2084V66.5517C28.2108 65.9994 27.7631 65.5517 27.2108 65.5517C26.6585 65.5517 26.2108 65.9994 26.2108 66.5517V78.5862H15.9092L3.40334 66H13.8435L24.3429 76.5669C24.7322 76.9587 25.3654 76.9607 25.7571 76.5714C26.1489 76.1822 26.1509 75.549 25.7617 75.1572L14.969 64.2952C14.7813 64.1062 14.5259 64 14.2596 64H1.00003C0.596149 64 0.231919 64.243 0.0767633 64.6158C-0.0783922 64.9887 0.00599056 65.4183 0.29066 65.7048L14.7837 80.291C14.9714 80.48 15.2267 80.5862 15.4931 80.5862H26.2108V92.6207C26.2108 92.8848 26.3153 93.1382 26.5015 93.3255L34.8272 101.705Z" fill="#FFF8DC"/>
<path fill-rule="evenodd" clip-rule="evenodd" d="M325.173 101.705C324.985 101.894 324.73 102 324.463 102H309.971H182C181.448 102 181 101.552 181 101C181 100.448 181.448 100 182 100H309.554L328.996 80.4331C329.385 80.0413 330.019 80.0393 330.41 80.4286C330.802 80.8178 330.804 81.451 330.415 81.8428L312.374 100H324.047L331.789 92.2084V66.5517C331.789 65.9994 332.237 65.5517 332.789 65.5517C333.341 65.5517 333.789 65.9994 333.789 66.5517V78.5862H344.091L356.597 66H346.156L335.657 76.5669C335.268 76.9587 334.635 76.9607 334.243 76.5714C333.851 76.1822 333.849 75.549 334.238 75.1572L345.031 64.2952C345.219 64.1062 345.474 64 345.74 64H359C359.404 64 359.768 64.243 359.923 64.6158C360.078 64.9887 359.994 65.4183 359.709 65.7048L345.216 80.291C345.029 80.48 344.773 80.5862 344.507 80.5862H333.789V92.6207C333.789 92.8848 333.685 93.1382 333.499 93.3255L325.173 101.705Z" fill="#FFF8DC"/>
</svg>
