<svg width="324" height="134" viewBox="0 0 324 134" fill="none" xmlns="http://www.w3.org/2000/svg">
<rect x="13" y="17" width="300" height="100" rx="50" fill="#39375E"/>
<path fill-rule="evenodd" clip-rule="evenodd" d="M52.6858 0.236778C53.0041 -0.078926 53.5201 -0.078926 53.8385 0.236778L72.4709 18.7153C72.6239 18.867 72.7098 19.0728 72.7098 19.2873V31.6063C72.7098 32.053 72.3448 32.4152 71.8946 32.4152C71.4444 32.4152 71.0794 32.053 71.0794 31.6063V19.6225L65.6838 14.2714L45.5574 34.2315C45.4045 34.3832 45.1972 34.4683 44.981 34.4683H21.8555L14.735 41.53L26.3486 53.0476L33.8145 45.6434V35.7127C33.8145 35.266 34.1794 34.9038 34.6297 34.9038C35.0799 34.9038 35.4449 35.266 35.4449 35.7127V45.9785C35.4449 46.1931 35.359 46.3989 35.206 46.5506L26.9249 54.7632C26.6066 55.0789 26.0906 55.0789 25.7723 54.7632L13.5819 42.6736L1.39154 54.7632C1.07311 55.079 0.556945 55.0789 0.23865 54.763C-0.0796451 54.447 -0.079536 53.9349 0.238893 53.6191L20.9416 33.0875C21.0945 32.9358 21.3018 32.8507 21.5179 32.8507H44.6435L64.5306 13.1278L53.2621 1.95243L41.9936 13.1278L52.4583 23.506C52.7767 23.8218 52.7768 24.3339 52.4585 24.6499C52.1402 24.9658 51.6241 24.9659 51.3056 24.6501L40.8405 14.2714L35.4449 19.6225V31.6063C35.4449 32.053 35.0799 32.4152 34.6297 32.4152C34.1794 32.4152 33.8145 32.053 33.8145 31.6063V19.2873C33.8145 19.0728 33.9004 18.867 34.0533 18.7153L52.6858 0.236778ZM15.8721 17.2342C15.8721 16.7875 16.2371 16.4253 16.6873 16.4253H30.1441C30.5943 16.4253 30.9593 16.7875 30.9593 17.2342C30.9593 17.6809 30.5943 18.043 30.1441 18.043H17.5025V35.7127C17.5025 36.1594 17.1375 36.5215 16.6873 36.5215C16.2371 36.5215 15.8721 36.1594 15.8721 35.7127V17.2342ZM75.565 17.2342C75.565 16.7875 75.9299 16.4253 76.3802 16.4253H149.185C149.635 16.4253 150 16.7875 150 17.2342C150 17.6809 149.635 18.043 149.185 18.043H76.3802C75.9299 18.043 75.565 17.6809 75.565 17.2342ZM54.0657 26.2438C54.384 25.9279 54.9002 25.9278 55.2186 26.2436L61.8808 32.8507H85.0063C85.2225 32.8507 85.4298 32.9358 85.5826 33.0875L93.5187 40.9579C93.6716 41.1096 93.7576 41.3154 93.7576 41.53C93.7576 41.7445 93.6716 41.9503 93.5187 42.102L80.752 54.7632C80.4337 55.0789 79.9177 55.0789 79.5994 54.7632L71.3183 46.5506C71.1653 46.3989 71.0794 46.1931 71.0794 45.9785V35.7127C71.0794 35.266 71.4444 34.9038 71.8946 34.9038C72.3448 34.9038 72.7098 35.266 72.7098 35.7127V45.6434L80.1757 53.0476L91.7892 41.53L84.6687 34.4683H61.5432C61.3271 34.4683 61.1198 34.3832 60.9669 34.2315L54.066 27.3877C53.7476 27.0719 53.7474 26.5597 54.0657 26.2438Z" fill="#FFF8DC"/>
<path fill-rule="evenodd" clip-rule="evenodd" d="M271.314 133.763C270.996 134.079 270.48 134.079 270.162 133.763L251.529 115.285C251.376 115.133 251.29 114.927 251.29 114.713V102.394C251.29 101.947 251.655 101.585 252.105 101.585C252.556 101.585 252.921 101.947 252.921 102.394V114.378L258.316 119.729L278.443 99.7685C278.596 99.6168 278.803 99.5317 279.019 99.5317H302.144L309.265 92.47L297.651 80.9524L290.186 88.3566V98.2873C290.186 98.734 289.821 99.0962 289.37 99.0962C288.92 99.0962 288.555 98.734 288.555 98.2873V88.0215C288.555 87.8069 288.641 87.6011 288.794 87.4494L297.075 79.2368C297.393 78.9211 297.909 78.9211 298.228 79.2368L310.418 91.3264L322.608 79.2368C322.927 78.921 323.443 78.9211 323.761 79.237C324.08 79.553 324.08 80.0651 323.761 80.3809L303.058 100.913C302.906 101.064 302.698 101.149 302.482 101.149H279.357L259.469 120.872L270.738 132.048L282.006 120.872L271.542 110.494C271.223 110.178 271.223 109.666 271.541 109.35C271.86 109.034 272.376 109.034 272.694 109.35L283.16 119.729L288.555 114.378V102.394C288.555 101.947 288.92 101.585 289.37 101.585C289.821 101.585 290.186 101.947 290.186 102.394V114.713C290.186 114.927 290.1 115.133 289.947 115.285L271.314 133.763ZM308.128 116.766C308.128 117.213 307.763 117.575 307.313 117.575H293.856C293.406 117.575 293.041 117.213 293.041 116.766C293.041 116.319 293.406 115.957 293.856 115.957H306.497V98.2873C306.497 97.8406 306.862 97.4785 307.313 97.4785C307.763 97.4785 308.128 97.8406 308.128 98.2873V116.766ZM248.435 116.766C248.435 117.213 248.07 117.575 247.62 117.575H174.815C174.365 117.575 174 117.213 174 116.766C174 116.319 174.365 115.957 174.815 115.957H247.62C248.07 115.957 248.435 116.319 248.435 116.766ZM269.934 107.756C269.616 108.072 269.1 108.072 268.781 107.756L262.119 101.149H238.994C238.778 101.149 238.57 101.064 238.417 100.913L230.481 93.0421C230.328 92.8904 230.242 92.6846 230.242 92.47C230.242 92.2555 230.328 92.0497 230.481 91.898L243.248 79.2368C243.566 78.9211 244.082 78.9211 244.401 79.2368L252.682 87.4494C252.835 87.6011 252.921 87.8069 252.921 88.0215V98.2873C252.921 98.734 252.556 99.0962 252.105 99.0962C251.655 99.0962 251.29 98.734 251.29 98.2873V88.3566L243.824 80.9524L232.211 92.47L239.331 99.5317H262.457C262.673 99.5317 262.88 99.6168 263.033 99.7685L269.934 106.612C270.252 106.928 270.253 107.44 269.934 107.756Z" fill="#FFF8DC"/>
<path fill-rule="evenodd" clip-rule="evenodd" d="M52.6858 133.763C53.0041 134.079 53.5201 134.079 53.8385 133.763L72.4709 115.285C72.6239 115.133 72.7098 114.927 72.7098 114.713V102.394C72.7098 101.947 72.3448 101.585 71.8946 101.585C71.4444 101.585 71.0794 101.947 71.0794 102.394V114.378L65.6838 119.729L45.5574 99.7685C45.4045 99.6168 45.1972 99.5317 44.981 99.5317H21.8555L14.735 92.47L26.3486 80.9524L33.8145 88.3566V98.2873C33.8145 98.734 34.1794 99.0962 34.6297 99.0962C35.0799 99.0962 35.4449 98.734 35.4449 98.2873V88.0215C35.4449 87.8069 35.359 87.6011 35.206 87.4494L26.9249 79.2368C26.6066 78.9211 26.0906 78.9211 25.7723 79.2368L13.5819 91.3264L1.39154 79.2368C1.07311 78.921 0.556945 78.9211 0.23865 79.237C-0.0796451 79.553 -0.079536 80.0651 0.238893 80.3809L20.9416 100.913C21.0945 101.064 21.3018 101.149 21.5179 101.149H44.6435L64.5306 120.872L53.2621 132.048L41.9936 120.872L52.4583 110.494C52.7767 110.178 52.7768 109.666 52.4585 109.35C52.1402 109.034 51.6241 109.034 51.3056 109.35L40.8405 119.729L35.4449 114.378V102.394C35.4449 101.947 35.0799 101.585 34.6297 101.585C34.1794 101.585 33.8145 101.947 33.8145 102.394V114.713C33.8145 114.927 33.9004 115.133 34.0533 115.285L52.6858 133.763ZM15.8721 116.766C15.8721 117.213 16.2371 117.575 16.6873 117.575H30.1441C30.5943 117.575 30.9593 117.213 30.9593 116.766C30.9593 116.319 30.5943 115.957 30.1441 115.957H17.5025V98.2873C17.5025 97.8406 17.1375 97.4785 16.6873 97.4785C16.2371 97.4785 15.8721 97.8406 15.8721 98.2873V116.766ZM75.565 116.766C75.565 117.213 75.9299 117.575 76.3802 117.575H149.185C149.635 117.575 150 117.213 150 116.766C150 116.319 149.635 115.957 149.185 115.957H76.3802C75.9299 115.957 75.565 116.319 75.565 116.766ZM54.0657 107.756C54.384 108.072 54.9002 108.072 55.2186 107.756L61.8808 101.149H85.0063C85.2225 101.149 85.4298 101.064 85.5826 100.913L93.5187 93.0421C93.6716 92.8904 93.7576 92.6846 93.7576 92.47C93.7576 92.2555 93.6716 92.0497 93.5187 91.898L80.752 79.2368C80.4337 78.9211 79.9177 78.9211 79.5994 79.2368L71.3183 87.4494C71.1653 87.6011 71.0794 87.8069 71.0794 88.0215V98.2873C71.0794 98.734 71.4444 99.0962 71.8946 99.0962C72.3448 99.0962 72.7098 98.734 72.7098 98.2873V88.3566L80.1757 80.9524L91.7892 92.47L84.6687 99.5317H61.5432C61.3271 99.5317 61.1198 99.6168 60.9669 99.7685L54.066 106.612C53.7476 106.928 53.7474 107.44 54.0657 107.756Z" fill="#FFF8DC"/>
<path fill-rule="evenodd" clip-rule="evenodd" d="M271.314 0.236778C270.996 -0.078926 270.48 -0.078926 270.162 0.236778L251.529 18.7153C251.376 18.867 251.29 19.0728 251.29 19.2873V31.6063C251.29 32.053 251.655 32.4152 252.105 32.4152C252.556 32.4152 252.921 32.053 252.921 31.6063V19.6225L258.316 14.2714L278.443 34.2315C278.596 34.3832 278.803 34.4683 279.019 34.4683H302.144L309.265 41.53L297.651 53.0476L290.186 45.6434V35.7127C290.186 35.266 289.821 34.9038 289.37 34.9038C288.92 34.9038 288.555 35.266 288.555 35.7127V45.9785C288.555 46.1931 288.641 46.3989 288.794 46.5506L297.075 54.7632C297.393 55.0789 297.909 55.0789 298.228 54.7632L310.418 42.6736L322.608 54.7632C322.927 55.079 323.443 55.0789 323.761 54.763C324.08 54.447 324.08 53.9349 323.761 53.6191L303.058 33.0875C302.906 32.9358 302.698 32.8507 302.482 32.8507H279.357L259.469 13.1278L270.738 1.95243L282.006 13.1278L271.542 23.506C271.223 23.8218 271.223 24.3339 271.541 24.6499C271.86 24.9658 272.376 24.9659 272.694 24.6501L283.16 14.2714L288.555 19.6225V31.6063C288.555 32.053 288.92 32.4152 289.37 32.4152C289.821 32.4152 290.186 32.053 290.186 31.6063V19.2873C290.186 19.0728 290.1 18.867 289.947 18.7153L271.314 0.236778ZM308.128 17.2342C308.128 16.7875 307.763 16.4253 307.313 16.4253H293.856C293.406 16.4253 293.041 16.7875 293.041 17.2342C293.041 17.6809 293.406 18.043 293.856 18.043H306.497V35.7127C306.497 36.1594 306.862 36.5215 307.313 36.5215C307.763 36.5215 308.128 36.1594 308.128 35.7127V17.2342ZM248.435 17.2342C248.435 16.7875 248.07 16.4253 247.62 16.4253H174.815C174.365 16.4253 174 16.7875 174 17.2342C174 17.6809 174.365 18.043 174.815 18.043H247.62C248.07 18.043 248.435 17.6809 248.435 17.2342ZM269.934 26.2438C269.616 25.9279 269.1 25.9278 268.781 26.2436L262.119 32.8507H238.994C238.778 32.8507 238.57 32.9358 238.417 33.0875L230.481 40.9579C230.328 41.1096 230.242 41.3154 230.242 41.53C230.242 41.7445 230.328 41.9503 230.481 42.102L243.248 54.7632C243.566 55.0789 244.082 55.0789 244.401 54.7632L252.682 46.5506C252.835 46.3989 252.921 46.1931 252.921 45.9785V35.7127C252.921 35.266 252.556 34.9038 252.105 34.9038C251.655 34.9038 251.29 35.266 251.29 35.7127V45.6434L243.824 53.0476L232.211 41.53L239.331 34.4683H262.457C262.673 34.4683 262.88 34.3832 263.033 34.2315L269.934 27.3877C270.252 27.0719 270.253 26.5597 269.934 26.2438Z" fill="#FFF8DC"/>
</svg>
