<svg width="370" height="405" viewBox="0 0 370 405" fill="none" xmlns="http://www.w3.org/2000/svg">
<g clip-path="url(#clip0_2002_1946)">
<rect width="370" height="405" rx="30" fill="#39375E"/>
<path fill-rule="evenodd" clip-rule="evenodd" d="M7.9943e-09 0.502998C-4.14855e-09 0.225202 0.225198 3.63993e-06 0.502994 3.62778e-06L83.497 0C83.7748 -1.21426e-08 84 0.225198 84 0.502994C84 0.78079 83.7748 1.00599 83.497 1.00599L0.502994 1.00599C0.225198 1.00599 2.01371e-08 0.780794 7.9943e-09 0.502998Z" fill="#FFF8DC"/>
<path fill-rule="evenodd" clip-rule="evenodd" d="M0.502994 3.62778e-06C0.78079 3.62778e-06 1.00599 0.225202 1.00599 0.502998V83.497C1.00599 83.7748 0.78079 84 0.502994 84C0.225198 84 0 83.7748 0 83.497L7.9943e-09 0.502998C-4.14855e-09 0.225202 0.225198 3.63993e-06 0.502994 3.62778e-06Z" fill="#FFF8DC"/>
<path fill-rule="evenodd" clip-rule="evenodd" d="M24.1803 0.502998C24.1803 0.225202 24.4055 3.60391e-06 24.6833 3.60391e-06H41.0555C41.3332 3.60391e-06 41.5584 0.225202 41.5584 0.502998C41.5584 23.1773 23.1773 41.5585 0.502994 41.5585C0.225198 41.5585 0 41.3333 0 41.0555V24.6833C0 24.4056 0.225198 24.1804 0.502994 24.1804C13.5796 24.1804 24.1803 13.5796 24.1803 0.502998ZM25.1813 1.00599C24.9168 14.2388 14.2388 24.9168 1.00599 25.1813V40.5494C22.7255 40.2821 40.282 22.7255 40.5494 1.00599H25.1813Z" fill="#FFF8DC"/>
<path fill-rule="evenodd" clip-rule="evenodd" d="M20.9733 12.5202C21.1122 12.2796 21.4198 12.1972 21.6604 12.3361L35.7656 20.4798C36.0062 20.6187 36.0886 20.9263 35.9497 21.1669C35.8108 21.4074 35.5032 21.4899 35.2626 21.351L21.1574 13.2073C20.9168 13.0684 20.8344 12.7608 20.9733 12.5202Z" fill="#FFF8DC"/>
<path fill-rule="evenodd" clip-rule="evenodd" d="M12.1649 21.1382C12.4055 20.9993 12.7131 21.0818 12.852 21.3223L21.0295 35.4863C21.1684 35.7268 21.086 36.0345 20.8454 36.1734C20.6048 36.3123 20.2972 36.2298 20.1583 35.9893L11.9808 21.8253C11.8419 21.5848 11.9243 21.2771 12.1649 21.1382Z" fill="#FFF8DC"/>
<path fill-rule="evenodd" clip-rule="evenodd" d="M6.48972 23.4418C6.75805 23.3699 7.03386 23.5292 7.10576 23.7975L11.3352 39.5819C11.4071 39.8502 11.2478 40.126 10.9795 40.1979C10.7112 40.2698 10.4354 40.1106 10.3635 39.8422L6.13405 24.0579C6.06215 23.7896 6.22139 23.5137 6.48972 23.4418Z" fill="#FFF8DC"/>
<path fill-rule="evenodd" clip-rule="evenodd" d="M23.3159 6.77539C23.3878 6.50706 23.6636 6.34782 23.932 6.41972L39.8003 10.6716C40.0686 10.7435 40.2279 11.0193 40.156 11.2877C40.0841 11.556 39.8083 11.7152 39.5399 11.6433L23.6716 7.39143C23.4033 7.31953 23.244 7.04372 23.3159 6.77539Z" fill="#FFF8DC"/>
<path fill-rule="evenodd" clip-rule="evenodd" d="M17.0839 17.401C17.2804 17.2046 17.5989 17.2046 17.7953 17.401L29.3817 28.9874C29.5781 29.1838 29.5781 29.5023 29.3817 29.6988C29.1853 29.8952 28.8668 29.8952 28.6704 29.6988L17.0839 18.1123C16.8875 17.9159 16.8875 17.5974 17.0839 17.401Z" fill="#FFF8DC"/>
<path fill-rule="evenodd" clip-rule="evenodd" d="M7.9943e-09 404.497C-4.14855e-09 404.775 0.225198 405 0.502994 405L83.497 405C83.7748 405 84 404.775 84 404.497C84 404.219 83.7748 403.994 83.497 403.994L0.502994 403.994C0.225198 403.994 2.01371e-08 404.219 7.9943e-09 404.497Z" fill="#FFF8DC"/>
<path fill-rule="evenodd" clip-rule="evenodd" d="M0.502994 405C0.78079 405 1.00599 404.775 1.00599 404.497V321.503C1.00599 321.225 0.78079 321 0.502994 321C0.225198 321 0 321.225 0 321.503L7.9943e-09 404.497C-4.14855e-09 404.775 0.225198 405 0.502994 405Z" fill="#FFF8DC"/>
<path fill-rule="evenodd" clip-rule="evenodd" d="M24.1803 404.497C24.1803 404.775 24.4055 405 24.6833 405H41.0555C41.3332 405 41.5584 404.775 41.5584 404.497C41.5584 381.823 23.1773 363.442 0.502994 363.442C0.225198 363.442 0 363.667 0 363.945V380.317C0 380.594 0.225198 380.82 0.502994 380.82C13.5796 380.82 24.1803 391.42 24.1803 404.497ZM25.1813 403.994C24.9168 390.761 14.2388 380.083 1.00599 379.819V364.451C22.7255 364.718 40.282 382.275 40.5494 403.994H25.1813Z" fill="#FFF8DC"/>
<path fill-rule="evenodd" clip-rule="evenodd" d="M20.9733 392.48C21.1122 392.72 21.4198 392.803 21.6604 392.664L35.7656 384.52C36.0062 384.381 36.0886 384.074 35.9497 383.833C35.8108 383.593 35.5032 383.51 35.2626 383.649L21.1574 391.793C20.9168 391.932 20.8344 392.239 20.9733 392.48Z" fill="#FFF8DC"/>
<path fill-rule="evenodd" clip-rule="evenodd" d="M12.1649 383.862C12.4055 384.001 12.7131 383.918 12.852 383.678L21.0295 369.514C21.1684 369.273 21.086 368.966 20.8454 368.827C20.6048 368.688 20.2972 368.77 20.1583 369.011L11.9808 383.175C11.8419 383.415 11.9243 383.723 12.1649 383.862Z" fill="#FFF8DC"/>
<path fill-rule="evenodd" clip-rule="evenodd" d="M6.48972 381.558C6.75805 381.63 7.03386 381.471 7.10576 381.202L11.3352 365.418C11.4071 365.15 11.2478 364.874 10.9795 364.802C10.7112 364.73 10.4354 364.889 10.3635 365.158L6.13405 380.942C6.06215 381.21 6.22139 381.486 6.48972 381.558Z" fill="#FFF8DC"/>
<path fill-rule="evenodd" clip-rule="evenodd" d="M23.3159 398.225C23.3878 398.493 23.6636 398.652 23.932 398.58L39.8003 394.328C40.0686 394.256 40.2279 393.981 40.156 393.712C40.0841 393.444 39.8083 393.285 39.5399 393.357L23.6716 397.609C23.4033 397.68 23.244 397.956 23.3159 398.225Z" fill="#FFF8DC"/>
<path fill-rule="evenodd" clip-rule="evenodd" d="M17.0839 387.599C17.2804 387.795 17.5989 387.795 17.7953 387.599L29.3817 376.013C29.5781 375.816 29.5781 375.498 29.3817 375.301C29.1853 375.105 28.8668 375.105 28.6704 375.301L17.0839 386.888C16.8875 387.084 16.8875 387.403 17.0839 387.599Z" fill="#FFF8DC"/>
<path fill-rule="evenodd" clip-rule="evenodd" d="M370 0.502998C370 0.225202 369.775 3.63993e-06 369.497 3.62778e-06L286.503 0C286.225 -1.21426e-08 286 0.225198 286 0.502994C286 0.78079 286.225 1.00599 286.503 1.00599L369.497 1.00599C369.775 1.00599 370 0.780794 370 0.502998Z" fill="#FFF8DC"/>
<path fill-rule="evenodd" clip-rule="evenodd" d="M369.497 3.62778e-06C369.219 3.62778e-06 368.994 0.225202 368.994 0.502998V83.497C368.994 83.7748 369.219 84 369.497 84C369.775 84 370 83.7748 370 83.497L370 0.502998C370 0.225202 369.775 3.63993e-06 369.497 3.62778e-06Z" fill="#FFF8DC"/>
<path fill-rule="evenodd" clip-rule="evenodd" d="M345.82 0.502998C345.82 0.225202 345.594 3.60391e-06 345.317 3.60391e-06H328.945C328.667 3.60391e-06 328.442 0.225202 328.442 0.502998C328.442 23.1773 346.823 41.5585 369.497 41.5585C369.775 41.5585 370 41.3333 370 41.0555V24.6833C370 24.4056 369.775 24.1804 369.497 24.1804C356.42 24.1804 345.82 13.5796 345.82 0.502998ZM344.819 1.00599C345.083 14.2388 355.761 24.9168 368.994 25.1813V40.5494C347.275 40.2821 329.718 22.7255 329.451 1.00599H344.819Z" fill="#FFF8DC"/>
<path fill-rule="evenodd" clip-rule="evenodd" d="M349.027 12.5202C348.888 12.2796 348.58 12.1972 348.34 12.3361L334.234 20.4798C333.994 20.6187 333.911 20.9263 334.05 21.1669C334.189 21.4074 334.497 21.4899 334.737 21.351L348.843 13.2073C349.083 13.0684 349.166 12.7608 349.027 12.5202Z" fill="#FFF8DC"/>
<path fill-rule="evenodd" clip-rule="evenodd" d="M357.835 21.1382C357.595 20.9993 357.287 21.0818 357.148 21.3223L348.97 35.4863C348.832 35.7268 348.914 36.0345 349.155 36.1734C349.395 36.3123 349.703 36.2298 349.842 35.9893L358.019 21.8253C358.158 21.5848 358.076 21.2771 357.835 21.1382Z" fill="#FFF8DC"/>
<path fill-rule="evenodd" clip-rule="evenodd" d="M363.51 23.4418C363.242 23.3699 362.966 23.5292 362.894 23.7975L358.665 39.5819C358.593 39.8502 358.752 40.126 359.021 40.1979C359.289 40.2698 359.565 40.1106 359.637 39.8422L363.866 24.0579C363.938 23.7896 363.779 23.5137 363.51 23.4418Z" fill="#FFF8DC"/>
<path fill-rule="evenodd" clip-rule="evenodd" d="M346.684 6.77539C346.612 6.50706 346.336 6.34782 346.068 6.41972L330.2 10.6716C329.931 10.7435 329.772 11.0193 329.844 11.2877C329.916 11.556 330.192 11.7152 330.46 11.6433L346.328 7.39143C346.597 7.31953 346.756 7.04372 346.684 6.77539Z" fill="#FFF8DC"/>
<path fill-rule="evenodd" clip-rule="evenodd" d="M352.916 17.401C352.72 17.2046 352.401 17.2046 352.205 17.401L340.618 28.9874C340.422 29.1838 340.422 29.5023 340.618 29.6988C340.815 29.8952 341.133 29.8952 341.33 29.6988L352.916 18.1123C353.112 17.9159 353.112 17.5974 352.916 17.401Z" fill="#FFF8DC"/>
<path fill-rule="evenodd" clip-rule="evenodd" d="M370 404.497C370 404.775 369.775 405 369.497 405L286.503 405C286.225 405 286 404.775 286 404.497C286 404.219 286.225 403.994 286.503 403.994L369.497 403.994C369.775 403.994 370 404.219 370 404.497Z" fill="#FFF8DC"/>
<path fill-rule="evenodd" clip-rule="evenodd" d="M369.497 405C369.219 405 368.994 404.775 368.994 404.497V321.503C368.994 321.225 369.219 321 369.497 321C369.775 321 370 321.225 370 321.503L370 404.497C370 404.775 369.775 405 369.497 405Z" fill="#FFF8DC"/>
<path fill-rule="evenodd" clip-rule="evenodd" d="M345.82 404.497C345.82 404.775 345.594 405 345.317 405H328.945C328.667 405 328.442 404.775 328.442 404.497C328.442 381.823 346.823 363.442 369.497 363.442C369.775 363.442 370 363.667 370 363.945V380.317C370 380.594 369.775 380.82 369.497 380.82C356.42 380.82 345.82 391.42 345.82 404.497ZM344.819 403.994C345.083 390.761 355.761 380.083 368.994 379.819V364.451C347.275 364.718 329.718 382.275 329.451 403.994H344.819Z" fill="#FFF8DC"/>
<path fill-rule="evenodd" clip-rule="evenodd" d="M349.027 392.48C348.888 392.72 348.58 392.803 348.34 392.664L334.234 384.52C333.994 384.381 333.911 384.074 334.05 383.833C334.189 383.593 334.497 383.51 334.737 383.649L348.843 391.793C349.083 391.932 349.166 392.239 349.027 392.48Z" fill="#FFF8DC"/>
<path fill-rule="evenodd" clip-rule="evenodd" d="M357.835 383.862C357.595 384.001 357.287 383.918 357.148 383.678L348.97 369.514C348.832 369.273 348.914 368.966 349.155 368.827C349.395 368.688 349.703 368.77 349.842 369.011L358.019 383.175C358.158 383.415 358.076 383.723 357.835 383.862Z" fill="#FFF8DC"/>
<path fill-rule="evenodd" clip-rule="evenodd" d="M363.51 381.558C363.242 381.63 362.966 381.471 362.894 381.202L358.665 365.418C358.593 365.15 358.752 364.874 359.021 364.802C359.289 364.73 359.565 364.889 359.637 365.158L363.866 380.942C363.938 381.21 363.779 381.486 363.51 381.558Z" fill="#FFF8DC"/>
<path fill-rule="evenodd" clip-rule="evenodd" d="M346.684 398.225C346.612 398.493 346.336 398.652 346.068 398.58L330.2 394.328C329.931 394.256 329.772 393.981 329.844 393.712C329.916 393.444 330.192 393.285 330.46 393.357L346.328 397.609C346.597 397.68 346.756 397.956 346.684 398.225Z" fill="#FFF8DC"/>
<path fill-rule="evenodd" clip-rule="evenodd" d="M352.916 387.599C352.72 387.795 352.401 387.795 352.205 387.599L340.618 376.013C340.422 375.816 340.422 375.498 340.618 375.301C340.815 375.105 341.133 375.105 341.33 375.301L352.916 386.888C353.112 387.084 353.112 387.403 352.916 387.599Z" fill="#FFF8DC"/>
</g>
<rect x="0.5" y="0.5" width="369" height="404" rx="29.5" stroke="#FFF8DC"/>
<defs>
<clipPath id="clip0_2002_1946">
<rect width="370" height="405" rx="30" fill="white"/>
</clipPath>
</defs>
</svg>
