<svg width="370" height="405" viewBox="0 0 370 405" fill="none" xmlns="http://www.w3.org/2000/svg">
<g clip-path="url(#clip0_5_426)">
<rect width="370" height="405" rx="30" fill="#39375E"/>
<path fill-rule="evenodd" clip-rule="evenodd" d="M0.125575 -0.0565099C0.205932 -0.136575 0.314745 -0.180921 0.427756 -0.179661L45.3406 0.320803C45.5743 0.323407 45.7616 0.516335 45.759 0.75172C45.7564 0.987106 45.5649 1.17581 45.3313 1.17321L7.77666 0.754738L54.63 6.7301C54.8618 6.75966 55.026 6.97295 54.9966 7.20648C54.9673 7.44002 54.7556 7.60537 54.5237 7.57581L6.47187 1.44759L34.814 9.14364C35.0396 9.2049 35.1732 9.43882 35.1124 9.66611C35.0516 9.8934 34.8194 10.028 34.5938 9.96673L5.29028 2.00962L48.194 21.6789C48.4067 21.7764 48.5007 22.0291 48.4039 22.2433C48.3071 22.4576 48.0562 22.5523 47.8436 22.4548L4.76054 2.70334L29.8743 19.9127C30.0675 20.0451 30.1176 20.3102 29.9861 20.5048C29.8547 20.6995 29.5916 20.75 29.3984 20.6176L3.72218 3.02276L43.8493 44.189C44.013 44.3569 44.0105 44.6268 43.8438 44.7917C43.6771 44.9567 43.4092 44.9542 43.2455 44.7863L2.66529 3.15515L16.7827 26.6505C16.9037 26.8519 16.8398 27.114 16.6399 27.2359C16.44 27.3578 16.1799 27.2934 16.0589 27.092L2.86918 5.14061L13.8314 32.1148C13.9199 32.3326 13.8164 32.5815 13.6002 32.6707C13.3839 32.7599 13.1369 32.6556 13.0483 32.4378L2.85739 7.36145L12.9527 43.3708C13.0162 43.5974 12.8854 43.8329 12.6606 43.8969C12.4357 43.9609 12.2019 43.8291 12.1384 43.6025L1.76319 6.59477L8.19478 51.3329C8.22827 51.5659 8.06796 51.7821 7.83671 51.8159C7.60547 51.8496 7.39085 51.6881 7.35736 51.4551L0.846153 6.1631V46.6897C0.846153 46.9251 0.656735 47.1159 0.423077 47.1159C0.189418 47.1159 0 46.9251 0 46.6897V0.246542C0 0.132682 0.0452188 0.0235548 0.125575 -0.0565099Z" fill="#FFF8DC"/>
<path fill-rule="evenodd" clip-rule="evenodd" d="M0.125575 405.057C0.205932 405.137 0.314745 405.181 0.427756 405.18L45.3406 404.679C45.5743 404.677 45.7616 404.484 45.759 404.248C45.7564 404.013 45.5649 403.824 45.3313 403.827L7.77666 404.245L54.63 398.27C54.8618 398.24 55.026 398.027 54.9966 397.794C54.9673 397.56 54.7556 397.395 54.5237 397.424L6.47187 403.552L34.814 395.856C35.0396 395.795 35.1732 395.561 35.1124 395.334C35.0516 395.107 34.8194 394.972 34.5938 395.033L5.29028 402.99L48.194 383.321C48.4067 383.224 48.5007 382.971 48.4039 382.757C48.3071 382.542 48.0562 382.448 47.8436 382.545L4.76054 402.297L29.8743 385.087C30.0675 384.955 30.1176 384.69 29.9861 384.495C29.8547 384.301 29.5916 384.25 29.3984 384.382L3.72218 401.977L43.8493 360.811C44.013 360.643 44.0105 360.373 43.8438 360.208C43.6771 360.043 43.4092 360.046 43.2455 360.214L2.66529 401.845L16.7827 378.349C16.9037 378.148 16.8398 377.886 16.6399 377.764C16.44 377.642 16.1799 377.707 16.0589 377.908L2.86918 399.859L13.8314 372.885C13.9199 372.667 13.8164 372.418 13.6002 372.329C13.3839 372.24 13.1369 372.344 13.0483 372.562L2.85739 397.639L12.9527 361.629C13.0162 361.403 12.8854 361.167 12.6606 361.103C12.4357 361.039 12.2019 361.171 12.1384 361.397L1.76319 398.405L8.19478 353.667C8.22827 353.434 8.06796 353.218 7.83671 353.184C7.60547 353.15 7.39085 353.312 7.35736 353.545L0.846153 398.837V358.31C0.846153 358.075 0.656735 357.884 0.423077 357.884C0.189418 357.884 0 358.075 0 358.31V404.753C0 404.867 0.0452188 404.976 0.125575 405.057Z" fill="#FFF8DC"/>
<path fill-rule="evenodd" clip-rule="evenodd" d="M369.874 -0.0565099C369.794 -0.136575 369.685 -0.180921 369.572 -0.179661L324.659 0.320803C324.426 0.323407 324.238 0.516335 324.241 0.75172C324.244 0.987106 324.435 1.17581 324.669 1.17321L362.223 0.754738L315.37 6.7301C315.138 6.75966 314.974 6.97295 315.003 7.20648C315.033 7.44002 315.244 7.60537 315.476 7.57581L363.528 1.44759L335.186 9.14364C334.96 9.2049 334.827 9.43882 334.888 9.66611C334.948 9.8934 335.181 10.028 335.406 9.96673L364.71 2.00962L321.806 21.6789C321.593 21.7764 321.499 22.0291 321.596 22.2433C321.693 22.4576 321.944 22.5523 322.156 22.4548L365.239 2.70334L340.126 19.9127C339.933 20.0451 339.882 20.3102 340.014 20.5048C340.145 20.6995 340.408 20.75 340.602 20.6176L366.278 3.02276L326.151 44.189C325.987 44.3569 325.989 44.6268 326.156 44.7917C326.323 44.9567 326.591 44.9542 326.754 44.7863L367.335 3.15515L353.217 26.6505C353.096 26.8519 353.16 27.114 353.36 27.2359C353.56 27.3578 353.82 27.2934 353.941 27.092L367.131 5.14061L356.169 32.1148C356.08 32.3326 356.184 32.5815 356.4 32.6707C356.616 32.7599 356.863 32.6556 356.952 32.4378L367.143 7.36145L357.047 43.3708C356.984 43.5974 357.115 43.8329 357.339 43.8969C357.564 43.9609 357.798 43.8291 357.862 43.6025L368.237 6.59477L361.805 51.3329C361.772 51.5659 361.932 51.7821 362.163 51.8159C362.395 51.8496 362.609 51.6881 362.643 51.4551L369.154 6.1631V46.6897C369.154 46.9251 369.343 47.1159 369.577 47.1159C369.811 47.1159 370 46.9251 370 46.6897V0.246542C370 0.132682 369.955 0.0235548 369.874 -0.0565099Z" fill="#FFF8DC"/>
<path fill-rule="evenodd" clip-rule="evenodd" d="M369.874 405.057C369.794 405.137 369.685 405.181 369.572 405.18L324.659 404.679C324.426 404.677 324.238 404.484 324.241 404.248C324.244 404.013 324.435 403.824 324.669 403.827L362.223 404.245L315.37 398.27C315.138 398.24 314.974 398.027 315.003 397.794C315.033 397.56 315.244 397.395 315.476 397.424L363.528 403.552L335.186 395.856C334.96 395.795 334.827 395.561 334.888 395.334C334.948 395.107 335.181 394.972 335.406 395.033L364.71 402.99L321.806 383.321C321.593 383.224 321.499 382.971 321.596 382.757C321.693 382.542 321.944 382.448 322.156 382.545L365.239 402.297L340.126 385.087C339.933 384.955 339.882 384.69 340.014 384.495C340.145 384.301 340.408 384.25 340.602 384.382L366.278 401.977L326.151 360.811C325.987 360.643 325.989 360.373 326.156 360.208C326.323 360.043 326.591 360.046 326.754 360.214L367.335 401.845L353.217 378.349C353.096 378.148 353.16 377.886 353.36 377.764C353.56 377.642 353.82 377.707 353.941 377.908L367.131 399.859L356.169 372.885C356.08 372.667 356.184 372.418 356.4 372.329C356.616 372.24 356.863 372.344 356.952 372.562L367.143 397.639L357.047 361.629C356.984 361.403 357.115 361.167 357.339 361.103C357.564 361.039 357.798 361.171 357.862 361.397L368.237 398.405L361.805 353.667C361.772 353.434 361.932 353.218 362.163 353.184C362.395 353.15 362.609 353.312 362.643 353.545L369.154 398.837V358.31C369.154 358.075 369.343 357.884 369.577 357.884C369.811 357.884 370 358.075 370 358.31V404.753C370 404.867 369.955 404.976 369.874 405.057Z" fill="#FFF8DC"/>
</g>
<rect x="0.5" y="0.5" width="369" height="404" rx="29.5" stroke="#FFF8DC"/>
<defs>
<clipPath id="clip0_5_426">
<rect width="370" height="405" rx="30" fill="white"/>
</clipPath>
</defs>
</svg>
