<svg width="370" height="405" viewBox="0 0 370 405" fill="none" xmlns="http://www.w3.org/2000/svg">
<rect x="0.5" y="0.5" width="369" height="404" fill="#39375E"/>
<rect x="0.5" y="0.5" width="369" height="404" stroke="#FFF8DC"/>
<path fill-rule="evenodd" clip-rule="evenodd" d="M9.33513 26.2981C9.02083 26.6116 8.51126 26.6116 8.19696 26.2981L5.39014 23.4984C5.07585 23.1849 5.07585 22.6766 5.39014 22.3631L8.19696 19.5634C8.51126 19.2499 9.02083 19.2499 9.33513 19.5634L12.1419 22.3631C12.4562 22.6766 12.4562 23.1849 12.1419 23.4984L9.33513 26.2981ZM8.76604 25.7305L11.5729 22.9308L8.76604 20.131L5.95923 22.9308L8.76604 25.7305Z" fill="#FFF8DC"/>
<path fill-rule="evenodd" clip-rule="evenodd" d="M7.18071 26.2981C6.86641 26.6116 6.35684 26.6116 6.04254 26.2981L3.23572 23.4984C2.92143 23.1849 2.92143 22.6766 3.23572 22.3631L6.04254 19.5634C6.35684 19.2499 6.86641 19.2499 7.18071 19.5634L9.98753 22.3631C10.3018 22.6766 10.3018 23.1849 9.98753 23.4984L7.18071 26.2981ZM6.61163 25.7305L9.41844 22.9308L6.61163 20.131L3.80481 22.9308L6.61163 25.7305Z" fill="#FFF8DC"/>
<path fill-rule="evenodd" clip-rule="evenodd" d="M40.2804 26.2981C39.9661 26.6116 39.4566 26.6116 39.1423 26.2981L36.3354 23.4984C36.0211 23.1849 36.0211 22.6766 36.3354 22.3631L39.1423 19.5634C39.4566 19.2499 39.9661 19.2499 40.2804 19.5634L43.0872 22.3631C43.4015 22.6766 43.4015 23.1849 43.0872 23.4984L40.2804 26.2981ZM39.7113 25.7305L42.5182 22.9308L39.7113 20.131L36.9045 22.9308L39.7113 25.7305Z" fill="#FFF8DC"/>
<path fill-rule="evenodd" clip-rule="evenodd" d="M37.3426 26.2981C37.0283 26.6116 36.5187 26.6116 36.2044 26.2981L33.3976 23.4984C33.0833 23.1849 33.0833 22.6766 33.3976 22.3631L36.2044 19.5634C36.5187 19.2499 37.0283 19.2499 37.3426 19.5634L40.1494 22.3631C40.4637 22.6766 40.4637 23.1849 40.1494 23.4984L37.3426 26.2981ZM36.7735 25.7305L39.5803 22.9308L36.7735 20.131L33.9667 22.9308L36.7735 25.7305Z" fill="#FFF8DC"/>
<path fill-rule="evenodd" clip-rule="evenodd" d="M23.1615 10.2938L10.3939 23.0291L23.1615 35.7644L35.9291 23.0291L23.1615 10.2938ZM9.25569 23.0291L23.1615 36.8997L37.0673 23.0291L23.1615 9.15852L9.25569 23.0291Z" fill="#FFF8DC"/>
<path fill-rule="evenodd" clip-rule="evenodd" d="M23.1615 16.1546L16.2695 23.0291L23.1615 29.9036L30.0534 23.0291L23.1615 16.1546ZM15.1314 23.0291L23.1615 31.0389L31.1916 23.0291L23.1615 15.0193L15.1314 23.0291Z" fill="#FFF8DC"/>
<path fill-rule="evenodd" clip-rule="evenodd" d="M23.1615 19.6057L19.7294 23.0291L23.1615 26.4525L26.5935 23.0291L23.1615 19.6057ZM18.5913 23.0291L23.1615 27.5877L27.7317 23.0291L23.1615 18.4705L18.5913 23.0291Z" fill="#FFF8DC"/>
<path fill-rule="evenodd" clip-rule="evenodd" d="M19.7856 9.1394C19.4713 8.8259 19.4713 8.31762 19.7856 8.00411L22.5924 5.2044C22.9067 4.8909 23.4163 4.8909 23.7306 5.2044L26.5374 8.00411C26.8517 8.31762 26.8517 8.8259 26.5374 9.1394L23.7306 11.9391C23.4163 12.2526 22.9067 12.2526 22.5924 11.9391L19.7856 9.1394ZM20.3547 8.57176L23.1615 11.3715L25.9683 8.57176L23.1615 5.77205L20.3547 8.57176Z" fill="#FFF8DC"/>
<path fill-rule="evenodd" clip-rule="evenodd" d="M19.7856 6.99044C19.4713 6.67694 19.4713 6.16865 19.7856 5.85515L22.5924 3.05544C22.9067 2.74194 23.4163 2.74194 23.7306 3.05544L26.5374 5.85515C26.8517 6.16865 26.8517 6.67694 26.5374 6.99044L23.7306 9.79015C23.4163 10.1037 22.9067 10.1037 22.5924 9.79015L19.7856 6.99044ZM20.3547 6.42279L23.1615 9.22251L25.9683 6.42279L23.1615 3.62308L20.3547 6.42279Z" fill="#FFF8DC"/>
<path fill-rule="evenodd" clip-rule="evenodd" d="M19.7856 37.8574C19.4713 37.5439 19.4713 37.0356 19.7856 36.7221L22.5924 33.9224C22.9067 33.6089 23.4163 33.6089 23.7306 33.9224L26.5374 36.7221C26.8517 37.0356 26.8517 37.5439 26.5374 37.8574L23.7306 40.6571C23.4163 40.9706 22.9067 40.9706 22.5924 40.6571L19.7856 37.8574ZM20.3547 37.2897L23.1615 40.0895L25.9683 37.2897L23.1615 34.49L20.3547 37.2897Z" fill="#FFF8DC"/>
<path fill-rule="evenodd" clip-rule="evenodd" d="M19.7856 40.2017C19.4713 39.8882 19.4713 39.3799 19.7856 39.0664L22.5924 36.2667C22.9067 35.9532 23.4163 35.9532 23.7306 36.2667L26.5374 39.0664C26.8517 39.3799 26.8517 39.8882 26.5374 40.2017L23.7306 43.0014C23.4163 43.3149 22.9067 43.3149 22.5924 43.0014L19.7856 40.2017ZM20.3547 39.6341L23.1615 42.4338L25.9683 39.6341L23.1615 36.8343L20.3547 39.6341Z" fill="#FFF8DC"/>
<path fill-rule="evenodd" clip-rule="evenodd" d="M23.1615 112.011L20.317 114.848L23.1615 117.685L26.0059 114.848L23.1615 112.011ZM19.1788 114.848L23.1615 118.82L27.1441 114.848L23.1615 110.875L19.1788 114.848Z" fill="#FFF8DC"/>
<path fill-rule="evenodd" clip-rule="evenodd" d="M112.173 22.8571L115.017 20.0198L117.862 22.8571L115.017 25.6944L112.173 22.8571ZM115.017 18.8846L119 22.8571L115.017 26.8297L111.035 22.8571L115.017 18.8846Z" fill="#FFF8DC"/>
<path fill-rule="evenodd" clip-rule="evenodd" d="M23.1939 41.903C23.4161 41.903 23.5963 42.0828 23.5963 42.3044V111.071C23.5963 111.293 23.4161 111.473 23.1939 111.473C22.9716 111.473 22.7915 111.293 22.7915 111.071V42.3044C22.7915 42.0828 22.9716 41.903 23.1939 41.903Z" fill="#FFF8DC"/>
<path fill-rule="evenodd" clip-rule="evenodd" d="M41.8875 22.8894C41.8875 23.1111 42.0676 23.2908 42.2899 23.2908L111.231 23.2908C111.454 23.2908 111.634 23.1111 111.634 22.8894C111.634 22.6678 111.454 22.4881 111.231 22.4881L42.2899 22.4881C42.0676 22.4881 41.8875 22.6678 41.8875 22.8894Z" fill="#FFF8DC"/>
<path fill-rule="evenodd" clip-rule="evenodd" d="M10.235 78.7525L12.1236 80.6363L10.235 82.5202L8.34632 80.6363L10.235 78.7525ZM13.2618 80.6363L10.235 83.6555L7.20815 80.6363L10.235 77.6172L13.2618 80.6363Z" fill="#FFF8DC"/>
<path fill-rule="evenodd" clip-rule="evenodd" d="M78.8305 9.9633L80.7191 11.8472L82.6077 9.9633L80.7191 8.07945L78.8305 9.9633ZM80.7191 12.9824L83.7459 9.9633L80.7191 6.94416L77.6923 9.9633L80.7191 12.9824Z" fill="#FFF8DC"/>
<path fill-rule="evenodd" clip-rule="evenodd" d="M10.1694 34.0886C10.3917 34.0886 10.5718 34.2683 10.5718 34.49L10.5718 77.86C10.5718 78.0817 10.3917 78.2614 10.1694 78.2614C9.9472 78.2614 9.76703 78.0817 9.76703 77.86L9.76703 34.49C9.76703 34.2683 9.94719 34.0886 10.1694 34.0886Z" fill="#FFF8DC"/>
<path fill-rule="evenodd" clip-rule="evenodd" d="M34.0532 9.89798C34.0532 10.1197 34.2334 10.2994 34.4556 10.2994L77.9357 10.2994C78.158 10.2994 78.3381 10.1197 78.3381 9.89798C78.3381 9.6763 78.158 9.4966 77.9357 9.4966L34.4556 9.49659C34.2334 9.49659 34.0532 9.6763 34.0532 9.89798Z" fill="#FFF8DC"/>
<path fill-rule="evenodd" clip-rule="evenodd" d="M9.33513 378.702C9.02083 378.388 8.51126 378.388 8.19696 378.702L5.39014 381.502C5.07585 381.815 5.07585 382.323 5.39014 382.637L8.19696 385.437C8.51126 385.75 9.02083 385.75 9.33513 385.437L12.1419 382.637C12.4562 382.323 12.4562 381.815 12.1419 381.502L9.33513 378.702ZM8.76604 379.27L11.5729 382.069L8.76604 384.869L5.95923 382.069L8.76604 379.27Z" fill="#FFF8DC"/>
<path fill-rule="evenodd" clip-rule="evenodd" d="M7.18071 378.702C6.86641 378.388 6.35684 378.388 6.04254 378.702L3.23572 381.502C2.92143 381.815 2.92143 382.323 3.23572 382.637L6.04254 385.437C6.35684 385.75 6.86641 385.75 7.18071 385.437L9.98753 382.637C10.3018 382.323 10.3018 381.815 9.98753 381.502L7.18071 378.702ZM6.61163 379.27L9.41844 382.069L6.61163 384.869L3.80481 382.069L6.61163 379.27Z" fill="#FFF8DC"/>
<path fill-rule="evenodd" clip-rule="evenodd" d="M40.2804 378.702C39.9661 378.388 39.4566 378.388 39.1423 378.702L36.3354 381.502C36.0211 381.815 36.0211 382.323 36.3354 382.637L39.1423 385.437C39.4566 385.75 39.9661 385.75 40.2804 385.437L43.0872 382.637C43.4015 382.323 43.4015 381.815 43.0872 381.502L40.2804 378.702ZM39.7113 379.27L42.5182 382.069L39.7113 384.869L36.9045 382.069L39.7113 379.27Z" fill="#FFF8DC"/>
<path fill-rule="evenodd" clip-rule="evenodd" d="M37.3426 378.702C37.0283 378.388 36.5187 378.388 36.2044 378.702L33.3976 381.502C33.0833 381.815 33.0833 382.323 33.3976 382.637L36.2044 385.437C36.5187 385.75 37.0283 385.75 37.3426 385.437L40.1494 382.637C40.4637 382.323 40.4637 381.815 40.1494 381.502L37.3426 378.702ZM36.7735 379.27L39.5803 382.069L36.7735 384.869L33.9667 382.069L36.7735 379.27Z" fill="#FFF8DC"/>
<path fill-rule="evenodd" clip-rule="evenodd" d="M23.1615 394.706L10.3939 381.971L23.1615 369.236L35.9291 381.971L23.1615 394.706ZM9.25569 381.971L23.1615 368.1L37.0673 381.971L23.1615 395.841L9.25569 381.971Z" fill="#FFF8DC"/>
<path fill-rule="evenodd" clip-rule="evenodd" d="M23.1615 388.845L16.2695 381.971L23.1615 375.096L30.0534 381.971L23.1615 388.845ZM15.1314 381.971L23.1615 373.961L31.1916 381.971L23.1615 389.981L15.1314 381.971Z" fill="#FFF8DC"/>
<path fill-rule="evenodd" clip-rule="evenodd" d="M23.1615 385.394L19.7294 381.971L23.1615 378.548L26.5935 381.971L23.1615 385.394ZM18.5913 381.971L23.1615 377.412L27.7317 381.971L23.1615 386.53L18.5913 381.971Z" fill="#FFF8DC"/>
<path fill-rule="evenodd" clip-rule="evenodd" d="M19.7856 395.861C19.4713 396.174 19.4713 396.682 19.7856 396.996L22.5924 399.796C22.9067 400.109 23.4163 400.109 23.7306 399.796L26.5374 396.996C26.8517 396.682 26.8517 396.174 26.5374 395.861L23.7306 393.061C23.4163 392.747 22.9067 392.747 22.5924 393.061L19.7856 395.861ZM20.3547 396.428L23.1615 393.629L25.9683 396.428L23.1615 399.228L20.3547 396.428Z" fill="#FFF8DC"/>
<path fill-rule="evenodd" clip-rule="evenodd" d="M19.7856 398.01C19.4713 398.323 19.4713 398.831 19.7856 399.145L22.5924 401.945C22.9067 402.258 23.4163 402.258 23.7306 401.945L26.5374 399.145C26.8517 398.831 26.8517 398.323 26.5374 398.01L23.7306 395.21C23.4163 394.896 22.9067 394.896 22.5924 395.21L19.7856 398.01ZM20.3547 398.577L23.1615 395.777L25.9683 398.577L23.1615 401.377L20.3547 398.577Z" fill="#FFF8DC"/>
<path fill-rule="evenodd" clip-rule="evenodd" d="M19.7856 367.143C19.4713 367.456 19.4713 367.964 19.7856 368.278L22.5924 371.078C22.9067 371.391 23.4163 371.391 23.7306 371.078L26.5374 368.278C26.8517 367.964 26.8517 367.456 26.5374 367.143L23.7306 364.343C23.4163 364.029 22.9067 364.029 22.5924 364.343L19.7856 367.143ZM20.3547 367.71L23.1615 364.911L25.9683 367.71L23.1615 370.51L20.3547 367.71Z" fill="#FFF8DC"/>
<path fill-rule="evenodd" clip-rule="evenodd" d="M19.7856 364.798C19.4713 365.112 19.4713 365.62 19.7856 365.934L22.5924 368.733C22.9067 369.047 23.4163 369.047 23.7306 368.733L26.5374 365.934C26.8517 365.62 26.8517 365.112 26.5374 364.798L23.7306 361.999C23.4163 361.685 22.9067 361.685 22.5924 361.999L19.7856 364.798ZM20.3547 365.366L23.1615 362.566L25.9683 365.366L23.1615 368.166L20.3547 365.366Z" fill="#FFF8DC"/>
<path fill-rule="evenodd" clip-rule="evenodd" d="M23.1615 292.989L20.317 290.152L23.1615 287.315L26.0059 290.152L23.1615 292.989ZM19.1788 290.152L23.1615 286.18L27.1441 290.152L23.1615 294.125L19.1788 290.152Z" fill="#FFF8DC"/>
<path fill-rule="evenodd" clip-rule="evenodd" d="M112.173 382.143L115.017 384.98L117.862 382.143L115.017 379.306L112.173 382.143ZM115.017 386.115L119 382.143L115.017 378.17L111.035 382.143L115.017 386.115Z" fill="#FFF8DC"/>
<path fill-rule="evenodd" clip-rule="evenodd" d="M23.1939 363.097C23.4161 363.097 23.5963 362.917 23.5963 362.696V293.929C23.5963 293.707 23.4161 293.527 23.1939 293.527C22.9716 293.527 22.7915 293.707 22.7915 293.929V362.696C22.7915 362.917 22.9716 363.097 23.1939 363.097Z" fill="#FFF8DC"/>
<path fill-rule="evenodd" clip-rule="evenodd" d="M41.8875 382.111C41.8875 381.889 42.0676 381.709 42.2899 381.709L111.231 381.709C111.454 381.709 111.634 381.889 111.634 382.111C111.634 382.332 111.454 382.512 111.231 382.512L42.2899 382.512C42.0676 382.512 41.8875 382.332 41.8875 382.111Z" fill="#FFF8DC"/>
<path fill-rule="evenodd" clip-rule="evenodd" d="M10.235 326.248L12.1236 324.364L10.235 322.48L8.34632 324.364L10.235 326.248ZM13.2618 324.364L10.235 321.345L7.20815 324.364L10.235 327.383L13.2618 324.364Z" fill="#FFF8DC"/>
<path fill-rule="evenodd" clip-rule="evenodd" d="M78.8305 395.037L80.7191 393.153L82.6077 395.037L80.7191 396.921L78.8305 395.037ZM80.7191 392.018L83.7459 395.037L80.7191 398.056L77.6923 395.037L80.7191 392.018Z" fill="#FFF8DC"/>
<path fill-rule="evenodd" clip-rule="evenodd" d="M10.1694 370.911C10.3917 370.911 10.5718 370.732 10.5718 370.51L10.5718 327.14C10.5718 326.918 10.3917 326.739 10.1694 326.739C9.9472 326.739 9.76703 326.918 9.76703 327.14L9.76703 370.51C9.76703 370.732 9.94719 370.911 10.1694 370.911Z" fill="#FFF8DC"/>
<path fill-rule="evenodd" clip-rule="evenodd" d="M34.0532 395.102C34.0532 394.88 34.2334 394.701 34.4556 394.701L77.9357 394.701C78.158 394.701 78.3381 394.88 78.3381 395.102C78.3381 395.324 78.158 395.503 77.9357 395.503L34.4556 395.503C34.2334 395.503 34.0532 395.324 34.0532 395.102Z" fill="#FFF8DC"/>
<path fill-rule="evenodd" clip-rule="evenodd" d="M360.665 26.2981C360.979 26.6116 361.489 26.6116 361.803 26.2981L364.61 23.4984C364.924 23.1849 364.924 22.6766 364.61 22.3631L361.803 19.5634C361.489 19.2499 360.979 19.2499 360.665 19.5634L357.858 22.3631C357.544 22.6766 357.544 23.1849 357.858 23.4984L360.665 26.2981ZM361.234 25.7305L358.427 22.9308L361.234 20.131L364.041 22.9308L361.234 25.7305Z" fill="#FFF8DC"/>
<path fill-rule="evenodd" clip-rule="evenodd" d="M362.819 26.2981C363.134 26.6116 363.643 26.6116 363.957 26.2981L366.764 23.4984C367.079 23.1849 367.079 22.6766 366.764 22.3631L363.957 19.5634C363.643 19.2499 363.134 19.2499 362.819 19.5634L360.012 22.3631C359.698 22.6766 359.698 23.1849 360.012 23.4984L362.819 26.2981ZM363.388 25.7305L360.582 22.9308L363.388 20.131L366.195 22.9308L363.388 25.7305Z" fill="#FFF8DC"/>
<path fill-rule="evenodd" clip-rule="evenodd" d="M329.72 26.2981C330.034 26.6116 330.543 26.6116 330.858 26.2981L333.665 23.4984C333.979 23.1849 333.979 22.6766 333.665 22.3631L330.858 19.5634C330.543 19.2499 330.034 19.2499 329.72 19.5634L326.913 22.3631C326.598 22.6766 326.598 23.1849 326.913 23.4984L329.72 26.2981ZM330.289 25.7305L327.482 22.9308L330.289 20.131L333.095 22.9308L330.289 25.7305Z" fill="#FFF8DC"/>
<path fill-rule="evenodd" clip-rule="evenodd" d="M332.657 26.2981C332.972 26.6116 333.481 26.6116 333.796 26.2981L336.602 23.4984C336.917 23.1849 336.917 22.6766 336.602 22.3631L333.796 19.5634C333.481 19.2499 332.972 19.2499 332.657 19.5634L329.851 22.3631C329.536 22.6766 329.536 23.1849 329.851 23.4984L332.657 26.2981ZM333.227 25.7305L330.42 22.9308L333.227 20.131L336.033 22.9308L333.227 25.7305Z" fill="#FFF8DC"/>
<path fill-rule="evenodd" clip-rule="evenodd" d="M346.839 10.2938L359.606 23.0291L346.839 35.7644L334.071 23.0291L346.839 10.2938ZM360.744 23.0291L346.839 36.8997L332.933 23.0291L346.839 9.15852L360.744 23.0291Z" fill="#FFF8DC"/>
<path fill-rule="evenodd" clip-rule="evenodd" d="M346.839 16.1546L353.73 23.0291L346.839 29.9036L339.947 23.0291L346.839 16.1546ZM354.869 23.0291L346.839 31.0389L338.808 23.0291L346.839 15.0193L354.869 23.0291Z" fill="#FFF8DC"/>
<path fill-rule="evenodd" clip-rule="evenodd" d="M346.839 19.6057L350.271 23.0291L346.839 26.4525L343.406 23.0291L346.839 19.6057ZM351.409 23.0291L346.839 27.5877L342.268 23.0291L346.839 18.4705L351.409 23.0291Z" fill="#FFF8DC"/>
<path fill-rule="evenodd" clip-rule="evenodd" d="M350.214 9.1394C350.529 8.8259 350.529 8.31762 350.214 8.00411L347.408 5.2044C347.093 4.8909 346.584 4.8909 346.269 5.2044L343.463 8.00411C343.148 8.31762 343.148 8.8259 343.463 9.1394L346.269 11.9391C346.584 12.2526 347.093 12.2526 347.408 11.9391L350.214 9.1394ZM349.645 8.57176L346.839 11.3715L344.032 8.57176L346.839 5.77205L349.645 8.57176Z" fill="#FFF8DC"/>
<path fill-rule="evenodd" clip-rule="evenodd" d="M350.214 6.99044C350.529 6.67694 350.529 6.16865 350.214 5.85515L347.408 3.05544C347.093 2.74194 346.584 2.74194 346.269 3.05544L343.463 5.85515C343.148 6.16865 343.148 6.67694 343.463 6.99044L346.269 9.79015C346.584 10.1037 347.093 10.1037 347.408 9.79015L350.214 6.99044ZM349.645 6.42279L346.839 9.22251L344.032 6.42279L346.839 3.62308L349.645 6.42279Z" fill="#FFF8DC"/>
<path fill-rule="evenodd" clip-rule="evenodd" d="M350.214 37.8574C350.529 37.5439 350.529 37.0356 350.214 36.7221L347.408 33.9224C347.093 33.6089 346.584 33.6089 346.269 33.9224L343.463 36.7221C343.148 37.0356 343.148 37.5439 343.463 37.8574L346.269 40.6571C346.584 40.9706 347.093 40.9706 347.408 40.6571L350.214 37.8574ZM349.645 37.2897L346.839 40.0895L344.032 37.2897L346.839 34.49L349.645 37.2897Z" fill="#FFF8DC"/>
<path fill-rule="evenodd" clip-rule="evenodd" d="M350.214 40.2017C350.529 39.8882 350.529 39.3799 350.214 39.0664L347.408 36.2667C347.093 35.9532 346.584 35.9532 346.269 36.2667L343.463 39.0664C343.148 39.3799 343.148 39.8882 343.463 40.2017L346.269 43.0014C346.584 43.3149 347.093 43.3149 347.408 43.0014L350.214 40.2017ZM349.645 39.6341L346.839 42.4338L344.032 39.6341L346.839 36.8343L349.645 39.6341Z" fill="#FFF8DC"/>
<path fill-rule="evenodd" clip-rule="evenodd" d="M346.839 112.011L349.683 114.848L346.839 117.685L343.994 114.848L346.839 112.011ZM350.821 114.848L346.839 118.82L342.856 114.848L346.839 110.875L350.821 114.848Z" fill="#FFF8DC"/>
<path fill-rule="evenodd" clip-rule="evenodd" d="M257.827 22.8571L254.983 20.0198L252.138 22.8571L254.983 25.6944L257.827 22.8571ZM254.983 18.8846L251 22.8571L254.983 26.8297L258.965 22.8571L254.983 18.8846Z" fill="#FFF8DC"/>
<path fill-rule="evenodd" clip-rule="evenodd" d="M346.806 41.903C346.584 41.903 346.404 42.0828 346.404 42.3044V111.071C346.404 111.293 346.584 111.473 346.806 111.473C347.028 111.473 347.209 111.293 347.209 111.071V42.3044C347.209 42.0828 347.028 41.903 346.806 41.903Z" fill="#FFF8DC"/>
<path fill-rule="evenodd" clip-rule="evenodd" d="M328.113 22.8894C328.113 23.1111 327.932 23.2908 327.71 23.2908L258.769 23.2908C258.546 23.2908 258.366 23.1111 258.366 22.8894C258.366 22.6678 258.546 22.4881 258.769 22.4881L327.71 22.4881C327.932 22.4881 328.113 22.6678 328.113 22.8894Z" fill="#FFF8DC"/>
<path fill-rule="evenodd" clip-rule="evenodd" d="M359.765 78.7525L357.876 80.6363L359.765 82.5202L361.654 80.6363L359.765 78.7525ZM356.738 80.6363L359.765 83.6555L362.792 80.6363L359.765 77.6172L356.738 80.6363Z" fill="#FFF8DC"/>
<path fill-rule="evenodd" clip-rule="evenodd" d="M291.17 9.9633L289.281 11.8472L287.392 9.9633L289.281 8.07945L291.17 9.9633ZM289.281 12.9824L286.254 9.9633L289.281 6.94416L292.308 9.9633L289.281 12.9824Z" fill="#FFF8DC"/>
<path fill-rule="evenodd" clip-rule="evenodd" d="M359.831 34.0886C359.608 34.0886 359.428 34.2683 359.428 34.49L359.428 77.86C359.428 78.0817 359.608 78.2614 359.831 78.2614C360.053 78.2614 360.233 78.0817 360.233 77.86L360.233 34.49C360.233 34.2683 360.053 34.0886 359.831 34.0886Z" fill="#FFF8DC"/>
<path fill-rule="evenodd" clip-rule="evenodd" d="M335.947 9.89798C335.947 10.1197 335.767 10.2994 335.544 10.2994L292.064 10.2994C291.842 10.2994 291.662 10.1197 291.662 9.89798C291.662 9.6763 291.842 9.4966 292.064 9.4966L335.544 9.49659C335.767 9.49659 335.947 9.6763 335.947 9.89798Z" fill="#FFF8DC"/>
<path fill-rule="evenodd" clip-rule="evenodd" d="M360.665 378.702C360.979 378.388 361.489 378.388 361.803 378.702L364.61 381.502C364.924 381.815 364.924 382.323 364.61 382.637L361.803 385.437C361.489 385.75 360.979 385.75 360.665 385.437L357.858 382.637C357.544 382.323 357.544 381.815 357.858 381.502L360.665 378.702ZM361.234 379.27L358.427 382.069L361.234 384.869L364.041 382.069L361.234 379.27Z" fill="#FFF8DC"/>
<path fill-rule="evenodd" clip-rule="evenodd" d="M362.819 378.702C363.134 378.388 363.643 378.388 363.957 378.702L366.764 381.502C367.079 381.815 367.079 382.323 366.764 382.637L363.957 385.437C363.643 385.75 363.134 385.75 362.819 385.437L360.012 382.637C359.698 382.323 359.698 381.815 360.012 381.502L362.819 378.702ZM363.388 379.27L360.582 382.069L363.388 384.869L366.195 382.069L363.388 379.27Z" fill="#FFF8DC"/>
<path fill-rule="evenodd" clip-rule="evenodd" d="M329.72 378.702C330.034 378.388 330.543 378.388 330.858 378.702L333.665 381.502C333.979 381.815 333.979 382.323 333.665 382.637L330.858 385.437C330.543 385.75 330.034 385.75 329.72 385.437L326.913 382.637C326.598 382.323 326.598 381.815 326.913 381.502L329.72 378.702ZM330.289 379.27L327.482 382.069L330.289 384.869L333.095 382.069L330.289 379.27Z" fill="#FFF8DC"/>
<path fill-rule="evenodd" clip-rule="evenodd" d="M332.657 378.702C332.972 378.388 333.481 378.388 333.796 378.702L336.602 381.502C336.917 381.815 336.917 382.323 336.602 382.637L333.796 385.437C333.481 385.75 332.972 385.75 332.657 385.437L329.851 382.637C329.536 382.323 329.536 381.815 329.851 381.502L332.657 378.702ZM333.227 379.27L330.42 382.069L333.227 384.869L336.033 382.069L333.227 379.27Z" fill="#FFF8DC"/>
<path fill-rule="evenodd" clip-rule="evenodd" d="M346.839 394.706L359.606 381.971L346.839 369.236L334.071 381.971L346.839 394.706ZM360.744 381.971L346.839 368.1L332.933 381.971L346.839 395.841L360.744 381.971Z" fill="#FFF8DC"/>
<path fill-rule="evenodd" clip-rule="evenodd" d="M346.839 388.845L353.73 381.971L346.839 375.096L339.947 381.971L346.839 388.845ZM354.869 381.971L346.839 373.961L338.808 381.971L346.839 389.981L354.869 381.971Z" fill="#FFF8DC"/>
<path fill-rule="evenodd" clip-rule="evenodd" d="M346.839 385.394L350.271 381.971L346.839 378.548L343.406 381.971L346.839 385.394ZM351.409 381.971L346.839 377.412L342.268 381.971L346.839 386.53L351.409 381.971Z" fill="#FFF8DC"/>
<path fill-rule="evenodd" clip-rule="evenodd" d="M350.214 395.861C350.529 396.174 350.529 396.682 350.214 396.996L347.408 399.796C347.093 400.109 346.584 400.109 346.269 399.796L343.463 396.996C343.148 396.682 343.148 396.174 343.463 395.861L346.269 393.061C346.584 392.747 347.093 392.747 347.408 393.061L350.214 395.861ZM349.645 396.428L346.839 393.629L344.032 396.428L346.839 399.228L349.645 396.428Z" fill="#FFF8DC"/>
<path fill-rule="evenodd" clip-rule="evenodd" d="M350.214 398.01C350.529 398.323 350.529 398.831 350.214 399.145L347.408 401.945C347.093 402.258 346.584 402.258 346.269 401.945L343.463 399.145C343.148 398.831 343.148 398.323 343.463 398.01L346.269 395.21C346.584 394.896 347.093 394.896 347.408 395.21L350.214 398.01ZM349.645 398.577L346.839 395.777L344.032 398.577L346.839 401.377L349.645 398.577Z" fill="#FFF8DC"/>
<path fill-rule="evenodd" clip-rule="evenodd" d="M350.214 367.143C350.529 367.456 350.529 367.964 350.214 368.278L347.408 371.078C347.093 371.391 346.584 371.391 346.269 371.078L343.463 368.278C343.148 367.964 343.148 367.456 343.463 367.143L346.269 364.343C346.584 364.029 347.093 364.029 347.408 364.343L350.214 367.143ZM349.645 367.71L346.839 364.911L344.032 367.71L346.839 370.51L349.645 367.71Z" fill="#FFF8DC"/>
<path fill-rule="evenodd" clip-rule="evenodd" d="M350.214 364.798C350.529 365.112 350.529 365.62 350.214 365.934L347.408 368.733C347.093 369.047 346.584 369.047 346.269 368.733L343.463 365.934C343.148 365.62 343.148 365.112 343.463 364.798L346.269 361.999C346.584 361.685 347.093 361.685 347.408 361.999L350.214 364.798ZM349.645 365.366L346.839 362.566L344.032 365.366L346.839 368.166L349.645 365.366Z" fill="#FFF8DC"/>
<path fill-rule="evenodd" clip-rule="evenodd" d="M346.839 292.989L349.683 290.152L346.839 287.315L343.994 290.152L346.839 292.989ZM350.821 290.152L346.839 286.18L342.856 290.152L346.839 294.125L350.821 290.152Z" fill="#FFF8DC"/>
<path fill-rule="evenodd" clip-rule="evenodd" d="M257.827 382.143L254.983 384.98L252.138 382.143L254.983 379.306L257.827 382.143ZM254.983 386.115L251 382.143L254.983 378.17L258.965 382.143L254.983 386.115Z" fill="#FFF8DC"/>
<path fill-rule="evenodd" clip-rule="evenodd" d="M346.806 363.097C346.584 363.097 346.404 362.917 346.404 362.696V293.929C346.404 293.707 346.584 293.527 346.806 293.527C347.028 293.527 347.209 293.707 347.209 293.929V362.696C347.209 362.917 347.028 363.097 346.806 363.097Z" fill="#FFF8DC"/>
<path fill-rule="evenodd" clip-rule="evenodd" d="M328.113 382.111C328.113 381.889 327.932 381.709 327.71 381.709L258.769 381.709C258.546 381.709 258.366 381.889 258.366 382.111C258.366 382.332 258.546 382.512 258.769 382.512L327.71 382.512C327.932 382.512 328.113 382.332 328.113 382.111Z" fill="#FFF8DC"/>
<path fill-rule="evenodd" clip-rule="evenodd" d="M359.765 326.248L357.876 324.364L359.765 322.48L361.654 324.364L359.765 326.248ZM356.738 324.364L359.765 321.345L362.792 324.364L359.765 327.383L356.738 324.364Z" fill="#FFF8DC"/>
<path fill-rule="evenodd" clip-rule="evenodd" d="M291.17 395.037L289.281 393.153L287.392 395.037L289.281 396.921L291.17 395.037ZM289.281 392.018L286.254 395.037L289.281 398.056L292.308 395.037L289.281 392.018Z" fill="#FFF8DC"/>
<path fill-rule="evenodd" clip-rule="evenodd" d="M359.831 370.911C359.608 370.911 359.428 370.732 359.428 370.51L359.428 327.14C359.428 326.918 359.608 326.739 359.831 326.739C360.053 326.739 360.233 326.918 360.233 327.14L360.233 370.51C360.233 370.732 360.053 370.911 359.831 370.911Z" fill="#FFF8DC"/>
<path fill-rule="evenodd" clip-rule="evenodd" d="M335.947 395.102C335.947 394.88 335.767 394.701 335.544 394.701L292.064 394.701C291.842 394.701 291.662 394.88 291.662 395.102C291.662 395.324 291.842 395.503 292.064 395.503L335.544 395.503C335.767 395.503 335.947 395.324 335.947 395.102Z" fill="#FFF8DC"/>
</svg>
