<svg width="370" height="405" viewBox="0 0 370 405" fill="none" xmlns="http://www.w3.org/2000/svg">
<rect x="0.5" y="0.5" width="369" height="404" fill="#39375E"/>
<rect x="0.5" y="0.5" width="369" height="404" stroke="#FFF8DC"/>
<path fill-rule="evenodd" clip-rule="evenodd" d="M15.9117 42.3904L8.92379 49.3808L15.9117 56.3713L22.8997 49.3808L15.9117 42.3904ZM8.03005 49.3808L15.9117 57.2653L23.7934 49.3808L15.9117 41.4964L8.03005 49.3808Z" fill="#FFF8DC"/>
<path fill-rule="evenodd" clip-rule="evenodd" d="M9.24508 44.3911L4.25713 49.3808L9.24508 54.3706L14.233 49.3808L9.24508 44.3911ZM3.36339 49.3808L9.24508 55.2646L15.1268 49.3808L9.24508 43.4971L3.36339 49.3808Z" fill="#FFF8DC"/>
<path fill-rule="evenodd" clip-rule="evenodd" d="M1.69671 48.5776L0.893741 49.3808L1.69671 50.1841L2.49968 49.3808L1.69671 48.5776ZM0 49.3808L1.69671 51.0782L3.39343 49.3808L1.69671 47.6835L0 49.3808Z" fill="#FFF8DC"/>
<path fill-rule="evenodd" clip-rule="evenodd" d="M25.4301 48.5776L24.6271 49.3808L25.4301 50.1841L26.233 49.3808L25.4301 48.5776ZM23.7333 49.3808L25.4301 51.0782L27.1268 49.3808L25.4301 47.6835L23.7333 49.3808Z" fill="#FFF8DC"/>
<path fill-rule="evenodd" clip-rule="evenodd" d="M15.9451 30.4679L13.3238 33.0901L15.9451 35.7123L18.5663 33.0901L15.9451 30.4679ZM12.43 33.0901L15.9451 36.6064L19.4601 33.0901L15.9451 29.5738L12.43 33.0901Z" fill="#FFF8DC"/>
<path fill-rule="evenodd" clip-rule="evenodd" d="M15.9451 63.0494L13.3238 65.6716L15.9451 68.2938L18.5663 65.6716L15.9451 63.0494ZM12.43 65.6716L15.9451 69.1878L19.4601 65.6716L15.9451 62.1553L12.43 65.6716Z" fill="#FFF8DC"/>
<path fill-rule="evenodd" clip-rule="evenodd" d="M15.915 81.5892L14.6571 82.8476L15.915 84.1059L17.1729 82.8476L15.915 81.5892ZM13.7634 82.8476L15.915 85L18.0667 82.8476L15.915 80.6952L13.7634 82.8476Z" fill="#FFF8DC"/>
<path fill-rule="evenodd" clip-rule="evenodd" d="M15.915 14.6322L14.6571 15.8906L15.915 17.1489L17.1729 15.8906L15.915 14.6322ZM13.7634 15.8906L15.915 18.043L18.0667 15.8906L15.915 13.7382L13.7634 15.8906Z" fill="#FFF8DC"/>
<path fill-rule="evenodd" clip-rule="evenodd" d="M9.862 9.83544V11.615H11.6409V9.83544H9.862ZM9.23003 12.2472H12.2729V9.20325H9.23003V12.2472Z" fill="#FFF8DC"/>
<path fill-rule="evenodd" clip-rule="evenodd" d="M9.23003 20.4913C9.40454 20.4913 9.54601 20.6328 9.54601 20.8074V43.6821C9.54601 43.8567 9.40454 43.9982 9.23003 43.9982C9.05551 43.9982 8.91404 43.8567 8.91404 43.6821V20.8074C8.91404 20.6328 9.05551 20.4913 9.23003 20.4913Z" fill="#FFF8DC"/>
<path fill-rule="evenodd" clip-rule="evenodd" d="M15.8967 17.5569C16.0712 17.5569 16.2127 17.6984 16.2127 17.873L16.2127 41.6147C16.2127 41.7893 16.0712 41.9308 15.8967 41.9308C15.7222 41.9308 15.5807 41.7893 15.5807 41.6147L15.5807 17.873C15.5807 17.6984 15.7222 17.5569 15.8967 17.5569Z" fill="#FFF8DC"/>
<path fill-rule="evenodd" clip-rule="evenodd" d="M15.8967 56.7707C16.0712 56.7707 16.2127 56.9123 16.2127 57.0868L16.2127 80.8286C16.2127 81.0031 16.0712 81.1447 15.8967 81.1447C15.7222 81.1447 15.5807 81.0032 15.5807 80.8286L15.5807 57.0868C15.5807 56.9123 15.7222 56.7707 15.8967 56.7707Z" fill="#FFF8DC"/>
<path fill-rule="evenodd" clip-rule="evenodd" d="M9.23003 54.77C9.40454 54.77 9.54601 54.9116 9.54601 55.0861V77.9609C9.54601 78.1355 9.40454 78.277 9.23003 78.277C9.05551 78.277 8.91404 78.1355 8.91404 77.9609V55.0861C8.91404 54.9116 9.05551 54.77 9.23003 54.77Z" fill="#FFF8DC"/>
<path fill-rule="evenodd" clip-rule="evenodd" d="M23.7333 37.564C23.9079 37.564 24.0493 37.7055 24.0493 37.8801V60.7548C24.0493 60.9294 23.9079 61.0709 23.7333 61.0709C23.5588 61.0709 23.4174 60.9294 23.4174 60.7548V37.8801C23.4174 37.7055 23.5588 37.564 23.7333 37.564Z" fill="#FFF8DC"/>
<path fill-rule="evenodd" clip-rule="evenodd" d="M56.3579 15.9174L49.3699 8.92694L42.382 15.9174L49.3699 22.9078L56.3579 15.9174ZM49.3699 8.03288L41.4883 15.9174L49.3699 23.8018L57.2516 15.9174L49.3699 8.03288Z" fill="#FFF8DC"/>
<path fill-rule="evenodd" clip-rule="evenodd" d="M54.3579 9.24834L49.3699 4.25862L44.382 9.24834L49.3699 14.238L54.3579 9.24834ZM49.3699 3.36457L43.4883 9.24834L49.3699 15.1321L55.2516 9.24834L49.3699 3.36457Z" fill="#FFF8DC"/>
<path fill-rule="evenodd" clip-rule="evenodd" d="M50.1729 1.69731L49.3699 0.894057L48.567 1.69731L49.3699 2.50057L50.1729 1.69731ZM49.3699 0L47.6732 1.69731L49.3699 3.39462L51.0667 1.69731L49.3699 0Z" fill="#FFF8DC"/>
<path fill-rule="evenodd" clip-rule="evenodd" d="M50.1729 25.439L49.3699 24.6358L48.567 25.439L49.3699 26.2423L50.1729 25.439ZM49.3699 23.7417L47.6732 25.439L49.3699 27.1363L51.0667 25.439L49.3699 23.7417Z" fill="#FFF8DC"/>
<path fill-rule="evenodd" clip-rule="evenodd" d="M68.2762 15.9507L65.6549 13.3285L63.0336 15.9507L65.6549 18.5729L68.2762 15.9507ZM65.6549 12.4344L62.1399 15.9507L65.6549 19.467L69.1699 15.9507L65.6549 12.4344Z" fill="#FFF8DC"/>
<path fill-rule="evenodd" clip-rule="evenodd" d="M35.7063 15.9507L33.085 13.3285L30.4637 15.9507L33.085 18.5729L35.7063 15.9507ZM33.085 12.4344L29.5699 15.9507L33.085 19.467L36.6 15.9507L33.085 12.4344Z" fill="#FFF8DC"/>
<path fill-rule="evenodd" clip-rule="evenodd" d="M84.1063 15.9207L82.8484 14.6623L81.5905 15.9207L82.8484 17.179L84.1063 15.9207ZM82.8484 13.7682L80.6967 15.9207L82.8484 18.0731L85 15.9207L82.8484 13.7682Z" fill="#FFF8DC"/>
<path fill-rule="evenodd" clip-rule="evenodd" d="M78.2493 9.23331C78.2493 9.40788 78.1078 9.5494 77.9333 9.5494H55.0667C54.8922 9.5494 54.7507 9.40788 54.7507 9.23331C54.7507 9.05873 54.8922 8.91721 55.0667 8.91721H77.9333C78.1078 8.91721 78.2493 9.05873 78.2493 9.23331Z" fill="#FFF8DC"/>
<path fill-rule="evenodd" clip-rule="evenodd" d="M81.1826 15.9023C81.1826 16.0769 81.0412 16.2184 80.8667 16.2184H57.1333C56.9588 16.2184 56.8173 16.0769 56.8173 15.9023C56.8173 15.7278 56.9588 15.5862 57.1333 15.5862H80.8667C81.0412 15.5862 81.1826 15.7278 81.1826 15.9023Z" fill="#FFF8DC"/>
<path fill-rule="evenodd" clip-rule="evenodd" d="M61.516 23.7417C61.516 23.9163 61.3745 24.0578 61.2 24.0578H37.4667C37.2922 24.0578 37.1507 23.9163 37.1507 23.7417C37.1507 23.5672 37.2922 23.4256 37.4667 23.4256H61.2C61.3745 23.4256 61.516 23.5672 61.516 23.7417Z" fill="#FFF8DC"/>
<path fill-rule="evenodd" clip-rule="evenodd" d="M41.9827 15.9023C41.9827 16.0769 41.8412 16.2184 41.6667 16.2184H17.9333C17.7588 16.2184 17.6174 16.0769 17.6174 15.9023C17.6174 15.7278 17.7588 15.5862 17.9333 15.5862H41.6667C41.8412 15.5862 41.9827 15.7278 41.9827 15.9023Z" fill="#FFF8DC"/>
<path fill-rule="evenodd" clip-rule="evenodd" d="M43.9826 9.23331C43.9826 9.40788 43.8412 9.5494 43.6666 9.5494L20.8 9.5494C20.6255 9.5494 20.484 9.40788 20.484 9.23331C20.484 9.05873 20.6255 8.91721 20.8 8.91721L43.6666 8.91721C43.8412 8.91721 43.9826 9.05873 43.9826 9.23331Z" fill="#FFF8DC"/>
<path fill-rule="evenodd" clip-rule="evenodd" d="M15.9117 362.61L8.92379 355.619L15.9117 348.629L22.8997 355.619L15.9117 362.61ZM8.03005 355.619L15.9117 347.735L23.7934 355.619L15.9117 363.504L8.03005 355.619Z" fill="#FFF8DC"/>
<path fill-rule="evenodd" clip-rule="evenodd" d="M9.24508 360.609L4.25713 355.619L9.24508 350.629L14.233 355.619L9.24508 360.609ZM3.36339 355.619L9.24508 349.735L15.1268 355.619L9.24508 361.503L3.36339 355.619Z" fill="#FFF8DC"/>
<path fill-rule="evenodd" clip-rule="evenodd" d="M1.69671 356.422L0.893741 355.619L1.69671 354.816L2.49968 355.619L1.69671 356.422ZM0 355.619L1.69671 353.922L3.39343 355.619L1.69671 357.316L0 355.619Z" fill="#FFF8DC"/>
<path fill-rule="evenodd" clip-rule="evenodd" d="M25.4301 356.422L24.6271 355.619L25.4301 354.816L26.233 355.619L25.4301 356.422ZM23.7333 355.619L25.4301 353.922L27.1268 355.619L25.4301 357.316L23.7333 355.619Z" fill="#FFF8DC"/>
<path fill-rule="evenodd" clip-rule="evenodd" d="M15.9451 374.532L13.3238 371.91L15.9451 369.288L18.5663 371.91L15.9451 374.532ZM12.43 371.91L15.9451 368.394L19.4601 371.91L15.9451 375.426L12.43 371.91Z" fill="#FFF8DC"/>
<path fill-rule="evenodd" clip-rule="evenodd" d="M15.9451 341.951L13.3238 339.328L15.9451 336.706L18.5663 339.328L15.9451 341.951ZM12.43 339.328L15.9451 335.812L19.4601 339.328L15.9451 342.845L12.43 339.328Z" fill="#FFF8DC"/>
<path fill-rule="evenodd" clip-rule="evenodd" d="M15.915 323.411L14.6571 322.152L15.915 320.894L17.1729 322.152L15.915 323.411ZM13.7634 322.152L15.915 320L18.0667 322.152L15.915 324.305L13.7634 322.152Z" fill="#FFF8DC"/>
<path fill-rule="evenodd" clip-rule="evenodd" d="M15.915 390.368L14.6571 389.109L15.915 387.851L17.1729 389.109L15.915 390.368ZM13.7634 389.109L15.915 386.957L18.0667 389.109L15.915 391.262L13.7634 389.109Z" fill="#FFF8DC"/>
<path fill-rule="evenodd" clip-rule="evenodd" d="M9.862 395.165V393.385H11.6409V395.165H9.862ZM9.23003 392.753H12.2729V395.797H9.23003V392.753Z" fill="#FFF8DC"/>
<path fill-rule="evenodd" clip-rule="evenodd" d="M9.23003 384.509C9.40454 384.509 9.54601 384.367 9.54601 384.193V361.318C9.54601 361.143 9.40454 361.002 9.23003 361.002C9.05551 361.002 8.91404 361.143 8.91404 361.318V384.193C8.91404 384.367 9.05551 384.509 9.23003 384.509Z" fill="#FFF8DC"/>
<path fill-rule="evenodd" clip-rule="evenodd" d="M15.8967 387.443C16.0712 387.443 16.2127 387.302 16.2127 387.127L16.2127 363.385C16.2127 363.211 16.0712 363.069 15.8967 363.069C15.7222 363.069 15.5807 363.211 15.5807 363.385L15.5807 387.127C15.5807 387.302 15.7222 387.443 15.8967 387.443Z" fill="#FFF8DC"/>
<path fill-rule="evenodd" clip-rule="evenodd" d="M15.8967 348.229C16.0712 348.229 16.2127 348.088 16.2127 347.913L16.2127 324.171C16.2127 323.997 16.0712 323.855 15.8967 323.855C15.7222 323.855 15.5807 323.997 15.5807 324.171L15.5807 347.913C15.5807 348.088 15.7222 348.229 15.8967 348.229Z" fill="#FFF8DC"/>
<path fill-rule="evenodd" clip-rule="evenodd" d="M9.23003 350.23C9.40454 350.23 9.54601 350.088 9.54601 349.914V327.039C9.54601 326.865 9.40454 326.723 9.23003 326.723C9.05551 326.723 8.91404 326.865 8.91404 327.039V349.914C8.91404 350.088 9.05551 350.23 9.23003 350.23Z" fill="#FFF8DC"/>
<path fill-rule="evenodd" clip-rule="evenodd" d="M23.7333 367.436C23.9079 367.436 24.0493 367.295 24.0493 367.12V344.245C24.0493 344.071 23.9079 343.929 23.7333 343.929C23.5588 343.929 23.4174 344.071 23.4174 344.245V367.12C23.4174 367.295 23.5588 367.436 23.7333 367.436Z" fill="#FFF8DC"/>
<path fill-rule="evenodd" clip-rule="evenodd" d="M56.3579 389.083L49.3699 396.073L42.382 389.083L49.3699 382.092L56.3579 389.083ZM49.3699 396.967L41.4883 389.083L49.3699 381.198L57.2516 389.083L49.3699 396.967Z" fill="#FFF8DC"/>
<path fill-rule="evenodd" clip-rule="evenodd" d="M54.3579 395.752L49.3699 400.741L44.382 395.752L49.3699 390.762L54.3579 395.752ZM49.3699 401.635L43.4883 395.752L49.3699 389.868L55.2516 395.752L49.3699 401.635Z" fill="#FFF8DC"/>
<path fill-rule="evenodd" clip-rule="evenodd" d="M50.1729 403.303L49.3699 404.106L48.567 403.303L49.3699 402.499L50.1729 403.303ZM49.3699 405L47.6732 403.303L49.3699 401.605L51.0667 403.303L49.3699 405Z" fill="#FFF8DC"/>
<path fill-rule="evenodd" clip-rule="evenodd" d="M50.1729 379.561L49.3699 380.364L48.567 379.561L49.3699 378.758L50.1729 379.561ZM49.3699 381.258L47.6732 379.561L49.3699 377.864L51.0667 379.561L49.3699 381.258Z" fill="#FFF8DC"/>
<path fill-rule="evenodd" clip-rule="evenodd" d="M68.2762 389.049L65.6549 391.672L63.0336 389.049L65.6549 386.427L68.2762 389.049ZM65.6549 392.566L62.1399 389.049L65.6549 385.533L69.1699 389.049L65.6549 392.566Z" fill="#FFF8DC"/>
<path fill-rule="evenodd" clip-rule="evenodd" d="M35.7063 389.049L33.085 391.672L30.4637 389.049L33.085 386.427L35.7063 389.049ZM33.085 392.566L29.5699 389.049L33.085 385.533L36.6 389.049L33.085 392.566Z" fill="#FFF8DC"/>
<path fill-rule="evenodd" clip-rule="evenodd" d="M84.1063 389.079L82.8484 390.338L81.5905 389.079L82.8484 387.821L84.1063 389.079ZM82.8484 391.232L80.6967 389.079L82.8484 386.927L85 389.079L82.8484 391.232Z" fill="#FFF8DC"/>
<path fill-rule="evenodd" clip-rule="evenodd" d="M78.2493 395.767C78.2493 395.592 78.1078 395.451 77.9333 395.451H55.0667C54.8922 395.451 54.7507 395.592 54.7507 395.767C54.7507 395.941 54.8922 396.083 55.0667 396.083H77.9333C78.1078 396.083 78.2493 395.941 78.2493 395.767Z" fill="#FFF8DC"/>
<path fill-rule="evenodd" clip-rule="evenodd" d="M81.1826 389.098C81.1826 388.923 81.0412 388.782 80.8667 388.782H57.1333C56.9588 388.782 56.8173 388.923 56.8173 389.098C56.8173 389.272 56.9588 389.414 57.1333 389.414H80.8667C81.0412 389.414 81.1826 389.272 81.1826 389.098Z" fill="#FFF8DC"/>
<path fill-rule="evenodd" clip-rule="evenodd" d="M61.516 381.258C61.516 381.084 61.3745 380.942 61.2 380.942H37.4667C37.2922 380.942 37.1507 381.084 37.1507 381.258C37.1507 381.433 37.2922 381.574 37.4667 381.574H61.2C61.3745 381.574 61.516 381.433 61.516 381.258Z" fill="#FFF8DC"/>
<path fill-rule="evenodd" clip-rule="evenodd" d="M41.9827 389.098C41.9827 388.923 41.8412 388.782 41.6667 388.782H17.9333C17.7588 388.782 17.6174 388.923 17.6174 389.098C17.6174 389.272 17.7588 389.414 17.9333 389.414H41.6667C41.8412 389.414 41.9827 389.272 41.9827 389.098Z" fill="#FFF8DC"/>
<path fill-rule="evenodd" clip-rule="evenodd" d="M43.9826 395.767C43.9826 395.592 43.8412 395.451 43.6666 395.451L20.8 395.451C20.6255 395.451 20.484 395.592 20.484 395.767C20.484 395.941 20.6255 396.083 20.8 396.083L43.6666 396.083C43.8412 396.083 43.9826 395.941 43.9826 395.767Z" fill="#FFF8DC"/>
<path fill-rule="evenodd" clip-rule="evenodd" d="M354.088 42.3904L361.076 49.3808L354.088 56.3713L347.1 49.3808L354.088 42.3904ZM361.97 49.3808L354.088 57.2653L346.207 49.3808L354.088 41.4964L361.97 49.3808Z" fill="#FFF8DC"/>
<path fill-rule="evenodd" clip-rule="evenodd" d="M360.755 44.3911L365.743 49.3808L360.755 54.3706L355.767 49.3808L360.755 44.3911ZM366.637 49.3808L360.755 55.2646L354.873 49.3808L360.755 43.4971L366.637 49.3808Z" fill="#FFF8DC"/>
<path fill-rule="evenodd" clip-rule="evenodd" d="M368.303 48.5776L369.106 49.3808L368.303 50.1841L367.5 49.3808L368.303 48.5776ZM370 49.3808L368.303 51.0782L366.607 49.3808L368.303 47.6835L370 49.3808Z" fill="#FFF8DC"/>
<path fill-rule="evenodd" clip-rule="evenodd" d="M344.57 48.5776L345.373 49.3808L344.57 50.1841L343.767 49.3808L344.57 48.5776ZM346.267 49.3808L344.57 51.0782L342.873 49.3808L344.57 47.6835L346.267 49.3808Z" fill="#FFF8DC"/>
<path fill-rule="evenodd" clip-rule="evenodd" d="M354.055 30.4679L356.676 33.0901L354.055 35.7123L351.434 33.0901L354.055 30.4679ZM357.57 33.0901L354.055 36.6064L350.54 33.0901L354.055 29.5738L357.57 33.0901Z" fill="#FFF8DC"/>
<path fill-rule="evenodd" clip-rule="evenodd" d="M354.055 63.0494L356.676 65.6716L354.055 68.2938L351.434 65.6716L354.055 63.0494ZM357.57 65.6716L354.055 69.1878L350.54 65.6716L354.055 62.1553L357.57 65.6716Z" fill="#FFF8DC"/>
<path fill-rule="evenodd" clip-rule="evenodd" d="M354.085 81.5892L355.343 82.8476L354.085 84.1059L352.827 82.8476L354.085 81.5892ZM356.237 82.8476L354.085 85L351.933 82.8476L354.085 80.6952L356.237 82.8476Z" fill="#FFF8DC"/>
<path fill-rule="evenodd" clip-rule="evenodd" d="M354.085 14.6322L355.343 15.8906L354.085 17.1489L352.827 15.8906L354.085 14.6322ZM356.237 15.8906L354.085 18.043L351.933 15.8906L354.085 13.7382L356.237 15.8906Z" fill="#FFF8DC"/>
<path fill-rule="evenodd" clip-rule="evenodd" d="M360.138 9.83544V11.615H358.359V9.83544H360.138ZM360.77 12.2472H357.727V9.20325H360.77V12.2472Z" fill="#FFF8DC"/>
<path fill-rule="evenodd" clip-rule="evenodd" d="M360.77 20.4913C360.595 20.4913 360.454 20.6328 360.454 20.8074V43.6821C360.454 43.8567 360.595 43.9982 360.77 43.9982C360.944 43.9982 361.086 43.8567 361.086 43.6821V20.8074C361.086 20.6328 360.944 20.4913 360.77 20.4913Z" fill="#FFF8DC"/>
<path fill-rule="evenodd" clip-rule="evenodd" d="M354.103 17.5569C353.929 17.5569 353.787 17.6984 353.787 17.873L353.787 41.6147C353.787 41.7893 353.929 41.9308 354.103 41.9308C354.278 41.9308 354.419 41.7893 354.419 41.6147L354.419 17.873C354.419 17.6984 354.278 17.5569 354.103 17.5569Z" fill="#FFF8DC"/>
<path fill-rule="evenodd" clip-rule="evenodd" d="M354.103 56.7707C353.929 56.7707 353.787 56.9123 353.787 57.0868L353.787 80.8286C353.787 81.0031 353.929 81.1447 354.103 81.1447C354.278 81.1447 354.419 81.0032 354.419 80.8286L354.419 57.0868C354.419 56.9123 354.278 56.7707 354.103 56.7707Z" fill="#FFF8DC"/>
<path fill-rule="evenodd" clip-rule="evenodd" d="M360.77 54.77C360.595 54.77 360.454 54.9116 360.454 55.0861V77.9609C360.454 78.1355 360.595 78.277 360.77 78.277C360.944 78.277 361.086 78.1355 361.086 77.9609V55.0861C361.086 54.9116 360.944 54.77 360.77 54.77Z" fill="#FFF8DC"/>
<path fill-rule="evenodd" clip-rule="evenodd" d="M346.267 37.564C346.092 37.564 345.951 37.7055 345.951 37.8801V60.7548C345.951 60.9294 346.092 61.0709 346.267 61.0709C346.441 61.0709 346.583 60.9294 346.583 60.7548V37.8801C346.583 37.7055 346.441 37.564 346.267 37.564Z" fill="#FFF8DC"/>
<path fill-rule="evenodd" clip-rule="evenodd" d="M313.642 15.9174L320.63 8.92694L327.618 15.9174L320.63 22.9078L313.642 15.9174ZM320.63 8.03288L328.512 15.9174L320.63 23.8018L312.748 15.9174L320.63 8.03288Z" fill="#FFF8DC"/>
<path fill-rule="evenodd" clip-rule="evenodd" d="M315.642 9.24834L320.63 4.25862L325.618 9.24834L320.63 14.238L315.642 9.24834ZM320.63 3.36457L326.512 9.24834L320.63 15.1321L314.748 9.24834L320.63 3.36457Z" fill="#FFF8DC"/>
<path fill-rule="evenodd" clip-rule="evenodd" d="M319.827 1.69731L320.63 0.894057L321.433 1.69731L320.63 2.50057L319.827 1.69731ZM320.63 0L322.327 1.69731L320.63 3.39462L318.933 1.69731L320.63 0Z" fill="#FFF8DC"/>
<path fill-rule="evenodd" clip-rule="evenodd" d="M319.827 25.439L320.63 24.6358L321.433 25.439L320.63 26.2423L319.827 25.439ZM320.63 23.7417L322.327 25.439L320.63 27.1363L318.933 25.439L320.63 23.7417Z" fill="#FFF8DC"/>
<path fill-rule="evenodd" clip-rule="evenodd" d="M301.724 15.9507L304.345 13.3285L306.966 15.9507L304.345 18.5729L301.724 15.9507ZM304.345 12.4344L307.86 15.9507L304.345 19.467L300.83 15.9507L304.345 12.4344Z" fill="#FFF8DC"/>
<path fill-rule="evenodd" clip-rule="evenodd" d="M334.294 15.9507L336.915 13.3285L339.536 15.9507L336.915 18.5729L334.294 15.9507ZM336.915 12.4344L340.43 15.9507L336.915 19.467L333.4 15.9507L336.915 12.4344Z" fill="#FFF8DC"/>
<path fill-rule="evenodd" clip-rule="evenodd" d="M285.894 15.9207L287.152 14.6623L288.41 15.9207L287.152 17.179L285.894 15.9207ZM287.152 13.7682L289.303 15.9207L287.152 18.0731L285 15.9207L287.152 13.7682Z" fill="#FFF8DC"/>
<path fill-rule="evenodd" clip-rule="evenodd" d="M291.751 9.23331C291.751 9.40788 291.892 9.5494 292.067 9.5494H314.933C315.108 9.5494 315.249 9.40788 315.249 9.23331C315.249 9.05873 315.108 8.91721 314.933 8.91721H292.067C291.892 8.91721 291.751 9.05873 291.751 9.23331Z" fill="#FFF8DC"/>
<path fill-rule="evenodd" clip-rule="evenodd" d="M288.817 15.9023C288.817 16.0769 288.959 16.2184 289.133 16.2184H312.867C313.041 16.2184 313.183 16.0769 313.183 15.9023C313.183 15.7278 313.041 15.5862 312.867 15.5862H289.133C288.959 15.5862 288.817 15.7278 288.817 15.9023Z" fill="#FFF8DC"/>
<path fill-rule="evenodd" clip-rule="evenodd" d="M308.484 23.7417C308.484 23.9163 308.625 24.0578 308.8 24.0578H332.533C332.708 24.0578 332.849 23.9163 332.849 23.7417C332.849 23.5672 332.708 23.4256 332.533 23.4256H308.8C308.625 23.4256 308.484 23.5672 308.484 23.7417Z" fill="#FFF8DC"/>
<path fill-rule="evenodd" clip-rule="evenodd" d="M328.017 15.9023C328.017 16.0769 328.159 16.2184 328.333 16.2184H352.067C352.241 16.2184 352.383 16.0769 352.383 15.9023C352.383 15.7278 352.241 15.5862 352.067 15.5862H328.333C328.159 15.5862 328.017 15.7278 328.017 15.9023Z" fill="#FFF8DC"/>
<path fill-rule="evenodd" clip-rule="evenodd" d="M326.017 9.23331C326.017 9.40788 326.159 9.5494 326.333 9.5494L349.2 9.5494C349.375 9.5494 349.516 9.40788 349.516 9.23331C349.516 9.05873 349.375 8.91721 349.2 8.91721L326.333 8.91721C326.159 8.91721 326.017 9.05873 326.017 9.23331Z" fill="#FFF8DC"/>
<path fill-rule="evenodd" clip-rule="evenodd" d="M354.088 362.61L361.076 355.619L354.088 348.629L347.1 355.619L354.088 362.61ZM361.97 355.619L354.088 347.735L346.207 355.619L354.088 363.504L361.97 355.619Z" fill="#FFF8DC"/>
<path fill-rule="evenodd" clip-rule="evenodd" d="M360.755 360.609L365.743 355.619L360.755 350.629L355.767 355.619L360.755 360.609ZM366.637 355.619L360.755 349.735L354.873 355.619L360.755 361.503L366.637 355.619Z" fill="#FFF8DC"/>
<path fill-rule="evenodd" clip-rule="evenodd" d="M368.303 356.422L369.106 355.619L368.303 354.816L367.5 355.619L368.303 356.422ZM370 355.619L368.303 353.922L366.607 355.619L368.303 357.316L370 355.619Z" fill="#FFF8DC"/>
<path fill-rule="evenodd" clip-rule="evenodd" d="M344.57 356.422L345.373 355.619L344.57 354.816L343.767 355.619L344.57 356.422ZM346.267 355.619L344.57 353.922L342.873 355.619L344.57 357.316L346.267 355.619Z" fill="#FFF8DC"/>
<path fill-rule="evenodd" clip-rule="evenodd" d="M354.055 374.532L356.676 371.91L354.055 369.288L351.434 371.91L354.055 374.532ZM357.57 371.91L354.055 368.394L350.54 371.91L354.055 375.426L357.57 371.91Z" fill="#FFF8DC"/>
<path fill-rule="evenodd" clip-rule="evenodd" d="M354.055 341.951L356.676 339.328L354.055 336.706L351.434 339.328L354.055 341.951ZM357.57 339.328L354.055 335.812L350.54 339.328L354.055 342.845L357.57 339.328Z" fill="#FFF8DC"/>
<path fill-rule="evenodd" clip-rule="evenodd" d="M354.085 323.411L355.343 322.152L354.085 320.894L352.827 322.152L354.085 323.411ZM356.237 322.152L354.085 320L351.933 322.152L354.085 324.305L356.237 322.152Z" fill="#FFF8DC"/>
<path fill-rule="evenodd" clip-rule="evenodd" d="M354.085 390.368L355.343 389.109L354.085 387.851L352.827 389.109L354.085 390.368ZM356.237 389.109L354.085 386.957L351.933 389.109L354.085 391.262L356.237 389.109Z" fill="#FFF8DC"/>
<path fill-rule="evenodd" clip-rule="evenodd" d="M360.138 395.165V393.385H358.359V395.165H360.138ZM360.77 392.753H357.727V395.797H360.77V392.753Z" fill="#FFF8DC"/>
<path fill-rule="evenodd" clip-rule="evenodd" d="M360.77 384.509C360.595 384.509 360.454 384.367 360.454 384.193V361.318C360.454 361.143 360.595 361.002 360.77 361.002C360.944 361.002 361.086 361.143 361.086 361.318V384.193C361.086 384.367 360.944 384.509 360.77 384.509Z" fill="#FFF8DC"/>
<path fill-rule="evenodd" clip-rule="evenodd" d="M354.103 387.443C353.929 387.443 353.787 387.302 353.787 387.127L353.787 363.385C353.787 363.211 353.929 363.069 354.103 363.069C354.278 363.069 354.419 363.211 354.419 363.385L354.419 387.127C354.419 387.302 354.278 387.443 354.103 387.443Z" fill="#FFF8DC"/>
<path fill-rule="evenodd" clip-rule="evenodd" d="M354.103 348.229C353.929 348.229 353.787 348.088 353.787 347.913L353.787 324.171C353.787 323.997 353.929 323.855 354.103 323.855C354.278 323.855 354.419 323.997 354.419 324.171L354.419 347.913C354.419 348.088 354.278 348.229 354.103 348.229Z" fill="#FFF8DC"/>
<path fill-rule="evenodd" clip-rule="evenodd" d="M360.77 350.23C360.595 350.23 360.454 350.088 360.454 349.914V327.039C360.454 326.865 360.595 326.723 360.77 326.723C360.944 326.723 361.086 326.865 361.086 327.039V349.914C361.086 350.088 360.944 350.23 360.77 350.23Z" fill="#FFF8DC"/>
<path fill-rule="evenodd" clip-rule="evenodd" d="M346.267 367.436C346.092 367.436 345.951 367.295 345.951 367.12V344.245C345.951 344.071 346.092 343.929 346.267 343.929C346.441 343.929 346.583 344.071 346.583 344.245V367.12C346.583 367.295 346.441 367.436 346.267 367.436Z" fill="#FFF8DC"/>
<path fill-rule="evenodd" clip-rule="evenodd" d="M313.642 389.083L320.63 396.073L327.618 389.083L320.63 382.092L313.642 389.083ZM320.63 396.967L328.512 389.083L320.63 381.198L312.748 389.083L320.63 396.967Z" fill="#FFF8DC"/>
<path fill-rule="evenodd" clip-rule="evenodd" d="M315.642 395.752L320.63 400.741L325.618 395.752L320.63 390.762L315.642 395.752ZM320.63 401.635L326.512 395.752L320.63 389.868L314.748 395.752L320.63 401.635Z" fill="#FFF8DC"/>
<path fill-rule="evenodd" clip-rule="evenodd" d="M319.827 403.303L320.63 404.106L321.433 403.303L320.63 402.499L319.827 403.303ZM320.63 405L322.327 403.303L320.63 401.605L318.933 403.303L320.63 405Z" fill="#FFF8DC"/>
<path fill-rule="evenodd" clip-rule="evenodd" d="M319.827 379.561L320.63 380.364L321.433 379.561L320.63 378.758L319.827 379.561ZM320.63 381.258L322.327 379.561L320.63 377.864L318.933 379.561L320.63 381.258Z" fill="#FFF8DC"/>
<path fill-rule="evenodd" clip-rule="evenodd" d="M301.724 389.049L304.345 391.672L306.966 389.049L304.345 386.427L301.724 389.049ZM304.345 392.566L307.86 389.049L304.345 385.533L300.83 389.049L304.345 392.566Z" fill="#FFF8DC"/>
<path fill-rule="evenodd" clip-rule="evenodd" d="M334.294 389.049L336.915 391.672L339.536 389.049L336.915 386.427L334.294 389.049ZM336.915 392.566L340.43 389.049L336.915 385.533L333.4 389.049L336.915 392.566Z" fill="#FFF8DC"/>
<path fill-rule="evenodd" clip-rule="evenodd" d="M285.894 389.079L287.152 390.338L288.41 389.079L287.152 387.821L285.894 389.079ZM287.152 391.232L289.303 389.079L287.152 386.927L285 389.079L287.152 391.232Z" fill="#FFF8DC"/>
<path fill-rule="evenodd" clip-rule="evenodd" d="M291.751 395.767C291.751 395.592 291.892 395.451 292.067 395.451H314.933C315.108 395.451 315.249 395.592 315.249 395.767C315.249 395.941 315.108 396.083 314.933 396.083H292.067C291.892 396.083 291.751 395.941 291.751 395.767Z" fill="#FFF8DC"/>
<path fill-rule="evenodd" clip-rule="evenodd" d="M288.817 389.098C288.817 388.923 288.959 388.782 289.133 388.782H312.867C313.041 388.782 313.183 388.923 313.183 389.098C313.183 389.272 313.041 389.414 312.867 389.414H289.133C288.959 389.414 288.817 389.272 288.817 389.098Z" fill="#FFF8DC"/>
<path fill-rule="evenodd" clip-rule="evenodd" d="M308.484 381.258C308.484 381.084 308.625 380.942 308.8 380.942H332.533C332.708 380.942 332.849 381.084 332.849 381.258C332.849 381.433 332.708 381.574 332.533 381.574H308.8C308.625 381.574 308.484 381.433 308.484 381.258Z" fill="#FFF8DC"/>
<path fill-rule="evenodd" clip-rule="evenodd" d="M328.017 389.098C328.017 388.923 328.159 388.782 328.333 388.782H352.067C352.241 388.782 352.383 388.923 352.383 389.098C352.383 389.272 352.241 389.414 352.067 389.414H328.333C328.159 389.414 328.017 389.272 328.017 389.098Z" fill="#FFF8DC"/>
<path fill-rule="evenodd" clip-rule="evenodd" d="M326.017 395.767C326.017 395.592 326.159 395.451 326.333 395.451L349.2 395.451C349.375 395.451 349.516 395.592 349.516 395.767C349.516 395.941 349.375 396.083 349.2 396.083L326.333 396.083C326.159 396.083 326.017 395.941 326.017 395.767Z" fill="#FFF8DC"/>
</svg>
