<svg width="370" height="407" viewBox="0 0 370 407" fill="none" xmlns="http://www.w3.org/2000/svg">
<rect x="0.5" y="1.5" width="369" height="404" fill="#39375E"/>
<rect x="0.5" y="1.5" width="369" height="404" stroke="#FFF8DC"/>
<path fill-rule="evenodd" clip-rule="evenodd" d="M14.1681 1.86743L1.04647 14.9971L14.1681 28.1268L27.2897 14.9971L14.1681 1.86743ZM0 14.9971L14.1681 29.1739L28.3361 14.9971L14.1681 0.820312L0 14.9971Z" fill="#FFF8DC"/>
<path fill-rule="evenodd" clip-rule="evenodd" d="M14.1681 10.6943L9.86792 14.9971L14.1681 19.2999L18.4682 14.9971L14.1681 10.6943ZM8.82145 14.9971L14.1681 20.347L19.5147 14.9971L14.1681 9.64721L8.82145 14.9971Z" fill="#FFF8DC"/>
<path fill-rule="evenodd" clip-rule="evenodd" d="M14.1681 63.6558L10.6241 67.202L14.1681 70.7482L17.7121 67.202L14.1681 63.6558ZM9.5776 67.202L14.1681 71.7953L18.7586 67.202L14.1681 62.6087L9.5776 67.202Z" fill="#FFF8DC"/>
<path fill-rule="evenodd" clip-rule="evenodd" d="M62.8504 14.9972L66.3944 11.451L69.9384 14.9972L66.3944 18.5434L62.8504 14.9972ZM66.3944 10.4038L70.9849 14.9972L66.3944 19.5905L61.804 14.9972L66.3944 10.4038Z" fill="#FFF8DC"/>
<path fill-rule="evenodd" clip-rule="evenodd" d="M14.1681 77.7788L11.3802 80.5684L14.1681 83.358L16.956 80.5684L14.1681 77.7788ZM10.3337 80.5684L14.1681 84.4052L18.0024 80.5684L14.1681 76.7317L10.3337 80.5684Z" fill="#FFF8DC"/>
<path fill-rule="evenodd" clip-rule="evenodd" d="M76.9647 14.9971L79.7526 12.2075L82.5405 14.9971L79.7526 17.7868L76.9647 14.9971ZM79.7526 11.1604L83.587 14.9971L79.7526 18.8339L75.9183 14.9971L79.7526 11.1604Z" fill="#FFF8DC"/>
<path fill-rule="evenodd" clip-rule="evenodd" d="M13.9064 19.9777C14.0509 19.8332 14.2852 19.8332 14.4297 19.9777L18.8404 24.3912C18.9098 24.4606 18.9488 24.5548 18.9488 24.653V59.9606C18.9488 60.1651 18.7831 60.3308 18.5788 60.3308C18.3745 60.3308 18.2088 60.1651 18.2088 59.9606V24.8063L14.538 21.1333V87.4501C14.538 87.6546 14.3724 87.8203 14.1681 87.8203C13.9637 87.8203 13.7981 87.6546 13.7981 87.4501V21.1333L10.1273 24.8063V52.773C10.1273 52.9774 9.96167 53.1432 9.75734 53.1432C9.553 53.1432 9.38735 52.9774 9.38735 52.773V24.653C9.38735 24.5548 9.42633 24.4606 9.49572 24.3912L13.9064 19.9777Z" fill="#FFF8DC"/>
<path fill-rule="evenodd" clip-rule="evenodd" d="M19.1993 14.7353C19.0548 14.8799 19.0548 15.1143 19.1993 15.2589L23.61 19.6723C23.6794 19.7418 23.7735 19.7808 23.8716 19.7808L59.1575 19.7808C59.3618 19.7808 59.5275 19.615 59.5275 19.4106C59.5275 19.2061 59.3618 19.0404 59.1575 19.0404L24.0249 19.0404L20.3541 15.3673L86.63 15.3673C86.8344 15.3673 87 15.2016 87 14.9971C87 14.7927 86.8344 14.6269 86.63 14.6269L20.3541 14.6269L24.0249 10.9539L51.9743 10.9539C52.1786 10.9539 52.3443 10.7881 52.3443 10.5837C52.3443 10.3792 52.1786 10.2134 51.9743 10.2134L23.8716 10.2134C23.7735 10.2134 23.6794 10.2525 23.61 10.3219L19.1993 14.7353Z" fill="#FFF8DC"/>
<path fill-rule="evenodd" clip-rule="evenodd" d="M14.1681 405.133L1.04647 392.003L14.1681 378.873L27.2897 392.003L14.1681 405.133ZM0 392.003L14.1681 377.826L28.3361 392.003L14.1681 406.18L0 392.003Z" fill="#FFF8DC"/>
<path fill-rule="evenodd" clip-rule="evenodd" d="M14.1681 396.306L9.86792 392.003L14.1681 387.7L18.4682 392.003L14.1681 396.306ZM8.82145 392.003L14.1681 386.653L19.5147 392.003L14.1681 397.353L8.82145 392.003Z" fill="#FFF8DC"/>
<path fill-rule="evenodd" clip-rule="evenodd" d="M14.1681 343.344L10.6241 339.798L14.1681 336.252L17.7121 339.798L14.1681 343.344ZM9.5776 339.798L14.1681 335.205L18.7586 339.798L14.1681 344.391L9.5776 339.798Z" fill="#FFF8DC"/>
<path fill-rule="evenodd" clip-rule="evenodd" d="M62.8504 392.003L66.3944 395.549L69.9384 392.003L66.3944 388.457L62.8504 392.003ZM66.3944 396.596L70.9849 392.003L66.3944 387.41L61.804 392.003L66.3944 396.596Z" fill="#FFF8DC"/>
<path fill-rule="evenodd" clip-rule="evenodd" d="M14.1681 329.221L11.3802 326.432L14.1681 323.642L16.956 326.432L14.1681 329.221ZM10.3337 326.432L14.1681 322.595L18.0024 326.432L14.1681 330.268L10.3337 326.432Z" fill="#FFF8DC"/>
<path fill-rule="evenodd" clip-rule="evenodd" d="M76.9647 392.003L79.7526 394.792L82.5405 392.003L79.7526 389.213L76.9647 392.003ZM79.7526 395.84L83.587 392.003L79.7526 388.166L75.9183 392.003L79.7526 395.84Z" fill="#FFF8DC"/>
<path fill-rule="evenodd" clip-rule="evenodd" d="M13.9064 387.022C14.0509 387.167 14.2852 387.167 14.4297 387.022L18.8404 382.609C18.9098 382.539 18.9488 382.445 18.9488 382.347V347.039C18.9488 346.835 18.7831 346.669 18.5788 346.669C18.3745 346.669 18.2088 346.835 18.2088 347.039V382.194L14.538 385.867V319.55C14.538 319.345 14.3724 319.18 14.1681 319.18C13.9637 319.18 13.7981 319.345 13.7981 319.55V385.867L10.1273 382.194V354.227C10.1273 354.023 9.96167 353.857 9.75734 353.857C9.553 353.857 9.38735 354.023 9.38735 354.227V382.347C9.38735 382.445 9.42633 382.539 9.49572 382.609L13.9064 387.022Z" fill="#FFF8DC"/>
<path fill-rule="evenodd" clip-rule="evenodd" d="M19.1993 392.265C19.0548 392.12 19.0548 391.886 19.1993 391.741L23.61 387.328C23.6794 387.258 23.7735 387.219 23.8716 387.219L59.1575 387.219C59.3618 387.219 59.5275 387.385 59.5275 387.589C59.5275 387.794 59.3618 387.96 59.1575 387.96L24.0249 387.96L20.3541 391.633L86.63 391.633C86.8344 391.633 87 391.798 87 392.003C87 392.207 86.8344 392.373 86.63 392.373L20.3541 392.373L24.0249 396.046L51.9743 396.046C52.1786 396.046 52.3443 396.212 52.3443 396.416C52.3443 396.621 52.1786 396.787 51.9743 396.787L23.8716 396.787C23.7735 396.787 23.6794 396.748 23.61 396.678L19.1993 392.265Z" fill="#FFF8DC"/>
<path fill-rule="evenodd" clip-rule="evenodd" d="M355.832 1.86743L368.954 14.9971L355.832 28.1268L342.71 14.9971L355.832 1.86743ZM370 14.9971L355.832 29.1739L341.664 14.9971L355.832 0.820312L370 14.9971Z" fill="#FFF8DC"/>
<path fill-rule="evenodd" clip-rule="evenodd" d="M355.832 10.6943L360.132 14.9971L355.832 19.2999L351.532 14.9971L355.832 10.6943ZM361.179 14.9971L355.832 20.347L350.485 14.9971L355.832 9.64721L361.179 14.9971Z" fill="#FFF8DC"/>
<path fill-rule="evenodd" clip-rule="evenodd" d="M355.832 63.6558L359.376 67.202L355.832 70.7482L352.288 67.202L355.832 63.6558ZM360.422 67.202L355.832 71.7953L351.241 67.202L355.832 62.6087L360.422 67.202Z" fill="#FFF8DC"/>
<path fill-rule="evenodd" clip-rule="evenodd" d="M307.15 14.9972L303.606 11.451L300.062 14.9972L303.606 18.5434L307.15 14.9972ZM303.606 10.4038L299.015 14.9972L303.606 19.5905L308.196 14.9972L303.606 10.4038Z" fill="#FFF8DC"/>
<path fill-rule="evenodd" clip-rule="evenodd" d="M355.832 77.7788L358.62 80.5684L355.832 83.358L353.044 80.5684L355.832 77.7788ZM359.666 80.5684L355.832 84.4052L351.998 80.5684L355.832 76.7317L359.666 80.5684Z" fill="#FFF8DC"/>
<path fill-rule="evenodd" clip-rule="evenodd" d="M293.035 14.9971L290.247 12.2075L287.459 14.9971L290.247 17.7868L293.035 14.9971ZM290.247 11.1604L286.413 14.9971L290.247 18.8339L294.082 14.9971L290.247 11.1604Z" fill="#FFF8DC"/>
<path fill-rule="evenodd" clip-rule="evenodd" d="M356.094 19.9777C355.949 19.8332 355.715 19.8332 355.57 19.9777L351.16 24.3912C351.09 24.4606 351.051 24.5548 351.051 24.653V59.9606C351.051 60.1651 351.217 60.3308 351.421 60.3308C351.626 60.3308 351.791 60.1651 351.791 59.9606V24.8063L355.462 21.1333V87.4501C355.462 87.6546 355.628 87.8203 355.832 87.8203C356.036 87.8203 356.202 87.6546 356.202 87.4501V21.1333L359.873 24.8063V52.773C359.873 52.9774 360.038 53.1432 360.243 53.1432C360.447 53.1432 360.613 52.9774 360.613 52.773V24.653C360.613 24.5548 360.574 24.4606 360.504 24.3912L356.094 19.9777Z" fill="#FFF8DC"/>
<path fill-rule="evenodd" clip-rule="evenodd" d="M350.801 14.7353C350.945 14.8799 350.945 15.1143 350.801 15.2589L346.39 19.6723C346.321 19.7418 346.226 19.7808 346.128 19.7808L310.843 19.7808C310.638 19.7808 310.473 19.615 310.473 19.4106C310.473 19.2061 310.638 19.0404 310.843 19.0404L345.975 19.0404L349.646 15.3673L283.37 15.3673C283.166 15.3673 283 15.2016 283 14.9971C283 14.7927 283.166 14.6269 283.37 14.6269L349.646 14.6269L345.975 10.9539L318.026 10.9539C317.821 10.9539 317.656 10.7881 317.656 10.5837C317.656 10.3792 317.821 10.2134 318.026 10.2134L346.128 10.2134C346.226 10.2134 346.321 10.2525 346.39 10.3219L350.801 14.7353Z" fill="#FFF8DC"/>
<path fill-rule="evenodd" clip-rule="evenodd" d="M355.832 405.133L368.954 392.003L355.832 378.873L342.71 392.003L355.832 405.133ZM370 392.003L355.832 377.826L341.664 392.003L355.832 406.18L370 392.003Z" fill="#FFF8DC"/>
<path fill-rule="evenodd" clip-rule="evenodd" d="M355.832 396.306L360.132 392.003L355.832 387.7L351.532 392.003L355.832 396.306ZM361.179 392.003L355.832 386.653L350.485 392.003L355.832 397.353L361.179 392.003Z" fill="#FFF8DC"/>
<path fill-rule="evenodd" clip-rule="evenodd" d="M355.832 343.344L359.376 339.798L355.832 336.252L352.288 339.798L355.832 343.344ZM360.422 339.798L355.832 335.205L351.241 339.798L355.832 344.391L360.422 339.798Z" fill="#FFF8DC"/>
<path fill-rule="evenodd" clip-rule="evenodd" d="M307.15 392.003L303.606 395.549L300.062 392.003L303.606 388.457L307.15 392.003ZM303.606 396.596L299.015 392.003L303.606 387.41L308.196 392.003L303.606 396.596Z" fill="#FFF8DC"/>
<path fill-rule="evenodd" clip-rule="evenodd" d="M355.832 329.221L358.62 326.432L355.832 323.642L353.044 326.432L355.832 329.221ZM359.666 326.432L355.832 322.595L351.998 326.432L355.832 330.268L359.666 326.432Z" fill="#FFF8DC"/>
<path fill-rule="evenodd" clip-rule="evenodd" d="M293.035 392.003L290.247 394.792L287.459 392.003L290.247 389.213L293.035 392.003ZM290.247 395.84L286.413 392.003L290.247 388.166L294.082 392.003L290.247 395.84Z" fill="#FFF8DC"/>
<path fill-rule="evenodd" clip-rule="evenodd" d="M356.094 387.022C355.949 387.167 355.715 387.167 355.57 387.022L351.16 382.609C351.09 382.539 351.051 382.445 351.051 382.347V347.039C351.051 346.835 351.217 346.669 351.421 346.669C351.626 346.669 351.791 346.835 351.791 347.039V382.194L355.462 385.867V319.55C355.462 319.345 355.628 319.18 355.832 319.18C356.036 319.18 356.202 319.345 356.202 319.55V385.867L359.873 382.194V354.227C359.873 354.023 360.038 353.857 360.243 353.857C360.447 353.857 360.613 354.023 360.613 354.227V382.347C360.613 382.445 360.574 382.539 360.504 382.609L356.094 387.022Z" fill="#FFF8DC"/>
<path fill-rule="evenodd" clip-rule="evenodd" d="M350.801 392.265C350.945 392.12 350.945 391.886 350.801 391.741L346.39 387.328C346.321 387.258 346.226 387.219 346.128 387.219L310.843 387.219C310.638 387.219 310.473 387.385 310.473 387.589C310.473 387.794 310.638 387.96 310.843 387.96L345.975 387.96L349.646 391.633L283.37 391.633C283.166 391.633 283 391.798 283 392.003C283 392.207 283.166 392.373 283.37 392.373L349.646 392.373L345.975 396.046L318.026 396.046C317.821 396.046 317.656 396.212 317.656 396.416C317.656 396.621 317.821 396.787 318.026 396.787L346.128 396.787C346.226 396.787 346.321 396.748 346.39 396.678L350.801 392.265Z" fill="#FFF8DC"/>
</svg>
