<svg width="370" height="405" viewBox="0 0 370 405" fill="none" xmlns="http://www.w3.org/2000/svg">
<rect x="0.5" y="0.5" width="369" height="404" rx="29.5" fill="#39375E"/>
<rect x="0.5" y="0.5" width="369" height="404" rx="29.5" stroke="#FFF8DC"/>
<path fill-rule="evenodd" clip-rule="evenodd" d="M19.5654 28.9733C22.3643 31.0823 26.3658 30.8654 28.9173 28.3226C31.4688 25.7797 31.6865 21.7917 29.5703 19.0024L19.5654 28.9733ZM11.7135 35.4008C11.9489 35.6354 12.1894 35.8618 12.4347 36.0799C19.1836 42.0818 29.5431 41.8554 36.0197 35.4008C42.4963 28.9462 42.7234 18.6218 36.7011 11.8958C36.4822 11.6514 36.2551 11.4117 36.0197 11.1771L11.7135 35.4008ZM30.2775 18.2975C32.7776 21.4786 32.558 26.0921 29.6186 29.0214C26.6792 31.9508 22.0501 32.1697 18.8582 29.6782L15.9442 32.5822C20.7514 36.6616 27.9762 36.438 32.5183 31.9113C37.0604 27.3846 37.2848 20.1843 33.1915 15.3934L30.2775 18.2975ZM33.8949 14.6924C38.3742 19.8714 38.1491 27.6973 33.2195 32.6102C28.2899 37.523 20.4374 37.7474 15.2408 33.2832L13.1372 35.3798C19.4976 40.9964 29.2292 40.7705 35.3184 34.7019C41.4076 28.6334 41.6343 18.9347 35.9986 12.5959L33.8949 14.6924Z" fill="#FFF8DC"/>
<path fill-rule="evenodd" clip-rule="evenodd" d="M3.87328 32.8993C3.87328 32.6264 4.09529 32.4051 4.36915 32.4051C11.1899 32.4051 16.7107 37.9694 16.7107 44.8229C16.7107 51.6764 11.1899 57.2407 4.36915 57.2407C4.09529 57.2407 3.87328 57.0195 3.87328 56.7465C3.87328 56.4736 4.09529 56.2523 4.36915 56.2523C10.6329 56.2523 15.719 51.1399 15.719 44.8229C15.719 38.506 10.6329 33.3935 4.36915 33.3935C4.09529 33.3935 3.87328 33.1722 3.87328 32.8993ZM3.87328 35.9906C3.87328 35.7177 4.09529 35.4964 4.36915 35.4964C9.49373 35.4964 13.6396 39.6767 13.6396 44.8229C13.6396 49.9691 9.49373 54.1494 4.36915 54.1494C4.09529 54.1494 3.87328 53.9282 3.87328 53.6552C3.87328 53.3823 4.09529 53.161 4.36915 53.161C8.93673 53.161 12.6479 49.4326 12.6479 44.8229C12.6479 40.2133 8.93673 36.4848 4.36915 36.4848C4.09529 36.4848 3.87328 36.2635 3.87328 35.9906ZM3.87328 39.5235C3.87328 39.2506 4.09529 39.0293 4.36915 39.0293C7.5553 39.0293 10.1298 41.6279 10.1298 44.8229C10.1298 48.018 7.5553 50.6165 4.36915 50.6165C4.09529 50.6165 3.87328 50.3952 3.87328 50.1223C3.87328 49.8494 4.09529 49.6281 4.36915 49.6281C6.9983 49.6281 9.13805 47.4814 9.13805 44.8229C9.13805 42.1644 6.9983 40.0177 4.36915 40.0177C4.09529 40.0177 3.87328 39.7965 3.87328 39.5235Z" fill="#FFF8DC"/>
<path fill-rule="evenodd" clip-rule="evenodd" d="M33.7466 3.83567C33.4727 3.83567 33.2507 4.05693 33.2507 4.32986C33.2507 11.1274 38.8339 16.6296 45.7107 16.6296C52.5876 16.6296 58.1708 11.1274 58.1708 4.32986C58.1708 4.05693 57.9488 3.83568 57.6749 3.83568C57.4011 3.83568 57.1791 4.05693 57.1791 4.32986C57.1791 10.5723 52.0492 15.6412 45.7107 15.6412C39.3723 15.6412 34.2424 10.5723 34.2424 4.32986C34.2424 4.05693 34.0204 3.83567 33.7466 3.83567ZM36.8484 3.83568C36.5745 3.83568 36.3525 4.05693 36.3525 4.32986C36.3525 9.43707 40.547 13.5689 45.7107 13.5689C50.8745 13.5689 55.069 9.43707 55.069 4.32986C55.069 4.05693 54.847 3.83568 54.5731 3.83568C54.2992 3.83568 54.0772 4.05693 54.0772 4.32986C54.0772 8.88196 50.3361 12.5805 45.7107 12.5805C41.0854 12.5805 37.3442 8.88196 37.3442 4.32986C37.3442 4.05693 37.1222 3.83568 36.8484 3.83568ZM40.3933 3.83568C40.1195 3.83568 39.8975 4.05693 39.8975 4.32986C39.8975 7.50521 42.5048 10.071 45.7107 10.071C48.9167 10.071 51.524 7.50521 51.524 4.32986C51.524 4.05693 51.302 3.83568 51.0282 3.83568C50.7543 3.83568 50.5323 4.05693 50.5323 4.32986C50.5323 6.9501 48.3783 9.08259 45.7107 9.08259C43.0432 9.08259 40.8892 6.9501 40.8892 4.32986C40.8892 4.05693 40.6672 3.83568 40.3933 3.83568Z" fill="#FFF8DC"/>
<path fill-rule="evenodd" clip-rule="evenodd" d="M4.4876 32.4051C4.76146 32.4051 4.98347 32.6264 4.98347 32.8993V82.3646C4.98347 82.6375 4.76146 82.8588 4.4876 82.8588C4.21374 82.8588 3.99174 82.6375 3.99174 82.3646V32.8993C3.99174 32.6264 4.21374 32.4051 4.4876 32.4051Z" fill="#FFF8DC"/>
<path fill-rule="evenodd" clip-rule="evenodd" d="M33.2507 4.44792C33.2507 4.72085 33.4727 4.9421 33.7466 4.9421L83.3802 4.9421C83.654 4.94211 83.876 4.72085 83.876 4.44792C83.876 4.17499 83.654 3.95373 83.3802 3.95373L33.7466 3.95373C33.4727 3.95373 33.2507 4.17499 33.2507 4.44792Z" fill="#FFF8DC"/>
<path fill-rule="evenodd" clip-rule="evenodd" d="M3.87328 56.7465C3.87328 56.4736 4.09529 56.2523 4.36915 56.2523C9.87678 56.2523 14.3416 60.702 14.3416 66.191C14.3416 71.6799 9.87678 76.1296 4.36915 76.1296C4.09529 76.1296 3.87328 75.9083 3.87328 75.6354C3.87328 75.3625 4.09529 75.1412 4.36915 75.1412C9.32906 75.1412 13.3499 71.1341 13.3499 66.191C13.3499 61.2479 9.32906 57.2407 4.36915 57.2407C4.09529 57.2407 3.87328 57.0195 3.87328 56.7465ZM3.87328 59.1951C3.87328 58.9222 4.09529 58.7009 4.36915 58.7009C8.51988 58.7009 11.8847 62.0543 11.8847 66.191C11.8847 70.3276 8.51988 73.681 4.36915 73.681C4.09529 73.681 3.87328 73.4598 3.87328 73.1869C3.87328 72.9139 4.09529 72.6927 4.36915 72.6927C7.97215 72.6927 10.893 69.7818 10.893 66.191C10.893 62.6002 7.97215 59.6893 4.36915 59.6893C4.09529 59.6893 3.87328 59.468 3.87328 59.1951ZM3.87328 61.9934C3.87328 61.7205 4.09529 61.4993 4.36915 61.4993C6.96913 61.4993 9.07683 63.5998 9.07683 66.191C9.07683 68.7821 6.96913 70.8827 4.36915 70.8827C4.09529 70.8827 3.87328 70.6614 3.87328 70.3885C3.87328 70.1156 4.09529 69.8943 4.36915 69.8943C6.42141 69.8943 8.08509 68.2363 8.08509 66.191C8.08509 64.1457 6.42141 62.4876 4.36915 62.4876C4.09529 62.4876 3.87328 62.2664 3.87328 61.9934Z" fill="#FFF8DC"/>
<path fill-rule="evenodd" clip-rule="evenodd" d="M57.6749 3.83568C57.4011 3.83568 57.1791 4.05693 57.1791 4.32986C57.1791 9.81882 61.6439 14.2685 67.1515 14.2685C72.6591 14.2685 77.124 9.81882 77.124 4.32986C77.124 4.05693 76.902 3.83568 76.6281 3.83568C76.3542 3.83568 76.1322 4.05693 76.1322 4.32986C76.1322 9.27295 72.1114 13.2801 67.1515 13.2801C62.1916 13.2801 58.1708 9.27295 58.1708 4.32986C58.1708 4.05693 57.9488 3.83568 57.6749 3.83568ZM60.1318 3.83568C59.858 3.83568 59.636 4.05693 59.636 4.32986C59.636 8.46651 63.0008 11.8199 67.1515 11.8199C71.3022 11.8199 74.6671 8.46651 74.6671 4.32986C74.6671 4.05693 74.4451 3.83568 74.1712 3.83568C73.8973 3.83568 73.6753 4.05693 73.6753 4.32986C73.6753 7.92065 70.7545 10.8316 67.1515 10.8316C63.5485 10.8316 60.6277 7.92065 60.6277 4.32986C60.6277 4.05693 60.4057 3.83568 60.1318 3.83568ZM62.9397 3.83568C62.6658 3.83568 62.4438 4.05693 62.4438 4.32986C62.4438 6.92103 64.5515 9.02158 67.1515 9.02158C69.7515 9.02158 71.8592 6.92103 71.8592 4.32986C71.8592 4.05693 71.6372 3.83568 71.3633 3.83568C71.0895 3.83568 70.8675 4.05693 70.8675 4.32986C70.8675 6.37516 69.2038 8.03321 67.1515 8.03321C65.0993 8.03321 63.4356 6.37516 63.4356 4.32986C63.4356 4.05693 63.2136 3.83568 62.9397 3.83568Z" fill="#FFF8DC"/>
<path fill-rule="evenodd" clip-rule="evenodd" d="M4.36915 85.9804C5.12987 85.9804 5.74656 85.3658 5.74656 84.6076C5.74656 83.8495 5.12987 83.2349 4.36915 83.2349C3.60842 83.2349 2.99174 83.8495 2.99174 84.6076C2.99174 85.3658 3.60842 85.9804 4.36915 85.9804ZM4.36915 86.9688C5.67759 86.9688 6.73829 85.9116 6.73829 84.6076C6.73829 83.3036 5.67759 82.2465 4.36915 82.2465C3.0607 82.2465 2 83.3036 2 84.6076C2 85.9116 3.0607 86.9688 4.36915 86.9688Z" fill="#FFF8DC"/>
<path fill-rule="evenodd" clip-rule="evenodd" d="M87.0083 4.32986C87.0083 5.088 86.3916 5.7026 85.6309 5.7026C84.8701 5.7026 84.2534 5.088 84.2534 4.32986C84.2534 3.57172 84.8701 2.95712 85.6309 2.95712C86.3916 2.95712 87.0083 3.57172 87.0083 4.32986ZM88 4.32986C88 5.63387 86.9393 6.69097 85.6309 6.69097C84.3224 6.69097 83.2617 5.63387 83.2617 4.32986C83.2617 3.02586 84.3224 1.96875 85.6309 1.96875C86.9393 1.96875 88 3.02586 88 4.32986Z" fill="#FFF8DC"/>
<path fill-rule="evenodd" clip-rule="evenodd" d="M19.5654 376.027C22.3643 373.918 26.3658 374.135 28.9173 376.677C31.4688 379.22 31.6865 383.208 29.5703 385.998L19.5654 376.027ZM11.7135 369.599C11.9489 369.365 12.1894 369.138 12.4347 368.92C19.1836 362.918 29.5431 363.145 36.0197 369.599C42.4963 376.054 42.7234 386.378 36.7011 393.104C36.4822 393.349 36.2551 393.588 36.0197 393.823L11.7135 369.599ZM30.2775 386.702C32.7776 383.521 32.558 378.908 29.6186 375.979C26.6792 373.049 22.0501 372.83 18.8582 375.322L15.9442 372.418C20.7514 368.338 27.9762 368.562 32.5183 373.089C37.0604 377.615 37.2848 384.816 33.1915 389.607L30.2775 386.702ZM33.8949 390.308C38.3742 385.129 38.1491 377.303 33.2195 372.39C28.2899 367.477 20.4374 367.253 15.2408 371.717L13.1372 369.62C19.4976 364.004 29.2292 364.23 35.3184 370.298C41.4076 376.367 41.6343 386.065 35.9986 392.404L33.8949 390.308Z" fill="#FFF8DC"/>
<path fill-rule="evenodd" clip-rule="evenodd" d="M3.87328 372.101C3.87328 372.374 4.09529 372.595 4.36915 372.595C11.1899 372.595 16.7107 367.031 16.7107 360.177C16.7107 353.324 11.1899 347.759 4.36915 347.759C4.09529 347.759 3.87328 347.981 3.87328 348.253C3.87328 348.526 4.09529 348.748 4.36915 348.748C10.6329 348.748 15.719 353.86 15.719 360.177C15.719 366.494 10.6329 371.607 4.36915 371.607C4.09529 371.607 3.87328 371.828 3.87328 372.101ZM3.87328 369.009C3.87328 369.282 4.09529 369.504 4.36915 369.504C9.49373 369.504 13.6396 365.323 13.6396 360.177C13.6396 355.031 9.49373 350.851 4.36915 350.851C4.09529 350.851 3.87328 351.072 3.87328 351.345C3.87328 351.618 4.09529 351.839 4.36915 351.839C8.93673 351.839 12.6479 355.567 12.6479 360.177C12.6479 364.787 8.93673 368.515 4.36915 368.515C4.09529 368.515 3.87328 368.736 3.87328 369.009ZM3.87328 365.476C3.87328 365.749 4.09529 365.971 4.36915 365.971C7.5553 365.971 10.1298 363.372 10.1298 360.177C10.1298 356.982 7.5553 354.384 4.36915 354.384C4.09529 354.384 3.87328 354.605 3.87328 354.878C3.87328 355.151 4.09529 355.372 4.36915 355.372C6.9983 355.372 9.13805 357.519 9.13805 360.177C9.13805 362.836 6.9983 364.982 4.36915 364.982C4.09529 364.982 3.87328 365.204 3.87328 365.476Z" fill="#FFF8DC"/>
<path fill-rule="evenodd" clip-rule="evenodd" d="M33.7466 401.164C33.4727 401.164 33.2507 400.943 33.2507 400.67C33.2507 393.873 38.8339 388.37 45.7107 388.37C52.5876 388.37 58.1708 393.873 58.1708 400.67C58.1708 400.943 57.9488 401.164 57.6749 401.164C57.4011 401.164 57.1791 400.943 57.1791 400.67C57.1791 394.428 52.0492 389.359 45.7107 389.359C39.3723 389.359 34.2424 394.428 34.2424 400.67C34.2424 400.943 34.0204 401.164 33.7466 401.164ZM36.8484 401.164C36.5745 401.164 36.3525 400.943 36.3525 400.67C36.3525 395.563 40.547 391.431 45.7107 391.431C50.8745 391.431 55.069 395.563 55.069 400.67C55.069 400.943 54.847 401.164 54.5731 401.164C54.2992 401.164 54.0772 400.943 54.0772 400.67C54.0772 396.118 50.3361 392.419 45.7107 392.419C41.0854 392.419 37.3442 396.118 37.3442 400.67C37.3442 400.943 37.1222 401.164 36.8484 401.164ZM40.3933 401.164C40.1195 401.164 39.8975 400.943 39.8975 400.67C39.8975 397.495 42.5048 394.929 45.7107 394.929C48.9167 394.929 51.524 397.495 51.524 400.67C51.524 400.943 51.302 401.164 51.0282 401.164C50.7543 401.164 50.5323 400.943 50.5323 400.67C50.5323 398.05 48.3783 395.917 45.7107 395.917C43.0432 395.917 40.8892 398.05 40.8892 400.67C40.8892 400.943 40.6672 401.164 40.3933 401.164Z" fill="#FFF8DC"/>
<path fill-rule="evenodd" clip-rule="evenodd" d="M4.4876 372.595C4.76146 372.595 4.98347 372.374 4.98347 372.101V322.635C4.98347 322.362 4.76146 322.141 4.4876 322.141C4.21374 322.141 3.99174 322.362 3.99174 322.635V372.101C3.99174 372.374 4.21374 372.595 4.4876 372.595Z" fill="#FFF8DC"/>
<path fill-rule="evenodd" clip-rule="evenodd" d="M33.2507 400.552C33.2507 400.279 33.4727 400.058 33.7466 400.058L83.3802 400.058C83.654 400.058 83.876 400.279 83.876 400.552C83.876 400.825 83.654 401.046 83.3802 401.046L33.7466 401.046C33.4727 401.046 33.2507 400.825 33.2507 400.552Z" fill="#FFF8DC"/>
<path fill-rule="evenodd" clip-rule="evenodd" d="M3.87328 348.253C3.87328 348.526 4.09529 348.748 4.36915 348.748C9.87678 348.748 14.3416 344.298 14.3416 338.809C14.3416 333.32 9.87678 328.87 4.36915 328.87C4.09529 328.87 3.87328 329.092 3.87328 329.365C3.87328 329.638 4.09529 329.859 4.36915 329.859C9.32906 329.859 13.3499 333.866 13.3499 338.809C13.3499 343.752 9.32906 347.759 4.36915 347.759C4.09529 347.759 3.87328 347.981 3.87328 348.253ZM3.87328 345.805C3.87328 346.078 4.09529 346.299 4.36915 346.299C8.51988 346.299 11.8847 342.946 11.8847 338.809C11.8847 334.672 8.51988 331.319 4.36915 331.319C4.09529 331.319 3.87328 331.54 3.87328 331.813C3.87328 332.086 4.09529 332.307 4.36915 332.307C7.97215 332.307 10.893 335.218 10.893 338.809C10.893 342.4 7.97215 345.311 4.36915 345.311C4.09529 345.311 3.87328 345.532 3.87328 345.805ZM3.87328 343.007C3.87328 343.279 4.09529 343.501 4.36915 343.501C6.96913 343.501 9.07683 341.4 9.07683 338.809C9.07683 336.218 6.96913 334.117 4.36915 334.117C4.09529 334.117 3.87328 334.339 3.87328 334.611C3.87328 334.884 4.09529 335.106 4.36915 335.106C6.42141 335.106 8.08509 336.764 8.08509 338.809C8.08509 340.854 6.42141 342.512 4.36915 342.512C4.09529 342.512 3.87328 342.734 3.87328 343.007Z" fill="#FFF8DC"/>
<path fill-rule="evenodd" clip-rule="evenodd" d="M57.6749 401.164C57.4011 401.164 57.1791 400.943 57.1791 400.67C57.1791 395.181 61.6439 390.732 67.1515 390.732C72.6591 390.732 77.124 395.181 77.124 400.67C77.124 400.943 76.902 401.164 76.6281 401.164C76.3542 401.164 76.1322 400.943 76.1322 400.67C76.1322 395.727 72.1114 391.72 67.1515 391.72C62.1916 391.72 58.1708 395.727 58.1708 400.67C58.1708 400.943 57.9488 401.164 57.6749 401.164ZM60.1318 401.164C59.858 401.164 59.636 400.943 59.636 400.67C59.636 396.533 63.0008 393.18 67.1515 393.18C71.3022 393.18 74.6671 396.533 74.6671 400.67C74.6671 400.943 74.4451 401.164 74.1712 401.164C73.8973 401.164 73.6753 400.943 73.6753 400.67C73.6753 397.079 70.7545 394.168 67.1515 394.168C63.5485 394.168 60.6277 397.079 60.6277 400.67C60.6277 400.943 60.4057 401.164 60.1318 401.164ZM62.9397 401.164C62.6658 401.164 62.4438 400.943 62.4438 400.67C62.4438 398.079 64.5515 395.978 67.1515 395.978C69.7515 395.978 71.8592 398.079 71.8592 400.67C71.8592 400.943 71.6372 401.164 71.3633 401.164C71.0895 401.164 70.8675 400.943 70.8675 400.67C70.8675 398.625 69.2038 396.967 67.1515 396.967C65.0993 396.967 63.4356 398.625 63.4356 400.67C63.4356 400.943 63.2136 401.164 62.9397 401.164Z" fill="#FFF8DC"/>
<path fill-rule="evenodd" clip-rule="evenodd" d="M4.36915 319.02C5.12987 319.02 5.74656 319.634 5.74656 320.392C5.74656 321.151 5.12987 321.765 4.36915 321.765C3.60842 321.765 2.99174 321.151 2.99174 320.392C2.99174 319.634 3.60842 319.02 4.36915 319.02ZM4.36915 318.031C5.67759 318.031 6.73829 319.088 6.73829 320.392C6.73829 321.696 5.67759 322.753 4.36915 322.753C3.0607 322.753 2 321.696 2 320.392C2 319.088 3.0607 318.031 4.36915 318.031Z" fill="#FFF8DC"/>
<path fill-rule="evenodd" clip-rule="evenodd" d="M87.0083 400.67C87.0083 399.912 86.3916 399.297 85.6309 399.297C84.8701 399.297 84.2534 399.912 84.2534 400.67C84.2534 401.428 84.8701 402.043 85.6309 402.043C86.3916 402.043 87.0083 401.428 87.0083 400.67ZM88 400.67C88 399.366 86.9393 398.309 85.6309 398.309C84.3224 398.309 83.2617 399.366 83.2617 400.67C83.2617 401.974 84.3224 403.031 85.6309 403.031C86.9393 403.031 88 401.974 88 400.67Z" fill="#FFF8DC"/>
<path fill-rule="evenodd" clip-rule="evenodd" d="M350.435 28.9733C347.636 31.0823 343.634 30.8654 341.083 28.3226C338.531 25.7797 338.314 21.7917 340.43 19.0024L350.435 28.9733ZM358.286 35.4008C358.051 35.6354 357.811 35.8618 357.565 36.0799C350.816 42.0818 340.457 41.8554 333.98 35.4008C327.504 28.9462 327.277 18.6218 333.299 11.8958C333.518 11.6514 333.745 11.4117 333.98 11.1771L358.286 35.4008ZM339.722 18.2975C337.222 21.4786 337.442 26.0921 340.381 29.0214C343.321 31.9508 347.95 32.1697 351.142 29.6782L354.056 32.5822C349.249 36.6616 342.024 36.438 337.482 31.9113C332.94 27.3846 332.715 20.1843 336.808 15.3934L339.722 18.2975ZM336.105 14.6924C331.626 19.8714 331.851 27.6973 336.78 32.6102C341.71 37.523 349.563 37.7474 354.759 33.2832L356.863 35.3798C350.502 40.9964 340.771 40.7705 334.682 34.7019C328.592 28.6334 328.366 18.9347 334.001 12.5959L336.105 14.6924Z" fill="#FFF8DC"/>
<path fill-rule="evenodd" clip-rule="evenodd" d="M366.127 32.8993C366.127 32.6264 365.905 32.4051 365.631 32.4051C358.81 32.4051 353.289 37.9694 353.289 44.8229C353.289 51.6764 358.81 57.2407 365.631 57.2407C365.905 57.2407 366.127 57.0195 366.127 56.7465C366.127 56.4736 365.905 56.2523 365.631 56.2523C359.367 56.2523 354.281 51.1399 354.281 44.8229C354.281 38.506 359.367 33.3935 365.631 33.3935C365.905 33.3935 366.127 33.1722 366.127 32.8993ZM366.127 35.9906C366.127 35.7177 365.905 35.4964 365.631 35.4964C360.506 35.4964 356.36 39.6767 356.36 44.8229C356.36 49.9691 360.506 54.1494 365.631 54.1494C365.905 54.1494 366.127 53.9282 366.127 53.6552C366.127 53.3823 365.905 53.161 365.631 53.161C361.063 53.161 357.352 49.4326 357.352 44.8229C357.352 40.2133 361.063 36.4848 365.631 36.4848C365.905 36.4848 366.127 36.2635 366.127 35.9906ZM366.127 39.5235C366.127 39.2506 365.905 39.0293 365.631 39.0293C362.445 39.0293 359.87 41.6279 359.87 44.8229C359.87 48.018 362.445 50.6165 365.631 50.6165C365.905 50.6165 366.127 50.3952 366.127 50.1223C366.127 49.8494 365.905 49.6281 365.631 49.6281C363.002 49.6281 360.862 47.4814 360.862 44.8229C360.862 42.1644 363.002 40.0177 365.631 40.0177C365.905 40.0177 366.127 39.7965 366.127 39.5235Z" fill="#FFF8DC"/>
<path fill-rule="evenodd" clip-rule="evenodd" d="M336.253 3.83567C336.527 3.83567 336.749 4.05693 336.749 4.32986C336.749 11.1274 331.166 16.6296 324.289 16.6296C317.412 16.6296 311.829 11.1274 311.829 4.32986C311.829 4.05693 312.051 3.83568 312.325 3.83568C312.599 3.83568 312.821 4.05693 312.821 4.32986C312.821 10.5723 317.951 15.6412 324.289 15.6412C330.628 15.6412 335.758 10.5723 335.758 4.32986C335.758 4.05693 335.98 3.83567 336.253 3.83567ZM333.152 3.83568C333.425 3.83568 333.647 4.05693 333.647 4.32986C333.647 9.43707 329.453 13.5689 324.289 13.5689C319.126 13.5689 314.931 9.43707 314.931 4.32986C314.931 4.05693 315.153 3.83568 315.427 3.83568C315.701 3.83568 315.923 4.05693 315.923 4.32986C315.923 8.88196 319.664 12.5805 324.289 12.5805C328.915 12.5805 332.656 8.88196 332.656 4.32986C332.656 4.05693 332.878 3.83568 333.152 3.83568ZM329.607 3.83568C329.881 3.83568 330.103 4.05693 330.103 4.32986C330.103 7.50521 327.495 10.071 324.289 10.071C321.083 10.071 318.476 7.50521 318.476 4.32986C318.476 4.05693 318.698 3.83568 318.972 3.83568C319.246 3.83568 319.468 4.05693 319.468 4.32986C319.468 6.9501 321.622 9.08259 324.289 9.08259C326.957 9.08259 329.111 6.9501 329.111 4.32986C329.111 4.05693 329.333 3.83568 329.607 3.83568Z" fill="#FFF8DC"/>
<path fill-rule="evenodd" clip-rule="evenodd" d="M365.512 32.4051C365.239 32.4051 365.017 32.6264 365.017 32.8993V82.3646C365.017 82.6375 365.239 82.8588 365.512 82.8588C365.786 82.8588 366.008 82.6375 366.008 82.3646V32.8993C366.008 32.6264 365.786 32.4051 365.512 32.4051Z" fill="#FFF8DC"/>
<path fill-rule="evenodd" clip-rule="evenodd" d="M336.749 4.44792C336.749 4.72085 336.527 4.9421 336.253 4.9421L286.62 4.9421C286.346 4.94211 286.124 4.72085 286.124 4.44792C286.124 4.17499 286.346 3.95373 286.62 3.95373L336.253 3.95373C336.527 3.95373 336.749 4.17499 336.749 4.44792Z" fill="#FFF8DC"/>
<path fill-rule="evenodd" clip-rule="evenodd" d="M366.127 56.7465C366.127 56.4736 365.905 56.2523 365.631 56.2523C360.123 56.2523 355.658 60.702 355.658 66.191C355.658 71.6799 360.123 76.1296 365.631 76.1296C365.905 76.1296 366.127 75.9083 366.127 75.6354C366.127 75.3625 365.905 75.1412 365.631 75.1412C360.671 75.1412 356.65 71.1341 356.65 66.191C356.65 61.2479 360.671 57.2407 365.631 57.2407C365.905 57.2407 366.127 57.0195 366.127 56.7465ZM366.127 59.1951C366.127 58.9222 365.905 58.7009 365.631 58.7009C361.48 58.7009 358.115 62.0543 358.115 66.191C358.115 70.3276 361.48 73.681 365.631 73.681C365.905 73.681 366.127 73.4598 366.127 73.1869C366.127 72.9139 365.905 72.6927 365.631 72.6927C362.028 72.6927 359.107 69.7818 359.107 66.191C359.107 62.6002 362.028 59.6893 365.631 59.6893C365.905 59.6893 366.127 59.468 366.127 59.1951ZM366.127 61.9934C366.127 61.7205 365.905 61.4993 365.631 61.4993C363.031 61.4993 360.923 63.5998 360.923 66.191C360.923 68.7821 363.031 70.8827 365.631 70.8827C365.905 70.8827 366.127 70.6614 366.127 70.3885C366.127 70.1156 365.905 69.8943 365.631 69.8943C363.579 69.8943 361.915 68.2363 361.915 66.191C361.915 64.1457 363.579 62.4876 365.631 62.4876C365.905 62.4876 366.127 62.2664 366.127 61.9934Z" fill="#FFF8DC"/>
<path fill-rule="evenodd" clip-rule="evenodd" d="M312.325 3.83568C312.599 3.83568 312.821 4.05693 312.821 4.32986C312.821 9.81882 308.356 14.2685 302.848 14.2685C297.341 14.2685 292.876 9.81882 292.876 4.32986C292.876 4.05693 293.098 3.83568 293.372 3.83568C293.646 3.83568 293.868 4.05693 293.868 4.32986C293.868 9.27295 297.889 13.2801 302.848 13.2801C307.808 13.2801 311.829 9.27295 311.829 4.32986C311.829 4.05693 312.051 3.83568 312.325 3.83568ZM309.868 3.83568C310.142 3.83568 310.364 4.05693 310.364 4.32986C310.364 8.46651 306.999 11.8199 302.848 11.8199C298.698 11.8199 295.333 8.46651 295.333 4.32986C295.333 4.05693 295.555 3.83568 295.829 3.83568C296.103 3.83568 296.325 4.05693 296.325 4.32986C296.325 7.92065 299.245 10.8316 302.848 10.8316C306.451 10.8316 309.372 7.92065 309.372 4.32986C309.372 4.05693 309.594 3.83568 309.868 3.83568ZM307.06 3.83568C307.334 3.83568 307.556 4.05693 307.556 4.32986C307.556 6.92103 305.448 9.02158 302.848 9.02158C300.249 9.02158 298.141 6.92103 298.141 4.32986C298.141 4.05693 298.363 3.83568 298.637 3.83568C298.911 3.83568 299.133 4.05693 299.133 4.32986C299.133 6.37516 300.796 8.03321 302.848 8.03321C304.901 8.03321 306.564 6.37516 306.564 4.32986C306.564 4.05693 306.786 3.83568 307.06 3.83568Z" fill="#FFF8DC"/>
<path fill-rule="evenodd" clip-rule="evenodd" d="M365.631 85.9804C364.87 85.9804 364.253 85.3658 364.253 84.6076C364.253 83.8495 364.87 83.2349 365.631 83.2349C366.392 83.2349 367.008 83.8495 367.008 84.6076C367.008 85.3658 366.392 85.9804 365.631 85.9804ZM365.631 86.9688C364.322 86.9688 363.262 85.9116 363.262 84.6076C363.262 83.3036 364.322 82.2465 365.631 82.2465C366.939 82.2465 368 83.3036 368 84.6076C368 85.9116 366.939 86.9688 365.631 86.9688Z" fill="#FFF8DC"/>
<path fill-rule="evenodd" clip-rule="evenodd" d="M282.992 4.32986C282.992 5.088 283.608 5.7026 284.369 5.7026C285.13 5.7026 285.747 5.088 285.747 4.32986C285.747 3.57172 285.13 2.95712 284.369 2.95712C283.608 2.95712 282.992 3.57172 282.992 4.32986ZM282 4.32986C282 5.63387 283.061 6.69097 284.369 6.69097C285.678 6.69097 286.738 5.63387 286.738 4.32986C286.738 3.02586 285.678 1.96875 284.369 1.96875C283.061 1.96875 282 3.02586 282 4.32986Z" fill="#FFF8DC"/>
<path fill-rule="evenodd" clip-rule="evenodd" d="M350.435 376.027C347.636 373.918 343.634 374.135 341.083 376.677C338.531 379.22 338.314 383.208 340.43 385.998L350.435 376.027ZM358.286 369.599C358.051 369.365 357.811 369.138 357.565 368.92C350.816 362.918 340.457 363.145 333.98 369.599C327.504 376.054 327.277 386.378 333.299 393.104C333.518 393.349 333.745 393.588 333.98 393.823L358.286 369.599ZM339.722 386.702C337.222 383.521 337.442 378.908 340.381 375.979C343.321 373.049 347.95 372.83 351.142 375.322L354.056 372.418C349.249 368.338 342.024 368.562 337.482 373.089C332.94 377.615 332.715 384.816 336.808 389.607L339.722 386.702ZM336.105 390.308C331.626 385.129 331.851 377.303 336.78 372.39C341.71 367.477 349.563 367.253 354.759 371.717L356.863 369.62C350.502 364.004 340.771 364.23 334.682 370.298C328.592 376.367 328.366 386.065 334.001 392.404L336.105 390.308Z" fill="#FFF8DC"/>
<path fill-rule="evenodd" clip-rule="evenodd" d="M366.127 372.101C366.127 372.374 365.905 372.595 365.631 372.595C358.81 372.595 353.289 367.031 353.289 360.177C353.289 353.324 358.81 347.759 365.631 347.759C365.905 347.759 366.127 347.981 366.127 348.253C366.127 348.526 365.905 348.748 365.631 348.748C359.367 348.748 354.281 353.86 354.281 360.177C354.281 366.494 359.367 371.607 365.631 371.607C365.905 371.607 366.127 371.828 366.127 372.101ZM366.127 369.009C366.127 369.282 365.905 369.504 365.631 369.504C360.506 369.504 356.36 365.323 356.36 360.177C356.36 355.031 360.506 350.851 365.631 350.851C365.905 350.851 366.127 351.072 366.127 351.345C366.127 351.618 365.905 351.839 365.631 351.839C361.063 351.839 357.352 355.567 357.352 360.177C357.352 364.787 361.063 368.515 365.631 368.515C365.905 368.515 366.127 368.736 366.127 369.009ZM366.127 365.476C366.127 365.749 365.905 365.971 365.631 365.971C362.445 365.971 359.87 363.372 359.87 360.177C359.87 356.982 362.445 354.384 365.631 354.384C365.905 354.384 366.127 354.605 366.127 354.878C366.127 355.151 365.905 355.372 365.631 355.372C363.002 355.372 360.862 357.519 360.862 360.177C360.862 362.836 363.002 364.982 365.631 364.982C365.905 364.982 366.127 365.204 366.127 365.476Z" fill="#FFF8DC"/>
<path fill-rule="evenodd" clip-rule="evenodd" d="M336.253 401.164C336.527 401.164 336.749 400.943 336.749 400.67C336.749 393.873 331.166 388.37 324.289 388.37C317.412 388.37 311.829 393.873 311.829 400.67C311.829 400.943 312.051 401.164 312.325 401.164C312.599 401.164 312.821 400.943 312.821 400.67C312.821 394.428 317.951 389.359 324.289 389.359C330.628 389.359 335.758 394.428 335.758 400.67C335.758 400.943 335.98 401.164 336.253 401.164ZM333.152 401.164C333.425 401.164 333.647 400.943 333.647 400.67C333.647 395.563 329.453 391.431 324.289 391.431C319.126 391.431 314.931 395.563 314.931 400.67C314.931 400.943 315.153 401.164 315.427 401.164C315.701 401.164 315.923 400.943 315.923 400.67C315.923 396.118 319.664 392.419 324.289 392.419C328.915 392.419 332.656 396.118 332.656 400.67C332.656 400.943 332.878 401.164 333.152 401.164ZM329.607 401.164C329.881 401.164 330.103 400.943 330.103 400.67C330.103 397.495 327.495 394.929 324.289 394.929C321.083 394.929 318.476 397.495 318.476 400.67C318.476 400.943 318.698 401.164 318.972 401.164C319.246 401.164 319.468 400.943 319.468 400.67C319.468 398.05 321.622 395.917 324.289 395.917C326.957 395.917 329.111 398.05 329.111 400.67C329.111 400.943 329.333 401.164 329.607 401.164Z" fill="#FFF8DC"/>
<path fill-rule="evenodd" clip-rule="evenodd" d="M365.512 372.595C365.239 372.595 365.017 372.374 365.017 372.101V322.635C365.017 322.362 365.239 322.141 365.512 322.141C365.786 322.141 366.008 322.362 366.008 322.635V372.101C366.008 372.374 365.786 372.595 365.512 372.595Z" fill="#FFF8DC"/>
<path fill-rule="evenodd" clip-rule="evenodd" d="M336.749 400.552C336.749 400.279 336.527 400.058 336.253 400.058L286.62 400.058C286.346 400.058 286.124 400.279 286.124 400.552C286.124 400.825 286.346 401.046 286.62 401.046L336.253 401.046C336.527 401.046 336.749 400.825 336.749 400.552Z" fill="#FFF8DC"/>
<path fill-rule="evenodd" clip-rule="evenodd" d="M366.127 348.253C366.127 348.526 365.905 348.748 365.631 348.748C360.123 348.748 355.658 344.298 355.658 338.809C355.658 333.32 360.123 328.87 365.631 328.87C365.905 328.87 366.127 329.092 366.127 329.365C366.127 329.638 365.905 329.859 365.631 329.859C360.671 329.859 356.65 333.866 356.65 338.809C356.65 343.752 360.671 347.759 365.631 347.759C365.905 347.759 366.127 347.981 366.127 348.253ZM366.127 345.805C366.127 346.078 365.905 346.299 365.631 346.299C361.48 346.299 358.115 342.946 358.115 338.809C358.115 334.672 361.48 331.319 365.631 331.319C365.905 331.319 366.127 331.54 366.127 331.813C366.127 332.086 365.905 332.307 365.631 332.307C362.028 332.307 359.107 335.218 359.107 338.809C359.107 342.4 362.028 345.311 365.631 345.311C365.905 345.311 366.127 345.532 366.127 345.805ZM366.127 343.007C366.127 343.279 365.905 343.501 365.631 343.501C363.031 343.501 360.923 341.4 360.923 338.809C360.923 336.218 363.031 334.117 365.631 334.117C365.905 334.117 366.127 334.339 366.127 334.611C366.127 334.884 365.905 335.106 365.631 335.106C363.579 335.106 361.915 336.764 361.915 338.809C361.915 340.854 363.579 342.512 365.631 342.512C365.905 342.512 366.127 342.734 366.127 343.007Z" fill="#FFF8DC"/>
<path fill-rule="evenodd" clip-rule="evenodd" d="M312.325 401.164C312.599 401.164 312.821 400.943 312.821 400.67C312.821 395.181 308.356 390.732 302.848 390.732C297.341 390.732 292.876 395.181 292.876 400.67C292.876 400.943 293.098 401.164 293.372 401.164C293.646 401.164 293.868 400.943 293.868 400.67C293.868 395.727 297.889 391.72 302.848 391.72C307.808 391.72 311.829 395.727 311.829 400.67C311.829 400.943 312.051 401.164 312.325 401.164ZM309.868 401.164C310.142 401.164 310.364 400.943 310.364 400.67C310.364 396.533 306.999 393.18 302.848 393.18C298.698 393.18 295.333 396.533 295.333 400.67C295.333 400.943 295.555 401.164 295.829 401.164C296.103 401.164 296.325 400.943 296.325 400.67C296.325 397.079 299.245 394.168 302.848 394.168C306.451 394.168 309.372 397.079 309.372 400.67C309.372 400.943 309.594 401.164 309.868 401.164ZM307.06 401.164C307.334 401.164 307.556 400.943 307.556 400.67C307.556 398.079 305.448 395.978 302.848 395.978C300.249 395.978 298.141 398.079 298.141 400.67C298.141 400.943 298.363 401.164 298.637 401.164C298.911 401.164 299.133 400.943 299.133 400.67C299.133 398.625 300.796 396.967 302.848 396.967C304.901 396.967 306.564 398.625 306.564 400.67C306.564 400.943 306.786 401.164 307.06 401.164Z" fill="#FFF8DC"/>
<path fill-rule="evenodd" clip-rule="evenodd" d="M365.631 319.02C364.87 319.02 364.253 319.634 364.253 320.392C364.253 321.151 364.87 321.765 365.631 321.765C366.392 321.765 367.008 321.151 367.008 320.392C367.008 319.634 366.392 319.02 365.631 319.02ZM365.631 318.031C364.322 318.031 363.262 319.088 363.262 320.392C363.262 321.696 364.322 322.753 365.631 322.753C366.939 322.753 368 321.696 368 320.392C368 319.088 366.939 318.031 365.631 318.031Z" fill="#FFF8DC"/>
<path fill-rule="evenodd" clip-rule="evenodd" d="M282.992 400.67C282.992 399.912 283.608 399.297 284.369 399.297C285.13 399.297 285.747 399.912 285.747 400.67C285.747 401.428 285.13 402.043 284.369 402.043C283.608 402.043 282.992 401.428 282.992 400.67ZM282 400.67C282 399.366 283.061 398.309 284.369 398.309C285.678 398.309 286.738 399.366 286.738 400.67C286.738 401.974 285.678 403.031 284.369 403.031C283.061 403.031 282 401.974 282 400.67Z" fill="#FFF8DC"/>
</svg>
