<svg width="142" height="146" viewBox="0 0 142 146" fill="none" xmlns="http://www.w3.org/2000/svg">
<rect x="11" y="13" width="120" height="120" rx="50" fill="#39375E"/>
<path fill-rule="evenodd" clip-rule="evenodd" d="M49.2135 15.5056C25.0122 15.5056 5.39326 35.1246 5.39326 59.3258C5.39326 59.6982 5.09143 60 4.7191 60C4.34677 60 4.04494 59.6982 4.04494 59.3258C4.04494 34.38 24.2676 14.1573 49.2135 14.1573C49.5858 14.1573 49.8876 14.4591 49.8876 14.8315C49.8876 15.2038 49.5858 15.5056 49.2135 15.5056Z" fill="#FFF8DC"/>
<path fill-rule="evenodd" clip-rule="evenodd" d="M47.4322 0C47.8046 0 48.1064 0.301831 48.1064 0.674157C48.1064 4.18607 47.3421 6.71556 46.0239 8.55478C44.7049 10.3952 42.8853 11.4688 40.9204 12.1693C39.1073 12.8157 37.123 13.1593 35.2534 13.483C35.1124 13.5074 34.972 13.5317 34.8324 13.556C32.8081 13.9086 30.9566 14.2616 29.4547 14.9486C19.709 19.4061 11.6978 27.1356 6.75592 36.7772C7.88741 36.9219 8.77554 37.3094 9.44604 37.912C17.0092 23.6168 31.9787 13.8794 49.2135 13.8794C49.5858 13.8794 49.8876 14.1812 49.8876 14.5536C49.8876 14.9259 49.5858 15.2277 49.2135 15.2277C32.2824 15.2277 17.5989 24.9172 10.3541 39.088C10.8452 40.015 11.0411 41.122 11.0985 42.2649C11.1634 43.5585 11.0533 44.981 10.9292 46.3746C10.9133 46.553 10.8972 46.7308 10.8811 46.908C10.7701 48.1336 10.6619 49.3288 10.65 50.4468C10.6364 51.73 10.7524 52.8367 11.0975 53.704C11.9193 55.7695 13.2313 56.9801 14.9595 57.6956C16.725 58.4265 18.9528 58.6517 21.604 58.6517C21.9763 58.6517 22.2781 58.9535 22.2781 59.3258C22.2781 59.6982 21.9763 60 21.604 60H1.56479C1.39411 60 1.23824 59.9366 1.11947 59.832C1.0007 59.9366 0.84484 60 0.674157 60C0.301831 60 0 59.6982 0 59.3258C0 51.3394 1.83238 43.7888 5.09137 37.0924C10.1229 26.7539 18.5552 18.4512 28.8939 13.7224C30.5797 12.9514 32.6043 12.5754 34.6011 12.2277C34.7333 12.2047 34.8654 12.1818 34.9975 12.1589C36.8938 11.8301 38.7684 11.5051 40.4677 10.8993C42.2704 10.2566 43.8198 9.31556 44.928 7.76933C46.0371 6.22192 46.7581 3.99291 46.7581 0.674157C46.7581 0.301831 47.0599 0 47.4322 0ZM1.35235 58.6858C1.41914 58.6637 1.49056 58.6517 1.56479 58.6517H4.20254C4.27487 51.6695 5.92054 45.0645 8.80072 39.1796C8.28675 38.5728 7.47195 38.1446 6.11608 38.0724C3.14791 44.311 1.44544 51.2986 1.35235 58.6858ZM9.54339 40.7604C7.04184 46.2121 5.61905 52.2677 5.55093 58.6517H13.8108C12.0608 57.7691 10.7033 56.3605 9.84469 54.2024C9.4025 53.0909 9.28748 51.7753 9.30175 50.4324C9.31424 49.2563 9.428 48.0021 9.53861 46.7826C9.55463 46.6059 9.57059 46.4299 9.58617 46.255C9.71084 44.8551 9.81144 43.5202 9.75184 42.3325C9.72274 41.7528 9.65605 41.2275 9.54339 40.7604Z" fill="#FFF8DC"/>
<path fill-rule="evenodd" clip-rule="evenodd" d="M92.7865 15.5056C116.988 15.5056 136.607 35.1246 136.607 59.3258C136.607 59.6982 136.909 60 137.281 60C137.653 60 137.955 59.6982 137.955 59.3258C137.955 34.38 117.732 14.1573 92.7865 14.1573C92.4142 14.1573 92.1124 14.4591 92.1124 14.8315C92.1124 15.2038 92.4142 15.5056 92.7865 15.5056Z" fill="#FFF8DC"/>
<path fill-rule="evenodd" clip-rule="evenodd" d="M94.5678 0C94.1954 0 93.8936 0.301831 93.8936 0.674157C93.8936 4.18607 94.6579 6.71556 95.9761 8.55478C97.2951 10.3952 99.1147 11.4688 101.08 12.1693C102.893 12.8157 104.877 13.1593 106.747 13.483C106.888 13.5074 107.028 13.5317 107.168 13.556C109.192 13.9086 111.043 14.2616 112.545 14.9486C122.291 19.4061 130.302 27.1356 135.244 36.7772C134.113 36.9219 133.224 37.3094 132.554 37.912C124.991 23.6168 110.021 13.8794 92.7865 13.8794C92.4142 13.8794 92.1124 14.1812 92.1124 14.5536C92.1124 14.9259 92.4142 15.2277 92.7865 15.2277C109.718 15.2277 124.401 24.9172 131.646 39.088C131.155 40.015 130.959 41.122 130.902 42.2649C130.837 43.5585 130.947 44.981 131.071 46.3746C131.087 46.553 131.103 46.7308 131.119 46.908C131.23 48.1336 131.338 49.3288 131.35 50.4468C131.364 51.73 131.248 52.8367 130.903 53.704C130.081 55.7695 128.769 56.9801 127.041 57.6956C125.275 58.4265 123.047 58.6517 120.396 58.6517C120.024 58.6517 119.722 58.9535 119.722 59.3258C119.722 59.6982 120.024 60 120.396 60H140.435C140.606 60 140.762 59.9366 140.881 59.832C140.999 59.9366 141.155 60 141.326 60C141.698 60 142 59.6982 142 59.3258C142 51.3394 140.168 43.7888 136.909 37.0924C131.877 26.7539 123.445 18.4512 113.106 13.7224C111.42 12.9514 109.396 12.5754 107.399 12.2277C107.267 12.2047 107.135 12.1818 107.003 12.1589C105.106 11.8301 103.232 11.5051 101.532 10.8993C99.7296 10.2566 98.1802 9.31556 97.072 7.76933C95.9629 6.22192 95.2419 3.99291 95.2419 0.674157C95.2419 0.301831 94.9401 0 94.5678 0ZM140.648 58.6858C140.581 58.6637 140.509 58.6517 140.435 58.6517H137.797C137.725 51.6695 136.079 45.0645 133.199 39.1796C133.713 38.5728 134.528 38.1446 135.884 38.0724C138.852 44.311 140.555 51.2986 140.648 58.6858ZM132.457 40.7604C134.958 46.2121 136.381 52.2677 136.449 58.6517H128.189C129.939 57.7691 131.297 56.3605 132.155 54.2024C132.597 53.0909 132.713 51.7753 132.698 50.4324C132.686 49.2563 132.572 48.0021 132.461 46.7826C132.445 46.6059 132.429 46.4299 132.414 46.255C132.289 44.8551 132.189 43.5202 132.248 42.3325C132.277 41.7528 132.344 41.2275 132.457 40.7604Z" fill="#FFF8DC"/>
<path fill-rule="evenodd" clip-rule="evenodd" d="M49.2135 130.494C25.0122 130.494 5.39326 110.875 5.39326 86.6742C5.39326 86.3018 5.09143 86 4.7191 86C4.34677 86 4.04494 86.3018 4.04494 86.6742C4.04494 111.62 24.2676 131.843 49.2135 131.843C49.5858 131.843 49.8876 131.541 49.8876 131.169C49.8876 130.796 49.5858 130.494 49.2135 130.494Z" fill="#FFF8DC"/>
<path fill-rule="evenodd" clip-rule="evenodd" d="M47.4322 146C47.8046 146 48.1064 145.698 48.1064 145.326C48.1064 141.814 47.3421 139.284 46.0239 137.445C44.7049 135.605 42.8853 134.531 40.9204 133.831C39.1073 133.184 37.123 132.841 35.2534 132.517C35.1124 132.493 34.972 132.468 34.8324 132.444C32.8081 132.091 30.9566 131.738 29.4547 131.051C19.709 126.594 11.6978 118.864 6.75592 109.223C7.88741 109.078 8.77554 108.691 9.44604 108.088C17.0092 122.383 31.9787 132.121 49.2135 132.121C49.5858 132.121 49.8876 131.819 49.8876 131.446C49.8876 131.074 49.5858 130.772 49.2135 130.772C32.2824 130.772 17.5989 121.083 10.3541 106.912C10.8452 105.985 11.0411 104.878 11.0985 103.735C11.1634 102.441 11.0533 101.019 10.9292 99.6254C10.9133 99.447 10.8972 99.2692 10.8811 99.092C10.7701 97.8664 10.6619 96.6712 10.65 95.5532C10.6364 94.27 10.7524 93.1633 11.0975 92.296C11.9193 90.2305 13.2313 89.0199 14.9595 88.3044C16.725 87.5735 18.9528 87.3483 21.604 87.3483C21.9763 87.3483 22.2781 87.0465 22.2781 86.6742C22.2781 86.3018 21.9763 86 21.604 86H1.56479C1.39411 86 1.23824 86.0634 1.11947 86.168C1.0007 86.0634 0.84484 86 0.674157 86C0.301831 86 0 86.3018 0 86.6742C0 94.6606 1.83238 102.211 5.09137 108.908C10.1229 119.246 18.5552 127.549 28.8939 132.278C30.5797 133.049 32.6043 133.425 34.6011 133.772C34.7333 133.795 34.8654 133.818 34.9975 133.841C36.8938 134.17 38.7684 134.495 40.4677 135.101C42.2704 135.743 43.8198 136.684 44.928 138.231C46.0371 139.778 46.7581 142.007 46.7581 145.326C46.7581 145.698 47.0599 146 47.4322 146ZM1.35235 87.3142C1.41914 87.3363 1.49056 87.3483 1.56479 87.3483H4.20254C4.27487 94.3305 5.92054 100.936 8.80072 106.82C8.28675 107.427 7.47195 107.855 6.11608 107.928C3.14791 101.689 1.44544 94.7014 1.35235 87.3142ZM9.54339 105.24C7.04184 99.7879 5.61905 93.7323 5.55093 87.3483H13.8108C12.0608 88.2309 10.7033 89.6395 9.84469 91.7976C9.4025 92.9091 9.28748 94.2247 9.30175 95.5676C9.31424 96.7437 9.428 97.9979 9.53861 99.2174C9.55463 99.3941 9.57059 99.5701 9.58617 99.745C9.71084 101.145 9.81144 102.48 9.75184 103.668C9.72274 104.247 9.65605 104.773 9.54339 105.24Z" fill="#FFF8DC"/>
<path fill-rule="evenodd" clip-rule="evenodd" d="M92.7865 130.494C116.988 130.494 136.607 110.875 136.607 86.6742C136.607 86.3018 136.909 86 137.281 86C137.653 86 137.955 86.3018 137.955 86.6742C137.955 111.62 117.732 131.843 92.7865 131.843C92.4142 131.843 92.1124 131.541 92.1124 131.169C92.1124 130.796 92.4142 130.494 92.7865 130.494Z" fill="#FFF8DC"/>
<path fill-rule="evenodd" clip-rule="evenodd" d="M94.5678 146C94.1954 146 93.8936 145.698 93.8936 145.326C93.8936 141.814 94.6579 139.284 95.9761 137.445C97.2951 135.605 99.1147 134.531 101.08 133.831C102.893 133.184 104.877 132.841 106.747 132.517C106.888 132.493 107.028 132.468 107.168 132.444C109.192 132.091 111.043 131.738 112.545 131.051C122.291 126.594 130.302 118.864 135.244 109.223C134.113 109.078 133.224 108.691 132.554 108.088C124.991 122.383 110.021 132.121 92.7865 132.121C92.4142 132.121 92.1124 131.819 92.1124 131.446C92.1124 131.074 92.4142 130.772 92.7865 130.772C109.718 130.772 124.401 121.083 131.646 106.912C131.155 105.985 130.959 104.878 130.902 103.735C130.837 102.441 130.947 101.019 131.071 99.6254C131.087 99.447 131.103 99.2692 131.119 99.092C131.23 97.8664 131.338 96.6712 131.35 95.5532C131.364 94.27 131.248 93.1633 130.903 92.296C130.081 90.2305 128.769 89.0199 127.041 88.3044C125.275 87.5735 123.047 87.3483 120.396 87.3483C120.024 87.3483 119.722 87.0465 119.722 86.6742C119.722 86.3018 120.024 86 120.396 86H140.435C140.606 86 140.762 86.0634 140.881 86.168C140.999 86.0634 141.155 86 141.326 86C141.698 86 142 86.3018 142 86.6742C142 94.6606 140.168 102.211 136.909 108.908C131.877 119.246 123.445 127.549 113.106 132.278C111.42 133.049 109.396 133.425 107.399 133.772C107.267 133.795 107.135 133.818 107.003 133.841C105.106 134.17 103.232 134.495 101.532 135.101C99.7296 135.743 98.1802 136.684 97.072 138.231C95.9629 139.778 95.2419 142.007 95.2419 145.326C95.2419 145.698 94.9401 146 94.5678 146ZM140.648 87.3142C140.581 87.3363 140.509 87.3483 140.435 87.3483H137.797C137.725 94.3305 136.079 100.936 133.199 106.82C133.713 107.427 134.528 107.855 135.884 107.928C138.852 101.689 140.555 94.7014 140.648 87.3142ZM132.457 105.24C134.958 99.7879 136.381 93.7323 136.449 87.3483H128.189C129.939 88.2309 131.297 89.6395 132.155 91.7976C132.597 92.9091 132.713 94.2247 132.698 95.5676C132.686 96.7437 132.572 97.9979 132.461 99.2174C132.445 99.3941 132.429 99.5701 132.414 99.745C132.289 101.145 132.189 102.48 132.248 103.668C132.277 104.247 132.344 104.773 132.457 105.24Z" fill="#FFF8DC"/>
</svg>
