<svg width="142" height="146" viewBox="0 0 142 146" fill="none" xmlns="http://www.w3.org/2000/svg">
<rect x="11" y="13" width="120" height="120" rx="50" fill="#39375E"/>
<path fill-rule="evenodd" clip-rule="evenodd" d="M59.3423 17.3297C36.1394 17.3297 17.3297 36.1394 17.3297 59.3423C17.3297 59.6992 17.0403 59.9885 16.6834 59.9885C16.3265 59.9885 16.0371 59.6992 16.0371 59.3423C16.0371 35.4255 35.4255 16.0371 59.3423 16.0371C59.6992 16.0371 59.9885 16.3265 59.9885 16.6834C59.9885 17.0403 59.6992 17.3297 59.3423 17.3297Z" fill="#FFF8DC"/>
<path fill-rule="evenodd" clip-rule="evenodd" d="M59.0632 0C59.4202 0 59.7095 0.289342 59.7095 0.646264C59.7095 10.8792 53.5804 17.485 45.6829 18.6062C42.1868 19.1026 39.6054 18.6861 37.2355 18.1561C36.8251 18.0643 36.4238 17.97 36.0271 17.8768C34.1274 17.4303 32.3343 17.0089 30.1547 17.0089C28.465 17.0089 26.7923 18.0632 25.6765 19.5218C24.5446 21.0014 24.1491 22.6685 24.6511 23.7981C24.7597 24.0424 24.7066 24.3284 24.5175 24.5175C24.3284 24.7066 24.0424 24.7597 23.7981 24.6511C22.687 24.1573 21.0278 24.6 19.5363 25.8103C18.07 27.0002 17.009 28.7491 17.009 30.4452C17.009 32.6248 17.4303 34.4179 17.8768 36.3176C17.97 36.7143 18.0643 37.1156 18.1561 37.526C18.6861 39.8959 19.1026 42.4773 18.6062 45.9734C17.485 53.8709 10.8792 60 0.646264 60C0.289342 60 0 59.7107 0 59.3537C0 58.9968 0.289342 58.7075 0.646264 58.7075C10.2994 58.7075 16.3044 52.9907 17.3266 45.7917C17.7924 42.5104 17.4071 40.0995 16.8947 37.8081C16.8085 37.4226 16.7178 37.0377 16.6266 36.6508C16.1775 34.7446 15.7164 32.7876 15.7164 30.4452C15.7164 28.2392 17.061 26.1543 18.7219 24.8066C20.0162 23.7564 21.6575 23.0371 23.166 23.1737C23.0065 21.6767 23.6531 20.0395 24.6499 18.7364C25.9265 17.0677 27.9423 15.7164 30.1547 15.7164C32.4971 15.7164 34.4541 16.1775 36.3603 16.6266C36.7472 16.7178 37.1321 16.8085 37.5176 16.8947C39.809 17.4071 42.2199 17.7924 45.5012 17.3266C52.7002 16.3044 58.417 10.2994 58.417 0.646264C58.417 0.289342 58.7063 0 59.0632 0Z" fill="#FFF8DC"/>
<path fill-rule="evenodd" clip-rule="evenodd" d="M82.6577 17.3297C105.861 17.3297 124.67 36.1394 124.67 59.3423C124.67 59.6992 124.96 59.9885 125.317 59.9885C125.674 59.9885 125.963 59.6992 125.963 59.3423C125.963 35.4255 106.574 16.0371 82.6577 16.0371C82.3008 16.0371 82.0115 16.3265 82.0115 16.6834C82.0115 17.0403 82.3008 17.3297 82.6577 17.3297Z" fill="#FFF8DC"/>
<path fill-rule="evenodd" clip-rule="evenodd" d="M82.9368 0C82.5798 0 82.2905 0.289342 82.2905 0.646264C82.2905 10.8792 88.4196 17.485 96.3171 18.6062C99.8132 19.1026 102.395 18.6861 104.764 18.1561C105.175 18.0643 105.576 17.97 105.973 17.8768C107.873 17.4303 109.666 17.0089 111.845 17.0089C113.535 17.0089 115.208 18.0632 116.323 19.5218C117.455 21.0014 117.851 22.6685 117.349 23.7981C117.24 24.0424 117.293 24.3284 117.482 24.5175C117.672 24.7066 117.958 24.7597 118.202 24.6511C119.313 24.1573 120.972 24.6 122.464 25.8103C123.93 27.0002 124.991 28.7491 124.991 30.4452C124.991 32.6248 124.57 34.4179 124.123 36.3176C124.03 36.7143 123.936 37.1156 123.844 37.526C123.314 39.8959 122.897 42.4773 123.394 45.9734C124.515 53.8709 131.121 60 141.354 60C141.711 60 142 59.7107 142 59.3537C142 58.9968 141.711 58.7075 141.354 58.7075C131.701 58.7075 125.696 52.9907 124.673 45.7917C124.208 42.5104 124.593 40.0995 125.105 37.8081C125.192 37.4226 125.282 37.0377 125.373 36.6508C125.822 34.7446 126.284 32.7876 126.284 30.4452C126.284 28.2392 124.939 26.1543 123.278 24.8066C121.984 23.7564 120.343 23.0371 118.834 23.1737C118.994 21.6767 118.347 20.0395 117.35 18.7364C116.074 17.0677 114.058 15.7164 111.845 15.7164C109.503 15.7164 107.546 16.1775 105.64 16.6266C105.253 16.7178 104.868 16.8085 104.482 16.8947C102.191 17.4071 99.7801 17.7924 96.4988 17.3266C89.2998 16.3044 83.583 10.2994 83.583 0.646264C83.583 0.289342 83.2937 0 82.9368 0Z" fill="#FFF8DC"/>
<path fill-rule="evenodd" clip-rule="evenodd" d="M59.3423 128.67C36.1394 128.67 17.3297 109.861 17.3297 86.6577C17.3297 86.3008 17.0403 86.0115 16.6834 86.0115C16.3265 86.0115 16.0371 86.3008 16.0371 86.6577C16.0371 110.574 35.4255 129.963 59.3423 129.963C59.6992 129.963 59.9885 129.674 59.9885 129.317C59.9885 128.96 59.6992 128.67 59.3423 128.67Z" fill="#FFF8DC"/>
<path fill-rule="evenodd" clip-rule="evenodd" d="M59.0632 146C59.4202 146 59.7095 145.711 59.7095 145.354C59.7095 135.121 53.5804 128.515 45.6829 127.394C42.1868 126.897 39.6054 127.314 37.2355 127.844C36.8251 127.936 36.4238 128.03 36.0271 128.123C34.1274 128.57 32.3343 128.991 30.1547 128.991C28.465 128.991 26.7923 127.937 25.6765 126.478C24.5446 124.999 24.1491 123.332 24.6511 122.202C24.7597 121.958 24.7066 121.672 24.5175 121.482C24.3284 121.293 24.0424 121.24 23.7981 121.349C22.687 121.843 21.0278 121.4 19.5363 120.19C18.07 119 17.009 117.251 17.009 115.555C17.009 113.375 17.4303 111.582 17.8768 109.682C17.97 109.286 18.0643 108.884 18.1561 108.474C18.6861 106.104 19.1026 103.523 18.6062 100.027C17.485 92.1291 10.8792 86 0.646264 86C0.289342 86 0 86.2893 0 86.6463C0 87.0032 0.289342 87.2925 0.646264 87.2925C10.2994 87.2925 16.3044 93.0093 17.3266 100.208C17.7924 103.49 17.4071 105.901 16.8947 108.192C16.8085 108.577 16.7178 108.962 16.6266 109.349C16.1775 111.255 15.7164 113.212 15.7164 115.555C15.7164 117.761 17.061 119.846 18.7219 121.193C20.0162 122.244 21.6575 122.963 23.166 122.826C23.0065 124.323 23.6531 125.961 24.6499 127.264C25.9265 128.932 27.9423 130.284 30.1547 130.284C32.4971 130.284 34.4541 129.822 36.3603 129.373C36.7472 129.282 37.1321 129.192 37.5176 129.105C39.809 128.593 42.2199 128.208 45.5012 128.673C52.7002 129.696 58.417 135.701 58.417 145.354C58.417 145.711 58.7063 146 59.0632 146Z" fill="#FFF8DC"/>
<path fill-rule="evenodd" clip-rule="evenodd" d="M82.6577 128.67C105.861 128.67 124.67 109.861 124.67 86.6577C124.67 86.3008 124.96 86.0115 125.317 86.0115C125.674 86.0115 125.963 86.3008 125.963 86.6577C125.963 110.574 106.574 129.963 82.6577 129.963C82.3008 129.963 82.0115 129.674 82.0115 129.317C82.0115 128.96 82.3008 128.67 82.6577 128.67Z" fill="#FFF8DC"/>
<path fill-rule="evenodd" clip-rule="evenodd" d="M82.9368 146C82.5798 146 82.2905 145.711 82.2905 145.354C82.2905 135.121 88.4196 128.515 96.3171 127.394C99.8132 126.897 102.395 127.314 104.764 127.844C105.175 127.936 105.576 128.03 105.973 128.123C107.873 128.57 109.666 128.991 111.845 128.991C113.535 128.991 115.208 127.937 116.323 126.478C117.455 124.999 117.851 123.332 117.349 122.202C117.24 121.958 117.293 121.672 117.482 121.482C117.672 121.293 117.958 121.24 118.202 121.349C119.313 121.843 120.972 121.4 122.464 120.19C123.93 119 124.991 117.251 124.991 115.555C124.991 113.375 124.57 111.582 124.123 109.682C124.03 109.286 123.936 108.884 123.844 108.474C123.314 106.104 122.897 103.523 123.394 100.027C124.515 92.1291 131.121 86 141.354 86C141.711 86 142 86.2893 142 86.6463C142 87.0032 141.711 87.2925 141.354 87.2925C131.701 87.2925 125.696 93.0093 124.673 100.208C124.208 103.49 124.593 105.901 125.105 108.192C125.192 108.577 125.282 108.962 125.373 109.349C125.822 111.255 126.284 113.212 126.284 115.555C126.284 117.761 124.939 119.846 123.278 121.193C121.984 122.244 120.343 122.963 118.834 122.826C118.994 124.323 118.347 125.961 117.35 127.264C116.074 128.932 114.058 130.284 111.845 130.284C109.503 130.284 107.546 129.822 105.64 129.373C105.253 129.282 104.868 129.192 104.482 129.105C102.191 128.593 99.7801 128.208 96.4988 128.673C89.2998 129.696 83.583 135.701 83.583 145.354C83.583 145.711 83.2937 146 82.9368 146Z" fill="#FFF8DC"/>
</svg>
