<svg width="142" height="146" viewBox="0 0 142 146" fill="none" xmlns="http://www.w3.org/2000/svg">
<rect x="11" y="13" width="120" height="120" rx="50" fill="#39375E"/>
<path fill-rule="evenodd" clip-rule="evenodd" d="M70.9756 11.7073C44.7084 11.7073 23.4146 33.0011 23.4146 59.2683C23.4146 59.6724 23.087 60 22.6829 60C22.2788 60 21.9512 59.6724 21.9512 59.2683C21.9512 32.1929 43.9002 10.2439 70.9756 10.2439C71.3797 10.2439 71.7073 10.5715 71.7073 10.9756C71.7073 11.3797 71.3797 11.7073 70.9756 11.7073Z" fill="#FFF8DC"/>
<path fill-rule="evenodd" clip-rule="evenodd" d="M70.9756 0C71.3797 0 71.7073 0.327597 71.7073 0.731707C71.7073 4.15099 69.652 6.7603 67.2403 8.59486C64.8253 10.4319 61.946 11.5805 60.0179 12.0828C59.7163 12.1614 59.398 12.0402 59.2249 11.781C58.8762 11.2587 58.0966 10.7246 56.8715 10.378C55.6668 10.0373 54.114 9.90364 52.3474 10.1061C48.8212 10.5102 44.492 12.2484 40.4884 16.2464C34.3209 22.4055 26.2742 29.3158 22.3294 32.5791L25.3412 34.4589C25.5597 34.5953 25.6904 34.8365 25.6853 35.094C25.6802 35.3516 25.5401 35.5875 25.3164 35.7151C24.1713 36.3686 23.6769 37.2988 23.505 38.214C23.3278 39.1579 23.4975 40.0858 23.701 40.6277C23.7854 40.8524 23.7542 41.1042 23.6175 41.3015C23.4808 41.4989 23.256 41.6166 23.016 41.6166C22.5458 41.6166 21.506 41.9714 20.3707 43.0485C19.2632 44.0992 18.118 45.7937 17.4241 48.3343C16.6854 51.0392 15.5483 53.9869 13.0283 56.2454C10.4954 58.5154 6.66833 60 0.731707 60C0.327596 60 0 59.6724 0 59.2683C0 58.8642 0.327596 58.5366 0.731707 58.5366C6.42167 58.5366 9.86125 57.1186 12.0516 55.1556C14.2549 53.181 15.2978 50.5654 16.0124 47.9487C16.7719 45.1678 18.0489 43.234 19.3635 41.9868C20.2853 41.1123 21.2561 40.5499 22.094 40.3011C21.9571 39.6229 21.907 38.7947 22.0667 37.944C22.2516 36.9595 22.7194 35.9457 23.6412 35.123L20.6908 33.2815C20.4906 33.1565 20.363 32.9427 20.348 32.7072C20.333 32.4717 20.4325 32.2434 20.6153 32.0941C24.1593 29.1985 32.8905 21.7657 39.4544 15.2109C43.6863 10.9848 48.3193 9.09471 52.1808 8.6522C54.108 8.43135 55.8555 8.56983 57.2698 8.96986C58.4399 9.30081 59.4439 9.82982 60.1029 10.5407C61.8706 10.0218 64.3082 8.98656 66.3543 7.43013C68.5852 5.73314 70.2439 3.50473 70.2439 0.731707C70.2439 0.327597 70.5715 0 70.9756 0Z" fill="#FFF8DC"/>
<path fill-rule="evenodd" clip-rule="evenodd" d="M71.0244 11.7073C97.2916 11.7073 118.585 33.0011 118.585 59.2683C118.585 59.6724 118.913 60 119.317 60C119.721 60 120.049 59.6724 120.049 59.2683C120.049 32.1929 98.0998 10.2439 71.0244 10.2439C70.6203 10.2439 70.2927 10.5715 70.2927 10.9756C70.2927 11.3797 70.6203 11.7073 71.0244 11.7073Z" fill="#FFF8DC"/>
<path fill-rule="evenodd" clip-rule="evenodd" d="M71.0244 0C70.6203 0 70.2927 0.327597 70.2927 0.731707C70.2927 4.15099 72.348 6.7603 74.7597 8.59486C77.1747 10.4319 80.054 11.5805 81.9821 12.0828C82.2837 12.1614 82.602 12.0402 82.7751 11.781C83.1238 11.2587 83.9034 10.7246 85.1285 10.378C86.3332 10.0373 87.886 9.90364 89.6526 10.1061C93.1788 10.5102 97.508 12.2484 101.512 16.2464C107.679 22.4055 115.726 29.3158 119.671 32.5791L116.659 34.4589C116.44 34.5953 116.31 34.8365 116.315 35.094C116.32 35.3516 116.46 35.5875 116.684 35.7151C117.829 36.3686 118.323 37.2988 118.495 38.214C118.672 39.1579 118.502 40.0858 118.299 40.6277C118.215 40.8524 118.246 41.1042 118.383 41.3015C118.519 41.4989 118.744 41.6166 118.984 41.6166C119.454 41.6166 120.494 41.9714 121.629 43.0485C122.737 44.0992 123.882 45.7937 124.576 48.3343C125.315 51.0392 126.452 53.9869 128.972 56.2454C131.505 58.5154 135.332 60 141.268 60C141.672 60 142 59.6724 142 59.2683C142 58.8642 141.672 58.5366 141.268 58.5366C135.578 58.5366 132.139 57.1186 129.948 55.1556C127.745 53.181 126.702 50.5654 125.988 47.9487C125.228 45.1678 123.951 43.234 122.636 41.9868C121.715 41.1123 120.744 40.5499 119.906 40.3011C120.043 39.6229 120.093 38.7947 119.933 37.944C119.748 36.9595 119.281 35.9457 118.359 35.123L121.309 33.2815C121.509 33.1565 121.637 32.9427 121.652 32.7072C121.667 32.4717 121.567 32.2434 121.385 32.0941C117.841 29.1985 109.109 21.7657 102.546 15.2109C98.3137 10.9848 93.6807 9.09471 89.8192 8.6522C87.892 8.43135 86.1445 8.56983 84.7302 8.96986C83.5601 9.30081 82.5561 9.82982 81.8971 10.5407C80.1294 10.0218 77.6918 8.98656 75.6457 7.43013C73.4148 5.73314 71.7561 3.50473 71.7561 0.731707C71.7561 0.327597 71.4285 0 71.0244 0Z" fill="#FFF8DC"/>
<path fill-rule="evenodd" clip-rule="evenodd" d="M70.9756 134.293C44.7084 134.293 23.4146 112.999 23.4146 86.7317C23.4146 86.3276 23.087 86 22.6829 86C22.2788 86 21.9512 86.3276 21.9512 86.7317C21.9512 113.807 43.9002 135.756 70.9756 135.756C71.3797 135.756 71.7073 135.429 71.7073 135.024C71.7073 134.62 71.3797 134.293 70.9756 134.293Z" fill="#FFF8DC"/>
<path fill-rule="evenodd" clip-rule="evenodd" d="M70.9756 146C71.3797 146 71.7073 145.672 71.7073 145.268C71.7073 141.849 69.652 139.24 67.2403 137.405C64.8253 135.568 61.946 134.419 60.0179 133.917C59.7163 133.839 59.398 133.96 59.2249 134.219C58.8762 134.741 58.0966 135.275 56.8715 135.622C55.6668 135.963 54.114 136.096 52.3474 135.894C48.8212 135.49 44.492 133.752 40.4884 129.754C34.3209 123.594 26.2742 116.684 22.3294 113.421L25.3412 111.541C25.5597 111.405 25.6904 111.163 25.6853 110.906C25.6802 110.648 25.5401 110.413 25.3164 110.285C24.1713 109.631 23.6769 108.701 23.505 107.786C23.3278 106.842 23.4975 105.914 23.701 105.372C23.7854 105.148 23.7542 104.896 23.6175 104.698C23.4808 104.501 23.256 104.383 23.016 104.383C22.5458 104.383 21.506 104.029 20.3707 102.952C19.2632 101.901 18.118 100.206 17.4241 97.6657C16.6854 94.9608 15.5483 92.0131 13.0283 89.7546C10.4954 87.4846 6.66833 86 0.731707 86C0.327596 86 0 86.3276 0 86.7317C0 87.1358 0.327596 87.4634 0.731707 87.4634C6.42167 87.4634 9.86125 88.8814 12.0516 90.8444C14.2549 92.819 15.2978 95.4346 16.0124 98.0513C16.7719 100.832 18.0489 102.766 19.3635 104.013C20.2853 104.888 21.2561 105.45 22.094 105.699C21.9571 106.377 21.907 107.205 22.0667 108.056C22.2516 109.04 22.7194 110.054 23.6412 110.877L20.6908 112.719C20.4906 112.843 20.363 113.057 20.348 113.293C20.333 113.528 20.4325 113.757 20.6153 113.906C24.1593 116.802 32.8905 124.234 39.4544 130.789C43.6863 135.015 48.3193 136.905 52.1808 137.348C54.108 137.569 55.8555 137.43 57.2698 137.03C58.4399 136.699 59.4439 136.17 60.1029 135.459C61.8706 135.978 64.3082 137.013 66.3543 138.57C68.5852 140.267 70.2439 142.495 70.2439 145.268C70.2439 145.672 70.5715 146 70.9756 146Z" fill="#FFF8DC"/>
<path fill-rule="evenodd" clip-rule="evenodd" d="M71.0244 134.293C97.2916 134.293 118.585 112.999 118.585 86.7317C118.585 86.3276 118.913 86 119.317 86C119.721 86 120.049 86.3276 120.049 86.7317C120.049 113.807 98.0998 135.756 71.0244 135.756C70.6203 135.756 70.2927 135.429 70.2927 135.024C70.2927 134.62 70.6203 134.293 71.0244 134.293Z" fill="#FFF8DC"/>
<path fill-rule="evenodd" clip-rule="evenodd" d="M71.0244 146C70.6203 146 70.2927 145.672 70.2927 145.268C70.2927 141.849 72.348 139.24 74.7597 137.405C77.1747 135.568 80.054 134.419 81.9821 133.917C82.2837 133.839 82.602 133.96 82.7751 134.219C83.1238 134.741 83.9034 135.275 85.1285 135.622C86.3332 135.963 87.886 136.096 89.6526 135.894C93.1788 135.49 97.508 133.752 101.512 129.754C107.679 123.594 115.726 116.684 119.671 113.421L116.659 111.541C116.44 111.405 116.31 111.163 116.315 110.906C116.32 110.648 116.46 110.413 116.684 110.285C117.829 109.631 118.323 108.701 118.495 107.786C118.672 106.842 118.502 105.914 118.299 105.372C118.215 105.148 118.246 104.896 118.383 104.698C118.519 104.501 118.744 104.383 118.984 104.383C119.454 104.383 120.494 104.029 121.629 102.952C122.737 101.901 123.882 100.206 124.576 97.6657C125.315 94.9608 126.452 92.0131 128.972 89.7546C131.505 87.4846 135.332 86 141.268 86C141.672 86 142 86.3276 142 86.7317C142 87.1358 141.672 87.4634 141.268 87.4634C135.578 87.4634 132.139 88.8814 129.948 90.8444C127.745 92.819 126.702 95.4346 125.988 98.0513C125.228 100.832 123.951 102.766 122.636 104.013C121.715 104.888 120.744 105.45 119.906 105.699C120.043 106.377 120.093 107.205 119.933 108.056C119.748 109.04 119.281 110.054 118.359 110.877L121.309 112.719C121.509 112.843 121.637 113.057 121.652 113.293C121.667 113.528 121.567 113.757 121.385 113.906C117.841 116.802 109.109 124.234 102.546 130.789C98.3137 135.015 93.6807 136.905 89.8192 137.348C87.892 137.569 86.1445 137.43 84.7302 137.03C83.5601 136.699 82.5561 136.17 81.8971 135.459C80.1294 135.978 77.6918 137.013 75.6457 138.57C73.4148 140.267 71.7561 142.495 71.7561 145.268C71.7561 145.672 71.4285 146 71.0244 146Z" fill="#FFF8DC"/>
</svg>
