<svg width="142" height="146" viewBox="0 0 142 146" fill="none" xmlns="http://www.w3.org/2000/svg">
<rect x="11" y="13" width="120" height="120" rx="50" fill="#39375E"/>
<path fill-rule="evenodd" clip-rule="evenodd" d="M59.2308 8.46154C31.6165 8.46154 9.23077 30.8473 9.23077 58.4615C9.23077 58.8864 8.88637 59.2308 8.46154 59.2308C8.0367 59.2308 7.69231 58.8864 7.69231 58.4615C7.69231 29.9976 30.7669 6.92308 59.2308 6.92308C59.6556 6.92308 60 7.26747 60 7.69231C60 8.11714 59.6556 8.46154 59.2308 8.46154Z" fill="#FFF8DC"/>
<path fill-rule="evenodd" clip-rule="evenodd" d="M59.0043 0.224098C59.3053 0.523834 59.3064 1.01088 59.0067 1.31195L40.6268 19.7735C40.4825 19.9185 40.2863 20 40.0817 20H17.3656V43.3333C17.3656 43.5368 17.285 43.7319 17.1415 43.8761L1.31436 59.7735C1.01463 60.0746 0.527579 60.0756 0.22651 59.7759C-0.0745588 59.4762 -0.0756387 58.9891 0.224098 58.688L15.8271 43.0157V19.2308C15.8271 18.8059 16.1715 18.4615 16.5963 18.4615H39.7621L57.9164 0.22651C58.2161 -0.0745588 58.7032 -0.0756387 59.0043 0.224098Z" fill="#FFF8DC"/>
<path fill-rule="evenodd" clip-rule="evenodd" d="M82.7692 8.46154C110.383 8.46154 132.769 30.8473 132.769 58.4615C132.769 58.8864 133.114 59.2308 133.538 59.2308C133.963 59.2308 134.308 58.8864 134.308 58.4615C134.308 29.9976 111.233 6.92308 82.7692 6.92308C82.3444 6.92308 82 7.26747 82 7.69231C82 8.11714 82.3444 8.46154 82.7692 8.46154Z" fill="#FFF8DC"/>
<path fill-rule="evenodd" clip-rule="evenodd" d="M82.9957 0.224098C82.6947 0.523834 82.6936 1.01088 82.9933 1.31195L101.373 19.7735C101.518 19.9185 101.714 20 101.918 20H124.634V43.3333C124.634 43.5368 124.715 43.7319 124.859 43.8761L140.686 59.7735C140.985 60.0746 141.472 60.0756 141.773 59.7759C142.075 59.4762 142.076 58.9891 141.776 58.688L126.173 43.0157V19.2308C126.173 18.8059 125.829 18.4615 125.404 18.4615H102.238L84.0836 0.22651C83.7839 -0.0745588 83.2968 -0.0756387 82.9957 0.224098Z" fill="#FFF8DC"/>
<path fill-rule="evenodd" clip-rule="evenodd" d="M59.2308 137.538C31.6165 137.538 9.23077 115.153 9.23077 87.5385C9.23077 87.1136 8.88637 86.7692 8.46154 86.7692C8.0367 86.7692 7.69231 87.1136 7.69231 87.5385C7.69231 116.002 30.7669 139.077 59.2308 139.077C59.6556 139.077 60 138.733 60 138.308C60 137.883 59.6556 137.538 59.2308 137.538Z" fill="#FFF8DC"/>
<path fill-rule="evenodd" clip-rule="evenodd" d="M59.0043 145.776C59.3053 145.476 59.3064 144.989 59.0067 144.688L40.6268 126.227C40.4825 126.082 40.2863 126 40.0817 126H17.3656V102.667C17.3656 102.463 17.285 102.268 17.1415 102.124L1.31436 86.2265C1.01463 85.9254 0.527579 85.9244 0.22651 86.2241C-0.0745588 86.5238 -0.0756387 87.0109 0.224098 87.312L15.8271 102.984V126.769C15.8271 127.194 16.1715 127.538 16.5963 127.538H39.7621L57.9164 145.773C58.2161 146.075 58.7032 146.076 59.0043 145.776Z" fill="#FFF8DC"/>
<path fill-rule="evenodd" clip-rule="evenodd" d="M82.7692 137.538C110.383 137.538 132.769 115.153 132.769 87.5385C132.769 87.1136 133.114 86.7692 133.538 86.7692C133.963 86.7692 134.308 87.1136 134.308 87.5385C134.308 116.002 111.233 139.077 82.7692 139.077C82.3444 139.077 82 138.733 82 138.308C82 137.883 82.3444 137.538 82.7692 137.538Z" fill="#FFF8DC"/>
<path fill-rule="evenodd" clip-rule="evenodd" d="M82.9957 145.776C82.6947 145.476 82.6936 144.989 82.9933 144.688L101.373 126.227C101.518 126.082 101.714 126 101.918 126H124.634V102.667C124.634 102.463 124.715 102.268 124.859 102.124L140.686 86.2265C140.985 85.9254 141.472 85.9244 141.773 86.2241C142.075 86.5238 142.076 87.0109 141.776 87.312L126.173 102.984V126.769C126.173 127.194 125.829 127.538 125.404 127.538H102.238L84.0836 145.773C83.7839 146.075 83.2968 146.076 82.9957 145.776Z" fill="#FFF8DC"/>
</svg>
