<svg width="142" height="146" viewBox="0 0 142 146" fill="none" xmlns="http://www.w3.org/2000/svg">
<rect x="11" y="13" width="120" height="120" rx="50" fill="#39375E"/>
<path fill-rule="evenodd" clip-rule="evenodd" d="M48.9562 16.8922C25.5091 16.8922 6.50149 35.8998 6.50149 59.3469C6.50149 59.7076 6.2091 60 5.84843 60C5.48775 60 5.19536 59.7076 5.19536 59.3469C5.19536 35.1785 24.7878 15.5861 48.9562 15.5861C49.3169 15.5861 49.6093 15.8785 49.6093 16.2392C49.6093 16.5998 49.3169 16.8922 48.9562 16.8922Z" fill="#FFF8DC"/>
<path fill-rule="evenodd" clip-rule="evenodd" d="M49.5761 0C49.9368 0 50.2292 0.292387 50.2292 0.653065C50.2292 6.98725 46.9838 11.1613 42.6398 13.8407C38.3264 16.5012 32.912 17.7073 28.4313 18.1873C22.4896 18.824 16.7997 21.3702 13.3558 24.9707C11.639 26.7655 10.498 28.8023 10.132 30.9797C9.76738 33.1484 10.1619 35.5114 11.608 37.9904C11.7897 38.3019 11.6845 38.7018 11.3729 38.8835C11.0614 39.0653 10.6615 38.96 10.4798 38.6485C8.89522 35.9322 8.4238 33.2621 8.84391 30.7631C9.26258 28.2728 10.5569 26.0072 12.4119 24.0678C16.1116 20.2 22.1114 17.5509 28.2922 16.8886C32.6862 16.4179 37.8789 15.2427 41.9541 12.7291C45.9986 10.2344 48.9231 6.44139 48.9231 0.653065C48.9231 0.292387 49.2155 0 49.5761 0Z" fill="#FFF8DC"/>
<path fill-rule="evenodd" clip-rule="evenodd" d="M0.191278 59.1912C-0.0637594 58.9362 -0.0637594 58.5227 0.191278 58.2677L6.31407 52.1449C6.56911 51.8898 6.98261 51.8898 7.23764 52.1449L13.3604 58.2677C13.6155 58.5227 13.6155 58.9362 13.3604 59.1912C13.1054 59.4463 12.6919 59.4463 12.4369 59.1912L6.77586 53.5302L1.11485 59.1912C0.859813 59.4463 0.446316 59.4463 0.191278 59.1912Z" fill="#FFF8DC"/>
<path fill-rule="evenodd" clip-rule="evenodd" d="M93.0438 16.8922C116.491 16.8922 135.499 35.8998 135.499 59.3469C135.499 59.7076 135.791 60 136.152 60C136.512 60 136.805 59.7076 136.805 59.3469C136.805 35.1785 117.212 15.5861 93.0438 15.5861C92.6831 15.5861 92.3907 15.8785 92.3907 16.2392C92.3907 16.5998 92.6831 16.8922 93.0438 16.8922Z" fill="#FFF8DC"/>
<path fill-rule="evenodd" clip-rule="evenodd" d="M92.4239 0C92.0632 0 91.7708 0.292387 91.7708 0.653065C91.7708 6.98725 95.0162 11.1613 99.3602 13.8407C103.674 16.5012 109.088 17.7073 113.569 18.1873C119.51 18.824 125.2 21.3702 128.644 24.9707C130.361 26.7655 131.502 28.8023 131.868 30.9797C132.233 33.1484 131.838 35.5114 130.392 37.9904C130.21 38.3019 130.316 38.7018 130.627 38.8835C130.939 39.0653 131.338 38.96 131.52 38.6485C133.105 35.9322 133.576 33.2621 133.156 30.7631C132.737 28.2728 131.443 26.0072 129.588 24.0678C125.888 20.2 119.889 17.5509 113.708 16.8886C109.314 16.4179 104.121 15.2427 100.046 12.7291C96.0014 10.2344 93.0769 6.44139 93.0769 0.653065C93.0769 0.292387 92.7845 0 92.4239 0Z" fill="#FFF8DC"/>
<path fill-rule="evenodd" clip-rule="evenodd" d="M141.809 59.1912C142.064 58.9362 142.064 58.5227 141.809 58.2677L135.686 52.1449C135.431 51.8898 135.017 51.8898 134.762 52.1449L128.64 58.2677C128.385 58.5227 128.385 58.9362 128.64 59.1912C128.895 59.4463 129.308 59.4463 129.563 59.1912L135.224 53.5302L140.885 59.1912C141.14 59.4463 141.554 59.4463 141.809 59.1912Z" fill="#FFF8DC"/>
<path fill-rule="evenodd" clip-rule="evenodd" d="M48.9562 129.108C25.5091 129.108 6.50149 110.1 6.50149 86.6531C6.50149 86.2924 6.2091 86 5.84843 86C5.48775 86 5.19536 86.2924 5.19536 86.6531C5.19536 110.822 24.7878 130.414 48.9562 130.414C49.3169 130.414 49.6093 130.122 49.6093 129.761C49.6093 129.4 49.3169 129.108 48.9562 129.108Z" fill="#FFF8DC"/>
<path fill-rule="evenodd" clip-rule="evenodd" d="M49.5761 146C49.9368 146 50.2292 145.708 50.2292 145.347C50.2292 139.013 46.9838 134.839 42.6398 132.159C38.3264 129.499 32.912 128.293 28.4313 127.813C22.4896 127.176 16.7997 124.63 13.3558 121.029C11.639 119.234 10.498 117.198 10.132 115.02C9.76738 112.852 10.1619 110.489 11.608 108.01C11.7897 107.698 11.6845 107.298 11.3729 107.116C11.0614 106.935 10.6615 107.04 10.4798 107.351C8.89522 110.068 8.4238 112.738 8.84391 115.237C9.26258 117.727 10.5569 119.993 12.4119 121.932C16.1116 125.8 22.1114 128.449 28.2922 129.111C32.6862 129.582 37.8789 130.757 41.9541 133.271C45.9986 135.766 48.9231 139.559 48.9231 145.347C48.9231 145.708 49.2155 146 49.5761 146Z" fill="#FFF8DC"/>
<path fill-rule="evenodd" clip-rule="evenodd" d="M0.191278 86.8088C-0.0637594 87.0638 -0.0637594 87.4773 0.191278 87.7323L6.31407 93.8551C6.56911 94.1102 6.98261 94.1102 7.23764 93.8551L13.3604 87.7323C13.6155 87.4773 13.6155 87.0638 13.3604 86.8088C13.1054 86.5537 12.6919 86.5537 12.4369 86.8088L6.77586 92.4698L1.11485 86.8088C0.859813 86.5537 0.446316 86.5537 0.191278 86.8088Z" fill="#FFF8DC"/>
<path fill-rule="evenodd" clip-rule="evenodd" d="M93.0438 129.108C116.491 129.108 135.499 110.1 135.499 86.6531C135.499 86.2924 135.791 86 136.152 86C136.512 86 136.805 86.2924 136.805 86.6531C136.805 110.822 117.212 130.414 93.0438 130.414C92.6831 130.414 92.3907 130.122 92.3907 129.761C92.3907 129.4 92.6831 129.108 93.0438 129.108Z" fill="#FFF8DC"/>
<path fill-rule="evenodd" clip-rule="evenodd" d="M92.4239 146C92.0632 146 91.7708 145.708 91.7708 145.347C91.7708 139.013 95.0162 134.839 99.3602 132.159C103.674 129.499 109.088 128.293 113.569 127.813C119.51 127.176 125.2 124.63 128.644 121.029C130.361 119.234 131.502 117.198 131.868 115.02C132.233 112.852 131.838 110.489 130.392 108.01C130.21 107.698 130.316 107.298 130.627 107.116C130.939 106.935 131.338 107.04 131.52 107.351C133.105 110.068 133.576 112.738 133.156 115.237C132.737 117.727 131.443 119.993 129.588 121.932C125.888 125.8 119.889 128.449 113.708 129.111C109.314 129.582 104.121 130.757 100.046 133.271C96.0014 135.766 93.0769 139.559 93.0769 145.347C93.0769 145.708 92.7845 146 92.4239 146Z" fill="#FFF8DC"/>
<path fill-rule="evenodd" clip-rule="evenodd" d="M141.809 86.8088C142.064 87.0638 142.064 87.4773 141.809 87.7323L135.686 93.8551C135.431 94.1102 135.017 94.1102 134.762 93.8551L128.64 87.7323C128.385 87.4773 128.385 87.0638 128.64 86.8088C128.895 86.5537 129.308 86.5537 129.563 86.8088L135.224 92.4698L140.885 86.8088C141.14 86.5537 141.554 86.5537 141.809 86.8088Z" fill="#FFF8DC"/>
</svg>
