<svg width="254" height="392" viewBox="0 0 254 392" fill="none" xmlns="http://www.w3.org/2000/svg">
<rect width="229" height="370" transform="translate(13 11)" fill="#39375E"/>
<path fill-rule="evenodd" clip-rule="evenodd" d="M11.2159 0.1741L11.0121 0.206366C11.2159 0.1741 11.216 0.174445 11.216 0.174445L11.2164 0.177038L11.2174 0.184095C11.2183 0.190158 11.2196 0.198923 11.2212 0.210302C11.2244 0.233059 11.2289 0.266278 11.2341 0.309253C11.2445 0.395196 11.258 0.520209 11.2706 0.678649C11.2957 0.995431 11.3172 1.4464 11.3029 1.98629C11.2896 2.48974 11.2453 3.07217 11.1432 3.69625C11.2686 5.28771 11.6328 6.53958 12.1451 7.52249C12.9814 9.12689 14.2224 10.034 15.5107 10.5337C16.0623 10.7476 16.6227 10.8869 17.1637 10.9735C17.9415 10.9347 18.8132 10.9214 19.7855 10.9066C20.1497 10.901 20.528 10.8953 20.9207 10.8879C21.0263 10.8859 21.1163 10.9639 21.1294 11.0686C21.1425 11.1734 21.0744 11.2711 20.9716 11.2952L20.9246 11.0942C20.9716 11.2952 20.9712 11.2952 20.9712 11.2952L20.9686 11.2958L20.9616 11.2974C20.9556 11.2988 20.9468 11.3007 20.9355 11.3031C20.9129 11.308 20.8798 11.3149 20.8371 11.3232C20.7518 11.3398 20.6278 11.3622 20.471 11.3856C20.1576 11.4325 19.7127 11.484 19.1835 11.5026C18.5894 11.5236 17.8858 11.5035 17.1413 11.3878C16.7584 11.4074 16.3996 11.4334 16.0633 11.4693C14.7952 11.6044 13.8864 11.876 13.2246 12.4372C12.5655 12.996 12.1202 13.8692 11.8428 15.2793C11.5886 16.5711 11.4796 18.2909 11.4639 20.5877C11.467 20.8023 11.4664 21.0214 11.4619 21.2453C11.4596 21.3584 11.3667 21.4486 11.2536 21.4475C11.1404 21.4464 11.0493 21.3544 11.0492 21.2413C11.0491 21.019 11.0498 20.8015 11.0512 20.5887C11.0121 17.9156 10.3834 16.0137 9.46167 14.6629C8.46747 13.2058 7.11941 12.371 5.75579 11.9049C4.79509 11.5766 3.82845 11.4322 2.97753 11.3833C2.13716 11.4997 1.21458 11.5528 0.202052 11.5316C0.0968774 11.5294 0.0101943 11.4485 0.000828869 11.3437C-0.00853659 11.2389 0.0624136 11.1438 0.16553 11.123L0.206375 11.3253C0.16553 11.123 0.165864 11.123 0.165864 11.123L0.166456 11.1228L0.168411 11.1224L0.175378 11.1211C0.18137 11.1199 0.190043 11.1183 0.201309 11.1162C0.223841 11.112 0.256752 11.1062 0.299343 11.0991C0.384516 11.085 0.508457 11.066 0.665568 11.0464C0.979689 11.0071 1.42699 10.965 1.9626 10.9533C2.26855 10.9465 2.604 10.9497 2.96043 10.969C4.69196 10.7242 6.04508 10.2045 7.10212 9.52576C8.66349 8.52313 9.59559 7.16257 10.1455 5.78823C10.4323 5.07148 10.6149 4.35148 10.7279 3.67803C10.6504 2.64863 10.67 1.48944 10.8068 0.184844C10.8176 0.0818359 10.9031 0.00279162 11.0067 7.21493e-05C11.1102 -0.00264731 11.1997 0.0718006 11.2159 0.1741ZM10.8763 4.91185C10.7813 5.25196 10.6666 5.59689 10.5287 5.94155C9.95315 7.37996 8.9718 8.81565 7.32514 9.87305C6.50261 10.4012 5.51827 10.8324 4.34204 11.1232C4.84639 11.2103 5.36804 11.3363 5.88926 11.5144C7.31846 12.0028 8.74796 12.8846 9.8026 14.4302C10.3893 15.29 10.856 16.3494 11.1439 17.651C11.2058 16.7061 11.301 15.8952 11.4378 15.1996C11.7241 13.7445 12.1979 12.7666 12.9577 12.1224C13.6761 11.5132 14.6222 11.2267 15.8235 11.0812C15.6694 11.0322 15.5152 10.9781 15.3615 10.9185C13.9942 10.3882 12.6684 9.41928 11.7791 7.71326C11.3744 6.9369 11.0623 6.01192 10.8763 4.91185Z" fill="#FFF8DC"/>
<path fill-rule="evenodd" clip-rule="evenodd" d="M19.861 1.91992C19.9404 2.0017 19.9384 2.13235 19.8566 2.21173L13.9824 7.91363C13.9007 7.99301 13.77 7.99107 13.6906 7.90929C13.6112 7.82751 13.6132 7.69686 13.695 7.61747L19.5692 1.91558C19.6509 1.83619 19.7816 1.83814 19.861 1.91992Z" fill="#FFF8DC"/>
<path fill-rule="evenodd" clip-rule="evenodd" d="M1.29649 1.91992C1.21711 2.0017 1.21905 2.13235 1.30083 2.21173L7.17502 7.91363C7.2568 7.99301 7.38745 7.99107 7.46683 7.90929C7.54621 7.82751 7.54427 7.69686 7.46249 7.61747L1.5883 1.91558C1.50652 1.83619 1.37587 1.83814 1.29649 1.91992Z" fill="#FFF8DC"/>
<path fill-rule="evenodd" clip-rule="evenodd" d="M13.9056 3.72785C14.0135 3.76482 14.0709 3.88219 14.0339 3.99L12.959 7.12467C12.922 7.23248 12.8046 7.28991 12.6968 7.25294C12.589 7.21597 12.5316 7.0986 12.5685 6.99079L13.6435 3.85612C13.6805 3.74831 13.7978 3.69088 13.9056 3.72785Z" fill="#FFF8DC"/>
<path fill-rule="evenodd" clip-rule="evenodd" d="M7.25181 3.72785C7.144 3.76482 7.08658 3.88219 7.12355 3.99L8.1985 7.12467C8.23547 7.23248 8.35284 7.28991 8.46065 7.25294C8.56846 7.21597 8.62588 7.0986 8.58891 6.99079L7.51396 3.85612C7.47699 3.74831 7.35962 3.69088 7.25181 3.72785Z" fill="#FFF8DC"/>
<path fill-rule="evenodd" clip-rule="evenodd" d="M18.597 7.68999C18.6388 7.79603 18.5866 7.91585 18.4806 7.95762L15.2632 9.22468C15.1571 9.26644 15.0373 9.21432 14.9955 9.10828C14.9538 9.00223 15.0059 8.88241 15.1119 8.84065L18.3294 7.57359C18.4354 7.53183 18.5552 7.58394 18.597 7.68999Z" fill="#FFF8DC"/>
<path fill-rule="evenodd" clip-rule="evenodd" d="M2.56047 7.68999C2.51871 7.79603 2.57082 7.91585 2.67686 7.95762L5.89431 9.22468C6.00035 9.26644 6.12017 9.21432 6.16193 9.10828C6.2037 9.00223 6.15158 8.88241 6.04554 8.84065L2.8281 7.57359C2.72205 7.53183 2.60223 7.58394 2.56047 7.68999Z" fill="#FFF8DC"/>
<path fill-rule="evenodd" clip-rule="evenodd" d="M19.861 19.7073C19.9404 19.6255 19.9384 19.4949 19.8566 19.4155L13.9824 13.7136C13.9007 13.6342 13.77 13.6362 13.6906 13.718C13.6112 13.7997 13.6132 13.9304 13.695 14.0098L19.5692 19.7117C19.6509 19.791 19.7816 19.7891 19.861 19.7073Z" fill="#FFF8DC"/>
<path fill-rule="evenodd" clip-rule="evenodd" d="M1.29649 19.7073C1.21711 19.6255 1.21905 19.4949 1.30083 19.4155L7.17502 13.7136C7.2568 13.6342 7.38745 13.6362 7.46683 13.718C7.54621 13.7997 7.54427 13.9304 7.46249 14.0098L1.5883 19.7117C1.50652 19.791 1.37587 19.7891 1.29649 19.7073Z" fill="#FFF8DC"/>
<path fill-rule="evenodd" clip-rule="evenodd" d="M13.9056 17.8994C14.0135 17.8624 14.0709 17.7451 14.0339 17.6372L12.959 14.5026C12.922 14.3948 12.8046 14.3373 12.6968 14.3743C12.589 14.4113 12.5316 14.5286 12.5685 14.6365L13.6435 17.7711C13.6805 17.8789 13.7978 17.9364 13.9056 17.8994Z" fill="#FFF8DC"/>
<path fill-rule="evenodd" clip-rule="evenodd" d="M7.25181 17.8994C7.144 17.8624 7.08658 17.7451 7.12355 17.6372L8.1985 14.5026C8.23547 14.3948 8.35284 14.3373 8.46065 14.3743C8.56846 14.4113 8.62588 14.5286 8.58891 14.6365L7.51396 17.7711C7.47699 17.8789 7.35962 17.9364 7.25181 17.8994Z" fill="#FFF8DC"/>
<path fill-rule="evenodd" clip-rule="evenodd" d="M18.597 13.9373C18.6388 13.8312 18.5866 13.7114 18.4806 13.6696L15.2632 12.4026C15.1571 12.3608 15.0373 12.4129 14.9955 12.519C14.9538 12.625 15.0059 12.7448 15.1119 12.7866L18.3294 14.0537C18.4354 14.0954 18.5552 14.0433 18.597 13.9373Z" fill="#FFF8DC"/>
<path fill-rule="evenodd" clip-rule="evenodd" d="M2.56047 13.9373C2.51871 13.8312 2.57082 13.7114 2.67686 13.6696L5.89431 12.4026C6.00035 12.3608 6.12017 12.4129 6.16193 12.519C6.2037 12.625 6.15158 12.7448 6.04554 12.7866L2.8281 14.0537C2.72205 14.0954 2.60223 14.0433 2.56047 13.9373Z" fill="#FFF8DC"/>
<path fill-rule="evenodd" clip-rule="evenodd" d="M23.5494 14.0123C24.7946 14.0123 25.8122 12.9898 25.8122 11.7183C25.8122 10.4469 24.7946 9.42438 23.5494 9.42438C22.3041 9.42438 21.2866 10.4469 21.2866 11.7183C21.2866 12.9898 22.3041 14.0123 23.5494 14.0123ZM26.2249 11.7183C26.2249 13.2132 25.027 14.425 23.5494 14.425C22.0717 14.425 20.8738 13.2132 20.8738 11.7183C20.8738 10.2235 22.0717 9.01165 23.5494 9.01165C25.027 9.01165 26.2249 10.2235 26.2249 11.7183Z" fill="#FFF8DC"/>
<path fill-rule="evenodd" clip-rule="evenodd" d="M14.2228 23.9312C14.2228 25.1764 13.2003 26.1939 11.9288 26.1939C10.6574 26.1939 9.63489 25.1764 9.63489 23.9312C9.63489 22.6859 10.6574 21.6684 11.9288 21.6684C13.2003 21.6684 14.2228 22.6859 14.2228 23.9312ZM11.9288 26.6067C13.4237 26.6067 14.6355 25.4088 14.6355 23.9312C14.6355 22.4535 13.4237 21.2556 11.9288 21.2556C10.434 21.2556 9.22216 22.4535 9.22216 23.9312C9.22216 25.4088 10.434 26.6067 11.9288 26.6067Z" fill="#FFF8DC"/>
<path fill-rule="evenodd" clip-rule="evenodd" d="M31.5532 4.39093C31.6285 4.46722 31.6329 4.58848 31.5632 4.66998L26.5102 10.5824H85.4117C85.5246 10.5824 85.6165 10.673 85.6181 10.7858C85.6197 10.8986 85.5304 10.9918 85.4177 10.9951L85.4117 10.9951L26.5658 12.6888L31.4118 18.0548C31.4837 18.1345 31.4826 18.2559 31.4093 18.3342C31.3359 18.4125 31.2148 18.4216 31.1307 18.3551L25.3326 13.7738C25.2432 13.7031 25.228 13.5733 25.2987 13.4839C25.3693 13.3945 25.4991 13.3793 25.5885 13.4499L29.4586 16.5079L25.9599 12.6337C25.906 12.574 25.8917 12.4884 25.9233 12.4144C25.9549 12.3403 26.0267 12.2915 26.1072 12.2891L71.0681 10.9951H26.0623C25.9818 10.9951 25.9086 10.9483 25.8749 10.8751C25.8412 10.802 25.8531 10.7159 25.9055 10.6547L29.6692 6.25083L25.4017 9.8041C25.3141 9.87703 25.184 9.86514 25.1111 9.77756C25.0382 9.68997 25.05 9.55985 25.1376 9.48692L31.2743 4.37732C31.3567 4.30872 31.4779 4.31463 31.5532 4.39093Z" fill="#FFF8DC"/>
<path fill-rule="evenodd" clip-rule="evenodd" d="M4.60143 31.9351C4.67772 32.0104 4.79899 32.0148 4.88049 31.9451L10.7929 26.8921L10.7929 85.7936C10.7929 85.9064 10.8835 85.9984 10.9963 86C11.1091 86.0016 11.2023 85.9123 11.2056 85.7996L11.2057 85.7936L12.8994 26.9477L18.2653 31.7936C18.345 31.8655 18.4664 31.8645 18.5447 31.7911C18.623 31.7178 18.6321 31.5967 18.5656 31.5126L13.9843 25.7145C13.9136 25.6251 13.7838 25.6099 13.6944 25.6805C13.605 25.7512 13.5898 25.881 13.6604 25.9704L16.7184 29.8405L12.8442 26.3418C12.7845 26.2879 12.6989 26.2736 12.6249 26.3052C12.5508 26.3368 12.502 26.4086 12.4997 26.489L11.2057 71.45L11.2057 26.4442C11.2057 26.3637 11.1588 26.2905 11.0857 26.2568C11.0125 26.2231 10.9264 26.235 10.8652 26.2873L6.46134 30.0511L10.0146 25.7836C10.0875 25.696 10.0756 25.5659 9.98806 25.493C9.90048 25.4201 9.77036 25.4319 9.69743 25.5195L4.58782 31.6562C4.51922 31.7386 4.52514 31.8598 4.60143 31.9351Z" fill="#FFF8DC"/>
<path fill-rule="evenodd" clip-rule="evenodd" d="M11.2159 391.826L11.0121 391.794C11.2159 391.826 11.216 391.826 11.216 391.826L11.2164 391.823L11.2174 391.816C11.2183 391.81 11.2196 391.801 11.2212 391.79C11.2244 391.767 11.2289 391.734 11.2341 391.691C11.2445 391.605 11.258 391.48 11.2706 391.321C11.2957 391.005 11.3172 390.554 11.3029 390.014C11.2896 389.51 11.2453 388.928 11.1432 388.304C11.2686 386.712 11.6328 385.46 12.1451 384.478C12.9814 382.873 14.2224 381.966 15.5107 381.466C16.0623 381.252 16.6227 381.113 17.1637 381.027C17.9415 381.065 18.8132 381.079 19.7855 381.093C20.1497 381.099 20.528 381.105 20.9207 381.112C21.0263 381.114 21.1163 381.036 21.1294 380.931C21.1425 380.827 21.0744 380.729 20.9716 380.705L20.9246 380.906C20.9716 380.705 20.9712 380.705 20.9712 380.705L20.9686 380.704L20.9616 380.703C20.9556 380.701 20.9468 380.699 20.9355 380.697C20.9129 380.692 20.8798 380.685 20.8371 380.677C20.7518 380.66 20.6278 380.638 20.471 380.614C20.1576 380.567 19.7127 380.516 19.1835 380.497C18.5894 380.476 17.8858 380.497 17.1413 380.612C16.7584 380.593 16.3996 380.567 16.0633 380.531C14.7952 380.396 13.8864 380.124 13.2246 379.563C12.5655 379.004 12.1202 378.131 11.8428 376.721C11.5886 375.429 11.4796 373.709 11.4639 371.412C11.467 371.198 11.4664 370.979 11.4619 370.755C11.4596 370.642 11.3667 370.551 11.2536 370.552C11.1404 370.554 11.0493 370.646 11.0492 370.759C11.0491 370.981 11.0498 371.199 11.0512 371.411C11.0121 374.084 10.3834 375.986 9.46167 377.337C8.46747 378.794 7.11941 379.629 5.75579 380.095C4.79509 380.423 3.82845 380.568 2.97753 380.617C2.13716 380.5 1.21458 380.447 0.202052 380.468C0.0968774 380.471 0.0101943 380.552 0.000828869 380.656C-0.00853659 380.761 0.0624136 380.856 0.16553 380.877L0.206375 380.675C0.16553 380.877 0.165864 380.877 0.165864 380.877L0.166456 380.877L0.168411 380.878L0.175378 380.879C0.18137 380.88 0.190043 380.882 0.201309 380.884C0.223841 380.888 0.256752 380.894 0.299343 380.901C0.384516 380.915 0.508457 380.934 0.665568 380.954C0.979689 380.993 1.42699 381.035 1.9626 381.047C2.26855 381.053 2.604 381.05 2.96043 381.031C4.69196 381.276 6.04508 381.795 7.10212 382.474C8.66349 383.477 9.59559 384.837 10.1455 386.212C10.4323 386.929 10.6149 387.649 10.7279 388.322C10.6504 389.351 10.67 390.511 10.8068 391.815C10.8176 391.918 10.9031 391.997 11.0067 392C11.1102 392.003 11.1997 391.928 11.2159 391.826ZM10.8763 387.088C10.7813 386.748 10.6666 386.403 10.5287 386.058C9.95315 384.62 8.9718 383.184 7.32514 382.127C6.50261 381.599 5.51827 381.168 4.34204 380.877C4.84639 380.79 5.36804 380.664 5.88926 380.486C7.31846 379.997 8.74796 379.115 9.8026 377.57C10.3893 376.71 10.856 375.651 11.1439 374.349C11.2058 375.294 11.301 376.105 11.4378 376.8C11.7241 378.256 12.1979 379.233 12.9577 379.878C13.6761 380.487 14.6222 380.773 15.8235 380.919C15.6694 380.968 15.5152 381.022 15.3615 381.082C13.9942 381.612 12.6684 382.581 11.7791 384.287C11.3744 385.063 11.0623 385.988 10.8763 387.088Z" fill="#FFF8DC"/>
<path fill-rule="evenodd" clip-rule="evenodd" d="M19.861 390.08C19.9404 389.998 19.9384 389.868 19.8566 389.788L13.9824 384.086C13.9007 384.007 13.77 384.009 13.6906 384.091C13.6112 384.172 13.6132 384.303 13.695 384.383L19.5692 390.084C19.6509 390.164 19.7816 390.162 19.861 390.08Z" fill="#FFF8DC"/>
<path fill-rule="evenodd" clip-rule="evenodd" d="M1.29649 390.08C1.21711 389.998 1.21905 389.868 1.30083 389.788L7.17502 384.086C7.2568 384.007 7.38745 384.009 7.46683 384.091C7.54621 384.172 7.54427 384.303 7.46249 384.383L1.5883 390.084C1.50652 390.164 1.37587 390.162 1.29649 390.08Z" fill="#FFF8DC"/>
<path fill-rule="evenodd" clip-rule="evenodd" d="M13.9056 388.272C14.0135 388.235 14.0709 388.118 14.0339 388.01L12.959 384.875C12.922 384.768 12.8046 384.71 12.6968 384.747C12.589 384.784 12.5316 384.901 12.5685 385.009L13.6435 388.144C13.6805 388.252 13.7978 388.309 13.9056 388.272Z" fill="#FFF8DC"/>
<path fill-rule="evenodd" clip-rule="evenodd" d="M7.25181 388.272C7.144 388.235 7.08658 388.118 7.12355 388.01L8.1985 384.875C8.23547 384.768 8.35284 384.71 8.46065 384.747C8.56846 384.784 8.62588 384.901 8.58891 385.009L7.51396 388.144C7.47699 388.252 7.35962 388.309 7.25181 388.272Z" fill="#FFF8DC"/>
<path fill-rule="evenodd" clip-rule="evenodd" d="M18.597 384.31C18.6388 384.204 18.5866 384.084 18.4806 384.042L15.2632 382.775C15.1571 382.734 15.0373 382.786 14.9955 382.892C14.9538 382.998 15.0059 383.118 15.1119 383.159L18.3294 384.426C18.4354 384.468 18.5552 384.416 18.597 384.31Z" fill="#FFF8DC"/>
<path fill-rule="evenodd" clip-rule="evenodd" d="M2.56047 384.31C2.51871 384.204 2.57082 384.084 2.67686 384.042L5.89431 382.775C6.00035 382.734 6.12017 382.786 6.16193 382.892C6.2037 382.998 6.15158 383.118 6.04554 383.159L2.8281 384.426C2.72205 384.468 2.60223 384.416 2.56047 384.31Z" fill="#FFF8DC"/>
<path fill-rule="evenodd" clip-rule="evenodd" d="M19.861 372.293C19.9404 372.374 19.9384 372.505 19.8566 372.584L13.9824 378.286C13.9007 378.366 13.77 378.364 13.6906 378.282C13.6112 378.2 13.6132 378.07 13.695 377.99L19.5692 372.288C19.6509 372.209 19.7816 372.211 19.861 372.293Z" fill="#FFF8DC"/>
<path fill-rule="evenodd" clip-rule="evenodd" d="M1.29649 372.293C1.21711 372.374 1.21905 372.505 1.30083 372.584L7.17502 378.286C7.2568 378.366 7.38745 378.364 7.46683 378.282C7.54621 378.2 7.54427 378.07 7.46249 377.99L1.5883 372.288C1.50652 372.209 1.37587 372.211 1.29649 372.293Z" fill="#FFF8DC"/>
<path fill-rule="evenodd" clip-rule="evenodd" d="M13.9056 374.101C14.0135 374.138 14.0709 374.255 14.0339 374.363L12.959 377.497C12.922 377.605 12.8046 377.663 12.6968 377.626C12.589 377.589 12.5316 377.471 12.5685 377.364L13.6435 374.229C13.6805 374.121 13.7978 374.064 13.9056 374.101Z" fill="#FFF8DC"/>
<path fill-rule="evenodd" clip-rule="evenodd" d="M7.25181 374.101C7.144 374.138 7.08658 374.255 7.12355 374.363L8.1985 377.497C8.23547 377.605 8.35284 377.663 8.46065 377.626C8.56846 377.589 8.62588 377.471 8.58891 377.364L7.51396 374.229C7.47699 374.121 7.35962 374.064 7.25181 374.101Z" fill="#FFF8DC"/>
<path fill-rule="evenodd" clip-rule="evenodd" d="M18.597 378.063C18.6388 378.169 18.5866 378.289 18.4806 378.33L15.2632 379.597C15.1571 379.639 15.0373 379.587 14.9955 379.481C14.9538 379.375 15.0059 379.255 15.1119 379.213L18.3294 377.946C18.4354 377.905 18.5552 377.957 18.597 378.063Z" fill="#FFF8DC"/>
<path fill-rule="evenodd" clip-rule="evenodd" d="M2.56047 378.063C2.51871 378.169 2.57082 378.289 2.67686 378.33L5.89431 379.597C6.00035 379.639 6.12017 379.587 6.16193 379.481C6.2037 379.375 6.15158 379.255 6.04554 379.213L2.8281 377.946C2.72205 377.905 2.60223 377.957 2.56047 378.063Z" fill="#FFF8DC"/>
<path fill-rule="evenodd" clip-rule="evenodd" d="M23.5494 377.988C24.7946 377.988 25.8122 379.01 25.8122 380.282C25.8122 381.553 24.7946 382.576 23.5494 382.576C22.3041 382.576 21.2866 381.553 21.2866 380.282C21.2866 379.01 22.3041 377.988 23.5494 377.988ZM26.2249 380.282C26.2249 378.787 25.027 377.575 23.5494 377.575C22.0717 377.575 20.8738 378.787 20.8738 380.282C20.8738 381.777 22.0717 382.988 23.5494 382.988C25.027 382.988 26.2249 381.777 26.2249 380.282Z" fill="#FFF8DC"/>
<path fill-rule="evenodd" clip-rule="evenodd" d="M14.2228 368.069C14.2228 366.824 13.2003 365.806 11.9288 365.806C10.6574 365.806 9.63489 366.824 9.63489 368.069C9.63489 369.314 10.6574 370.332 11.9288 370.332C13.2003 370.332 14.2228 369.314 14.2228 368.069ZM11.9288 365.393C13.4237 365.393 14.6355 366.591 14.6355 368.069C14.6355 369.547 13.4237 370.744 11.9288 370.744C10.434 370.744 9.22216 369.547 9.22216 368.069C9.22216 366.591 10.434 365.393 11.9288 365.393Z" fill="#FFF8DC"/>
<path fill-rule="evenodd" clip-rule="evenodd" d="M31.5532 387.609C31.6285 387.533 31.6329 387.412 31.5632 387.33L26.5102 381.418H85.4117C85.5246 381.418 85.6165 381.327 85.6181 381.214C85.6197 381.101 85.5304 381.008 85.4177 381.005L85.4117 381.005L26.5658 379.311L31.4118 373.945C31.4837 373.866 31.4826 373.744 31.4093 373.666C31.3359 373.588 31.2148 373.578 31.1307 373.645L25.3326 378.226C25.2432 378.297 25.228 378.427 25.2987 378.516C25.3693 378.606 25.4991 378.621 25.5885 378.55L29.4586 375.492L25.9599 379.366C25.906 379.426 25.8917 379.512 25.9233 379.586C25.9549 379.66 26.0267 379.709 26.1072 379.711L71.0681 381.005H26.0623C25.9818 381.005 25.9086 381.052 25.8749 381.125C25.8412 381.198 25.8531 381.284 25.9055 381.345L29.6692 385.749L25.4017 382.196C25.3141 382.123 25.184 382.135 25.1111 382.222C25.0382 382.31 25.05 382.44 25.1376 382.513L31.2743 387.623C31.3567 387.691 31.4779 387.685 31.5532 387.609Z" fill="#FFF8DC"/>
<path fill-rule="evenodd" clip-rule="evenodd" d="M4.60143 360.065C4.67772 359.99 4.79899 359.985 4.88049 360.055L10.7929 365.108L10.7929 306.206C10.7929 306.094 10.8835 306.002 10.9963 306C11.1091 305.998 11.2023 306.088 11.2056 306.2L11.2057 306.206L12.8994 365.052L18.2653 360.206C18.345 360.134 18.4664 360.136 18.5447 360.209C18.623 360.282 18.6321 360.403 18.5656 360.487L13.9843 366.285C13.9136 366.375 13.7838 366.39 13.6944 366.319C13.605 366.249 13.5898 366.119 13.6604 366.03L16.7184 362.16L12.8442 365.658C12.7845 365.712 12.6989 365.726 12.6249 365.695C12.5508 365.663 12.502 365.591 12.4997 365.511L11.2057 320.55L11.2057 365.556C11.2057 365.636 11.1588 365.709 11.0857 365.743C11.0125 365.777 10.9264 365.765 10.8652 365.713L6.46134 361.949L10.0146 366.216C10.0875 366.304 10.0756 366.434 9.98806 366.507C9.90048 366.58 9.77036 366.568 9.69743 366.48L4.58782 360.344C4.51922 360.261 4.52514 360.14 4.60143 360.065Z" fill="#FFF8DC"/>
<path fill-rule="evenodd" clip-rule="evenodd" d="M242.784 0.1741L242.988 0.206366C242.784 0.1741 242.784 0.174445 242.784 0.174445L242.784 0.177038L242.783 0.184095C242.782 0.190158 242.78 0.198923 242.779 0.210302C242.776 0.233059 242.771 0.266278 242.766 0.309253C242.755 0.395196 242.742 0.520209 242.729 0.678649C242.704 0.995431 242.683 1.4464 242.697 1.98629C242.71 2.48974 242.755 3.07217 242.857 3.69625C242.731 5.28771 242.367 6.53958 241.855 7.52249C241.019 9.12689 239.778 10.034 238.489 10.5337C237.938 10.7476 237.377 10.8869 236.836 10.9735C236.058 10.9347 235.187 10.9214 234.214 10.9066C233.85 10.901 233.472 10.8953 233.079 10.8879C232.974 10.8859 232.884 10.9639 232.871 11.0686C232.858 11.1734 232.926 11.2711 233.028 11.2952L233.075 11.0942C233.028 11.2952 233.029 11.2952 233.029 11.2952L233.031 11.2958L233.038 11.2974C233.044 11.2988 233.053 11.3007 233.065 11.3031C233.087 11.308 233.12 11.3149 233.163 11.3232C233.248 11.3398 233.372 11.3622 233.529 11.3856C233.842 11.4325 234.287 11.484 234.817 11.5026C235.411 11.5236 236.114 11.5035 236.859 11.3878C237.242 11.4074 237.6 11.4334 237.937 11.4693C239.205 11.6044 240.114 11.876 240.775 12.4372C241.435 12.996 241.88 13.8692 242.157 15.2793C242.411 16.5711 242.52 18.2909 242.536 20.5877C242.533 20.8023 242.534 21.0214 242.538 21.2453C242.54 21.3584 242.633 21.4486 242.746 21.4475C242.86 21.4464 242.951 21.3544 242.951 21.2413C242.951 21.019 242.95 20.8015 242.949 20.5887C242.988 17.9156 243.617 16.0137 244.538 14.6629C245.533 13.2058 246.881 12.371 248.244 11.9049C249.205 11.5766 250.172 11.4322 251.022 11.3833C251.863 11.4997 252.785 11.5528 253.798 11.5316C253.903 11.5294 253.99 11.4485 253.999 11.3437C254.009 11.2389 253.938 11.1438 253.834 11.123L253.794 11.3253C253.834 11.123 253.834 11.123 253.834 11.123L253.834 11.1228L253.832 11.1224L253.825 11.1211C253.819 11.1199 253.81 11.1183 253.799 11.1162C253.776 11.112 253.743 11.1062 253.701 11.0991C253.615 11.085 253.492 11.066 253.334 11.0464C253.02 11.0071 252.573 10.965 252.037 10.9533C251.731 10.9465 251.396 10.9497 251.04 10.969C249.308 10.7242 247.955 10.2045 246.898 9.52576C245.337 8.52313 244.404 7.16257 243.854 5.78823C243.568 5.07148 243.385 4.35148 243.272 3.67803C243.35 2.64863 243.33 1.48944 243.193 0.184844C243.182 0.0818359 243.097 0.00279162 242.993 7.21493e-05C242.89 -0.00264731 242.8 0.0718006 242.784 0.1741ZM243.124 4.91185C243.219 5.25196 243.333 5.59689 243.471 5.94155C244.047 7.37996 245.028 8.81565 246.675 9.87305C247.497 10.4012 248.482 10.8324 249.658 11.1232C249.154 11.2103 248.632 11.3363 248.111 11.5144C246.682 12.0028 245.252 12.8846 244.197 14.4302C243.611 15.29 243.144 16.3494 242.856 17.651C242.794 16.7061 242.699 15.8952 242.562 15.1996C242.276 13.7445 241.802 12.7666 241.042 12.1224C240.324 11.5132 239.378 11.2267 238.176 11.0812C238.331 11.0322 238.485 10.9781 238.639 10.9185C240.006 10.3882 241.332 9.41928 242.221 7.71326C242.626 6.9369 242.938 6.01192 243.124 4.91185Z" fill="#FFF8DC"/>
<path fill-rule="evenodd" clip-rule="evenodd" d="M234.139 1.91992C234.06 2.0017 234.062 2.13235 234.143 2.21173L240.018 7.91363C240.099 7.99301 240.23 7.99107 240.309 7.90929C240.389 7.82751 240.387 7.69686 240.305 7.61747L234.431 1.91558C234.349 1.83619 234.218 1.83814 234.139 1.91992Z" fill="#FFF8DC"/>
<path fill-rule="evenodd" clip-rule="evenodd" d="M252.704 1.91992C252.783 2.0017 252.781 2.13235 252.699 2.21173L246.825 7.91363C246.743 7.99301 246.613 7.99107 246.533 7.90929C246.454 7.82751 246.456 7.69686 246.538 7.61747L252.412 1.91558C252.493 1.83619 252.624 1.83814 252.704 1.91992Z" fill="#FFF8DC"/>
<path fill-rule="evenodd" clip-rule="evenodd" d="M240.094 3.72785C239.987 3.76482 239.929 3.88219 239.966 3.99L241.041 7.12467C241.078 7.23248 241.195 7.28991 241.303 7.25294C241.411 7.21597 241.468 7.0986 241.431 6.99079L240.356 3.85612C240.32 3.74831 240.202 3.69088 240.094 3.72785Z" fill="#FFF8DC"/>
<path fill-rule="evenodd" clip-rule="evenodd" d="M246.748 3.72785C246.856 3.76482 246.913 3.88219 246.876 3.99L245.802 7.12467C245.765 7.23248 245.647 7.28991 245.539 7.25294C245.432 7.21597 245.374 7.0986 245.411 6.99079L246.486 3.85612C246.523 3.74831 246.64 3.69088 246.748 3.72785Z" fill="#FFF8DC"/>
<path fill-rule="evenodd" clip-rule="evenodd" d="M235.403 7.68999C235.361 7.79603 235.413 7.91585 235.519 7.95762L238.737 9.22468C238.843 9.26644 238.963 9.21432 239.004 9.10828C239.046 9.00223 238.994 8.88241 238.888 8.84065L235.671 7.57359C235.565 7.53183 235.445 7.58394 235.403 7.68999Z" fill="#FFF8DC"/>
<path fill-rule="evenodd" clip-rule="evenodd" d="M251.44 7.68999C251.481 7.79603 251.429 7.91585 251.323 7.95762L248.106 9.22468C248 9.26644 247.88 9.21432 247.838 9.10828C247.796 9.00223 247.848 8.88241 247.954 8.84065L251.172 7.57359C251.278 7.53183 251.398 7.58394 251.44 7.68999Z" fill="#FFF8DC"/>
<path fill-rule="evenodd" clip-rule="evenodd" d="M234.139 19.7073C234.06 19.6255 234.062 19.4949 234.143 19.4155L240.018 13.7136C240.099 13.6342 240.23 13.6362 240.309 13.718C240.389 13.7997 240.387 13.9304 240.305 14.0098L234.431 19.7117C234.349 19.791 234.218 19.7891 234.139 19.7073Z" fill="#FFF8DC"/>
<path fill-rule="evenodd" clip-rule="evenodd" d="M252.704 19.7073C252.783 19.6255 252.781 19.4949 252.699 19.4155L246.825 13.7136C246.743 13.6342 246.613 13.6362 246.533 13.718C246.454 13.7997 246.456 13.9304 246.538 14.0098L252.412 19.7117C252.493 19.791 252.624 19.7891 252.704 19.7073Z" fill="#FFF8DC"/>
<path fill-rule="evenodd" clip-rule="evenodd" d="M240.094 17.8994C239.987 17.8624 239.929 17.7451 239.966 17.6372L241.041 14.5026C241.078 14.3948 241.195 14.3373 241.303 14.3743C241.411 14.4113 241.468 14.5286 241.431 14.6365L240.356 17.7711C240.32 17.8789 240.202 17.9364 240.094 17.8994Z" fill="#FFF8DC"/>
<path fill-rule="evenodd" clip-rule="evenodd" d="M246.748 17.8994C246.856 17.8624 246.913 17.7451 246.876 17.6372L245.802 14.5026C245.765 14.3948 245.647 14.3373 245.539 14.3743C245.432 14.4113 245.374 14.5286 245.411 14.6365L246.486 17.7711C246.523 17.8789 246.64 17.9364 246.748 17.8994Z" fill="#FFF8DC"/>
<path fill-rule="evenodd" clip-rule="evenodd" d="M235.403 13.9373C235.361 13.8312 235.413 13.7114 235.519 13.6696L238.737 12.4026C238.843 12.3608 238.963 12.4129 239.004 12.519C239.046 12.625 238.994 12.7448 238.888 12.7866L235.671 14.0537C235.565 14.0954 235.445 14.0433 235.403 13.9373Z" fill="#FFF8DC"/>
<path fill-rule="evenodd" clip-rule="evenodd" d="M251.44 13.9373C251.481 13.8312 251.429 13.7114 251.323 13.6696L248.106 12.4026C248 12.3608 247.88 12.4129 247.838 12.519C247.796 12.625 247.848 12.7448 247.954 12.7866L251.172 14.0537C251.278 14.0954 251.398 14.0433 251.44 13.9373Z" fill="#FFF8DC"/>
<path fill-rule="evenodd" clip-rule="evenodd" d="M230.451 14.0123C229.205 14.0123 228.188 12.9898 228.188 11.7183C228.188 10.4469 229.205 9.42438 230.451 9.42438C231.696 9.42438 232.713 10.4469 232.713 11.7183C232.713 12.9898 231.696 14.0123 230.451 14.0123ZM227.775 11.7183C227.775 13.2132 228.973 14.425 230.451 14.425C231.928 14.425 233.126 13.2132 233.126 11.7183C233.126 10.2235 231.928 9.01165 230.451 9.01165C228.973 9.01165 227.775 10.2235 227.775 11.7183Z" fill="#FFF8DC"/>
<path fill-rule="evenodd" clip-rule="evenodd" d="M239.777 23.9312C239.777 25.1764 240.8 26.1939 242.071 26.1939C243.343 26.1939 244.365 25.1764 244.365 23.9312C244.365 22.6859 243.343 21.6684 242.071 21.6684C240.8 21.6684 239.777 22.6859 239.777 23.9312ZM242.071 26.6067C240.576 26.6067 239.364 25.4088 239.364 23.9312C239.364 22.4535 240.576 21.2556 242.071 21.2556C243.566 21.2556 244.778 22.4535 244.778 23.9312C244.778 25.4088 243.566 26.6067 242.071 26.6067Z" fill="#FFF8DC"/>
<path fill-rule="evenodd" clip-rule="evenodd" d="M222.447 4.39093C222.371 4.46722 222.367 4.58848 222.437 4.66998L227.49 10.5824H168.588C168.475 10.5824 168.384 10.673 168.382 10.7858C168.38 10.8986 168.47 10.9918 168.582 10.9951L168.588 10.9951L227.434 12.6888L222.588 18.0548C222.516 18.1345 222.517 18.2559 222.591 18.3342C222.664 18.4125 222.785 18.4216 222.869 18.3551L228.667 13.7738C228.757 13.7031 228.772 13.5733 228.701 13.4839C228.631 13.3945 228.501 13.3793 228.411 13.4499L224.541 16.5079L228.04 12.6337C228.094 12.574 228.108 12.4884 228.077 12.4144C228.045 12.3403 227.973 12.2915 227.893 12.2891L182.932 10.9951H227.938C228.018 10.9951 228.091 10.9483 228.125 10.8751C228.159 10.802 228.147 10.7159 228.095 10.6547L224.331 6.25083L228.598 9.8041C228.686 9.87703 228.816 9.86514 228.889 9.77756C228.962 9.68997 228.95 9.55985 228.862 9.48692L222.726 4.37732C222.643 4.30872 222.522 4.31463 222.447 4.39093Z" fill="#FFF8DC"/>
<path fill-rule="evenodd" clip-rule="evenodd" d="M249.399 31.9351C249.322 32.0104 249.201 32.0148 249.12 31.9451L243.207 26.8921L243.207 85.7936C243.207 85.9064 243.116 85.9984 243.004 86C242.891 86.0016 242.798 85.9123 242.794 85.7996L242.794 85.7936L241.101 26.9477L235.735 31.7936C235.655 31.8655 235.534 31.8645 235.455 31.7911C235.377 31.7178 235.368 31.5967 235.434 31.5126L240.016 25.7145C240.086 25.6251 240.216 25.6099 240.306 25.6805C240.395 25.7512 240.41 25.881 240.34 25.9704L237.282 29.8405L241.156 26.3418C241.215 26.2879 241.301 26.2736 241.375 26.3052C241.449 26.3368 241.498 26.4086 241.5 26.489L242.794 71.45L242.794 26.4442C242.794 26.3637 242.841 26.2905 242.914 26.2568C242.987 26.2231 243.074 26.235 243.135 26.2873L247.539 30.0511L243.985 25.7836C243.912 25.696 243.924 25.5659 244.012 25.493C244.1 25.4201 244.23 25.4319 244.303 25.5195L249.412 31.6562C249.481 31.7386 249.475 31.8598 249.399 31.9351Z" fill="#FFF8DC"/>
<path fill-rule="evenodd" clip-rule="evenodd" d="M242.784 391.826L242.988 391.794C242.784 391.826 242.784 391.826 242.784 391.826L242.784 391.823L242.783 391.816C242.782 391.81 242.78 391.801 242.779 391.79C242.776 391.767 242.771 391.734 242.766 391.691C242.755 391.605 242.742 391.48 242.729 391.321C242.704 391.005 242.683 390.554 242.697 390.014C242.71 389.51 242.755 388.928 242.857 388.304C242.731 386.712 242.367 385.46 241.855 384.478C241.019 382.873 239.778 381.966 238.489 381.466C237.938 381.252 237.377 381.113 236.836 381.027C236.058 381.065 235.187 381.079 234.214 381.093C233.85 381.099 233.472 381.105 233.079 381.112C232.974 381.114 232.884 381.036 232.871 380.931C232.858 380.827 232.926 380.729 233.028 380.705L233.075 380.906C233.028 380.705 233.029 380.705 233.029 380.705L233.031 380.704L233.038 380.703C233.044 380.701 233.053 380.699 233.065 380.697C233.087 380.692 233.12 380.685 233.163 380.677C233.248 380.66 233.372 380.638 233.529 380.614C233.842 380.567 234.287 380.516 234.817 380.497C235.411 380.476 236.114 380.497 236.859 380.612C237.242 380.593 237.6 380.567 237.937 380.531C239.205 380.396 240.114 380.124 240.775 379.563C241.435 379.004 241.88 378.131 242.157 376.721C242.411 375.429 242.52 373.709 242.536 371.412C242.533 371.198 242.534 370.979 242.538 370.755C242.54 370.642 242.633 370.551 242.746 370.552C242.86 370.554 242.951 370.646 242.951 370.759C242.951 370.981 242.95 371.199 242.949 371.411C242.988 374.084 243.617 375.986 244.538 377.337C245.533 378.794 246.881 379.629 248.244 380.095C249.205 380.423 250.172 380.568 251.022 380.617C251.863 380.5 252.785 380.447 253.798 380.468C253.903 380.471 253.99 380.552 253.999 380.656C254.009 380.761 253.938 380.856 253.834 380.877L253.794 380.675C253.834 380.877 253.834 380.877 253.834 380.877L253.834 380.877L253.832 380.878L253.825 380.879C253.819 380.88 253.81 380.882 253.799 380.884C253.776 380.888 253.743 380.894 253.701 380.901C253.615 380.915 253.492 380.934 253.334 380.954C253.02 380.993 252.573 381.035 252.037 381.047C251.731 381.053 251.396 381.05 251.04 381.031C249.308 381.276 247.955 381.795 246.898 382.474C245.337 383.477 244.404 384.837 243.854 386.212C243.568 386.929 243.385 387.649 243.272 388.322C243.35 389.351 243.33 390.511 243.193 391.815C243.182 391.918 243.097 391.997 242.993 392C242.89 392.003 242.8 391.928 242.784 391.826ZM243.124 387.088C243.219 386.748 243.333 386.403 243.471 386.058C244.047 384.62 245.028 383.184 246.675 382.127C247.497 381.599 248.482 381.168 249.658 380.877C249.154 380.79 248.632 380.664 248.111 380.486C246.682 379.997 245.252 379.115 244.197 377.57C243.611 376.71 243.144 375.651 242.856 374.349C242.794 375.294 242.699 376.105 242.562 376.8C242.276 378.256 241.802 379.233 241.042 379.878C240.324 380.487 239.378 380.773 238.176 380.919C238.331 380.968 238.485 381.022 238.639 381.082C240.006 381.612 241.332 382.581 242.221 384.287C242.626 385.063 242.938 385.988 243.124 387.088Z" fill="#FFF8DC"/>
<path fill-rule="evenodd" clip-rule="evenodd" d="M234.139 390.08C234.06 389.998 234.062 389.868 234.143 389.788L240.018 384.086C240.099 384.007 240.23 384.009 240.309 384.091C240.389 384.172 240.387 384.303 240.305 384.383L234.431 390.084C234.349 390.164 234.218 390.162 234.139 390.08Z" fill="#FFF8DC"/>
<path fill-rule="evenodd" clip-rule="evenodd" d="M252.704 390.08C252.783 389.998 252.781 389.868 252.699 389.788L246.825 384.086C246.743 384.007 246.613 384.009 246.533 384.091C246.454 384.172 246.456 384.303 246.538 384.383L252.412 390.084C252.493 390.164 252.624 390.162 252.704 390.08Z" fill="#FFF8DC"/>
<path fill-rule="evenodd" clip-rule="evenodd" d="M240.094 388.272C239.987 388.235 239.929 388.118 239.966 388.01L241.041 384.875C241.078 384.768 241.195 384.71 241.303 384.747C241.411 384.784 241.468 384.901 241.431 385.009L240.356 388.144C240.32 388.252 240.202 388.309 240.094 388.272Z" fill="#FFF8DC"/>
<path fill-rule="evenodd" clip-rule="evenodd" d="M246.748 388.272C246.856 388.235 246.913 388.118 246.876 388.01L245.802 384.875C245.765 384.768 245.647 384.71 245.539 384.747C245.432 384.784 245.374 384.901 245.411 385.009L246.486 388.144C246.523 388.252 246.64 388.309 246.748 388.272Z" fill="#FFF8DC"/>
<path fill-rule="evenodd" clip-rule="evenodd" d="M235.403 384.31C235.361 384.204 235.413 384.084 235.519 384.042L238.737 382.775C238.843 382.734 238.963 382.786 239.004 382.892C239.046 382.998 238.994 383.118 238.888 383.159L235.671 384.426C235.565 384.468 235.445 384.416 235.403 384.31Z" fill="#FFF8DC"/>
<path fill-rule="evenodd" clip-rule="evenodd" d="M251.44 384.31C251.481 384.204 251.429 384.084 251.323 384.042L248.106 382.775C248 382.734 247.88 382.786 247.838 382.892C247.796 382.998 247.848 383.118 247.954 383.159L251.172 384.426C251.278 384.468 251.398 384.416 251.44 384.31Z" fill="#FFF8DC"/>
<path fill-rule="evenodd" clip-rule="evenodd" d="M234.139 372.293C234.06 372.374 234.062 372.505 234.143 372.584L240.018 378.286C240.099 378.366 240.23 378.364 240.309 378.282C240.389 378.2 240.387 378.07 240.305 377.99L234.431 372.288C234.349 372.209 234.218 372.211 234.139 372.293Z" fill="#FFF8DC"/>
<path fill-rule="evenodd" clip-rule="evenodd" d="M252.704 372.293C252.783 372.374 252.781 372.505 252.699 372.584L246.825 378.286C246.743 378.366 246.613 378.364 246.533 378.282C246.454 378.2 246.456 378.07 246.538 377.99L252.412 372.288C252.493 372.209 252.624 372.211 252.704 372.293Z" fill="#FFF8DC"/>
<path fill-rule="evenodd" clip-rule="evenodd" d="M240.094 374.101C239.987 374.138 239.929 374.255 239.966 374.363L241.041 377.497C241.078 377.605 241.195 377.663 241.303 377.626C241.411 377.589 241.468 377.471 241.431 377.364L240.356 374.229C240.32 374.121 240.202 374.064 240.094 374.101Z" fill="#FFF8DC"/>
<path fill-rule="evenodd" clip-rule="evenodd" d="M246.748 374.101C246.856 374.138 246.913 374.255 246.876 374.363L245.802 377.497C245.765 377.605 245.647 377.663 245.539 377.626C245.432 377.589 245.374 377.471 245.411 377.364L246.486 374.229C246.523 374.121 246.64 374.064 246.748 374.101Z" fill="#FFF8DC"/>
<path fill-rule="evenodd" clip-rule="evenodd" d="M235.403 378.063C235.361 378.169 235.413 378.289 235.519 378.33L238.737 379.597C238.843 379.639 238.963 379.587 239.004 379.481C239.046 379.375 238.994 379.255 238.888 379.213L235.671 377.946C235.565 377.905 235.445 377.957 235.403 378.063Z" fill="#FFF8DC"/>
<path fill-rule="evenodd" clip-rule="evenodd" d="M251.44 378.063C251.481 378.169 251.429 378.289 251.323 378.33L248.106 379.597C248 379.639 247.88 379.587 247.838 379.481C247.796 379.375 247.848 379.255 247.954 379.213L251.172 377.946C251.278 377.905 251.398 377.957 251.44 378.063Z" fill="#FFF8DC"/>
<path fill-rule="evenodd" clip-rule="evenodd" d="M230.451 377.988C229.205 377.988 228.188 379.01 228.188 380.282C228.188 381.553 229.205 382.576 230.451 382.576C231.696 382.576 232.713 381.553 232.713 380.282C232.713 379.01 231.696 377.988 230.451 377.988ZM227.775 380.282C227.775 378.787 228.973 377.575 230.451 377.575C231.928 377.575 233.126 378.787 233.126 380.282C233.126 381.777 231.928 382.988 230.451 382.988C228.973 382.988 227.775 381.777 227.775 380.282Z" fill="#FFF8DC"/>
<path fill-rule="evenodd" clip-rule="evenodd" d="M239.777 368.069C239.777 366.824 240.8 365.806 242.071 365.806C243.343 365.806 244.365 366.824 244.365 368.069C244.365 369.314 243.343 370.332 242.071 370.332C240.8 370.332 239.777 369.314 239.777 368.069ZM242.071 365.393C240.576 365.393 239.364 366.591 239.364 368.069C239.364 369.547 240.576 370.744 242.071 370.744C243.566 370.744 244.778 369.547 244.778 368.069C244.778 366.591 243.566 365.393 242.071 365.393Z" fill="#FFF8DC"/>
<path fill-rule="evenodd" clip-rule="evenodd" d="M222.447 387.609C222.371 387.533 222.367 387.412 222.437 387.33L227.49 381.418H168.588C168.475 381.418 168.384 381.327 168.382 381.214C168.38 381.101 168.47 381.008 168.582 381.005L168.588 381.005L227.434 379.311L222.588 373.945C222.516 373.866 222.517 373.744 222.591 373.666C222.664 373.588 222.785 373.578 222.869 373.645L228.667 378.226C228.757 378.297 228.772 378.427 228.701 378.516C228.631 378.606 228.501 378.621 228.411 378.55L224.541 375.492L228.04 379.366C228.094 379.426 228.108 379.512 228.077 379.586C228.045 379.66 227.973 379.709 227.893 379.711L182.932 381.005H227.938C228.018 381.005 228.091 381.052 228.125 381.125C228.159 381.198 228.147 381.284 228.095 381.345L224.331 385.749L228.598 382.196C228.686 382.123 228.816 382.135 228.889 382.222C228.962 382.31 228.95 382.44 228.862 382.513L222.726 387.623C222.643 387.691 222.522 387.685 222.447 387.609Z" fill="#FFF8DC"/>
<path fill-rule="evenodd" clip-rule="evenodd" d="M249.399 360.065C249.322 359.99 249.201 359.985 249.12 360.055L243.207 365.108L243.207 306.206C243.207 306.094 243.116 306.002 243.004 306C242.891 305.998 242.798 306.088 242.794 306.2L242.794 306.206L241.101 365.052L235.735 360.206C235.655 360.134 235.534 360.136 235.455 360.209C235.377 360.282 235.368 360.403 235.434 360.487L240.016 366.285C240.086 366.375 240.216 366.39 240.306 366.319C240.395 366.249 240.41 366.119 240.34 366.03L237.282 362.16L241.156 365.658C241.215 365.712 241.301 365.726 241.375 365.695C241.449 365.663 241.498 365.591 241.5 365.511L242.794 320.55L242.794 365.556C242.794 365.636 242.841 365.709 242.914 365.743C242.987 365.777 243.074 365.765 243.135 365.713L247.539 361.949L243.985 366.216C243.912 366.304 243.924 366.434 244.012 366.507C244.1 366.58 244.23 366.568 244.303 366.48L249.412 360.344C249.481 360.261 249.475 360.14 249.399 360.065Z" fill="#FFF8DC"/>
</svg>
